<svg xmlns="http://www.w3.org/2000/svg" style="shape-rendering:geometricPrecision;text-rendering:geometricPrecision;image-rendering:optimizeQuality;fill-rule:evenodd;clip-rule:evenodd" viewBox="0 0 512 512">
  <path fill="#5ee99f" d="M310.5 5.5c4 .3 8 1 12 2 1 4.3 3.3 7.8 7 10.5 4.8 3 9.8 5.6 15 8 1.9 1 3.2 2.5 4 4.5a689 689 0 0 1-25-11.5c-5.3-3.1-10-7-14-11.5l1-2Z" style="opacity:.722"/>
  <path fill="#2ce382" d="M253.5-.5h16c-3.3 3.1-3 6.3 1 9.5l10 5c21.3 5.5 42 12.5 62 21 2.3 1.3 4.3 2.8 6 4.5-3.6-.8-6.9-2.1-10-4a398.6 398.6 0 0 0-71.5-21l-12-8a12.1 12.1 0 0 1-1.5-7Z" style="opacity:.729"/>
  <path fill="#1de079" d="M242.5-.5h11c-.2 2.5.3 4.8 1.5 7l12 8a398.6 398.6 0 0 1 71.5 21c-.1.9.2 1.5 1 2 9.7 4.5 19 9.5 28 15-18.7-9.2-38-17-58-23.5-11.6-2.6-23.4-5.1-35.5-7.5l-5 1c-5-3.4-10.1-3.4-15.5 0-1.2-.3-1.2-.8 0-1.5-2-.3-3.8-.8-5.5-1.5l-1 1c-.9-2.7-2.7-5.2-5.5-7.5-.1-4.1.2-8.6 1-13.5Z" style="opacity:.729"/>
  <path fill="#75ebad" d="M338.5 12.5c6.6 2.3 12.9 5 19 8-2.8 3.4-2.2 6.2 2 8.5a173.5 173.5 0 0 1 29 21.5 466.7 466.7 0 0 1-44-28.5l-7-7c.8-.7 1-1.5 1-2.5Z" style="opacity:.7"/>
  <path fill="#49e793" d="M280.5.5a141 141 0 0 1 30 5l-1 2c4 4.5 8.7 8.4 14 11.5a689 689 0 0 0 25 11.5 53 53 0 0 0 12 7c.8.5 1.1 1.1 1 2-24-8-47.7-17.2-71-27.5-5.6-2-9-5.8-10-11.5Z" style="opacity:.729"/>
  <path fill="#85edb5" d="M357.5 20.5c7.8 3 15.1 6.6 22 11-.5 0-.9.4-1 1 2.6 2 4 4.7 4.5 8 2.7 2.4 5 5 7 8 2 1.6 4.1 2.8 6.5 3.5 4.7 5.4 10 10 16 14 1.4 1.3 2.4 2.8 3 4.5l-20-15a14 14 0 0 0-7-5 173.5 173.5 0 0 0-29-21.5c-4.2-2.3-4.8-5.1-2-8.5Z" style="opacity:.692"/>
  <path fill="#15d66f" d="M216.5 2.5c2.4-1 5.1-1.3 8-1-.4 2.9-.6 5.9-.5 9-2.3 2.3-2.4 4.5-.5 6.5l-3 3a5 5 0 0 1 3.5 2.5c1.3-2.7 2.7-2.7 4 0 2.4.3 4.9 0 7.5-1 6.5 1.4 13 2.4 19.5 3 .7-2.7 1.3-2.7 2 0 3.9-1.2 6.9.5 9 5 2.1-1.4 2.6-1 1.5 1a39 39 0 0 1 4 16h-16v-18a247 247 0 0 0-61 8 31 31 0 0 0-2-2c1.3-.2 3-.7 5-1.5l-3-1a39 39 0 0 0 4.5-4.5c.4 1.5 1.3 2 2.5 1.5-.5-.4-.8-1-1-1.5 1.8-1.4 3.8-2.6 6-3.5l-1-1c3-1 5.6-2.9 7.5-5.5l1 1a123 123 0 0 0 4.5-9.5c-.3-2.4-1-4.6-2-6.5Z" style="opacity:.729"/>
  <path fill="#097d40" d="M145.5 23.5c.2 2.5-.3 4.8-1.5 7a269.2 269.2 0 0 1-39.5 34 166 166 0 0 1 20-18 99 99 0 0 0 9-13.5c-.8-.7-1-1.5-1-2.5 4.2-2.6 8.5-5 13-7Z" style="opacity:.714"/>
  <path fill="#14d96f" d="M233.5-.5h9c-.8 4.9-1.1 9.4-1 13.5 2.8 2.3 4.6 4.8 5.5 7.5l1-1c1.7.7 3.6 1.2 5.5 1.5-1.2.7-1.2 1.2 0 1.5 5.4-3.4 10.5-3.4 15.5 0l5-1c12.1 2.4 24 4.9 35.5 7.5 20 6.5 39.3 14.3 58 23.5a4.2 4.2 0 0 0 3 2.5c-2.4.7-2.4 1.7 0 3 3 1.2 5.6 2.8 8 5l-1.5 1.5-11-7c-13.5.2-27.3.2-41.5 0-17.2-5.6-35-9.3-53-11a39 39 0 0 0-4-16c1.1-2 .6-2.4-1.5-1-2.1-4.5-5.1-6.2-9-5-.7-2.7-1.3-2.7-2 0-6.5-.6-13-1.6-19.5-3-2.6 1-5.1 1.3-7.5 1-1.3-2.7-2.7-2.7-4 0a5 5 0 0 0-3.5-2.5l3-3c-2-2-1.8-4.2.5-6.5 0-3.1 0-6.1.5-9l9-2Z" style="opacity:.729"/>
  <path fill="#90edbb" d="M379.5 31.5c3.8 1.7 7.5 3.7 11 6-.7-.1-1.4 0-2 .5 1 1.4 1.8 3 2.5 4.5 10 9.6 19.6 19.6 28.5 30a7 7 0 0 1-4-2c-.6-1.7-1.6-3.2-3-4.5-6-4-11.3-8.6-16-14-2.4-.7-4.6-1.9-6.5-3.5-2-3-4.3-5.6-7-8-.4-3.3-2-6-4.5-8 .1-.6.5-1 1-1Z" style="opacity:.696"/>
  <path fill="#097039" d="M132.5 30.5c0 1 .2 1.8 1 2.5a99 99 0 0 1-9 13.5 166 166 0 0 0-20 18c-1 2.6-2.6 4.6-5 6a179 179 0 0 0-17 15c-.1-.7 0-1.4.5-2 13-12.7 25.7-25.7 38-39 2.1-2.5 2.6-5.2 1.5-8 3-2.5 6.3-4.5 10-6Z" style="opacity:.686"/>
  <path fill="#096634" d="M122.5 36.5c1.1 2.8.6 5.5-1.5 8-12.3 13.3-25 26.3-38 39-.5.6-.6 1.3-.5 2-2.9 2.4-5.7 5-8.5 8a727.2 727.2 0 0 1-19.5 25c4.8-8.3 10.2-16.3 16-24C84.9 80 99 65.3 113 50.5a38 38 0 0 0 5.5-8.5 4.3 4.3 0 0 0-2-1.5c1.6-1.8 3.6-3.2 6-4Z" style="opacity:.716"/>
  <path fill="#35e086" d="M269.5-.5h8c.7.9 1.7 1.2 3 1 1 5.7 4.4 9.6 10 11.5 23.3 10.3 47 19.5 71 27.5 3.5 3 7.2 5.6 11 8 1.5 2 3.1 3.8 5 5.5 7.2 5.2 14.5 10.2 22 15a37 37 0 0 0 4 5.5c-3.8-2.4-7.8-4.6-12-6.5a51.7 51.7 0 0 0-16-13 14 14 0 0 0-3-4l-11-3a25 25 0 0 0-13-7.5 26.8 26.8 0 0 0-6-4.5c-20-8.5-40.7-15.5-62-21l-10-5c-4-3.2-4.3-6.4-1-9.5Z" style="opacity:.729"/>
  <path fill="#0ddd6f" d="M255.5 46.5v16c-36.2-.2-72.4-.2-108.5 0-1.6-1.7-1-3 1.5-4-1.3.5-2.3-.2-3-2a222 222 0 0 1 110-28v18Z" style="opacity:.729"/>
  <path fill="#0ca353" d="M181.5 9.5c.7 1.6.9 3.3.5 5l-9.5 9.5a779.8 779.8 0 0 0-54 36A1338.6 1338.6 0 0 0 75 103.5a60.6 60.6 0 0 1-11 15c-4.1 9.6-8.8 18.9-14 28-5 11.7-9.2 23.7-12.5 36a7 7 0 0 0-1 4c-2.7 3.8-4 8.1-4 13-1.5 4.6-2.8 9.3-4 14-.4 0-.8-.1-1-.5 2.4-14 5.4-27.8 9-41.5 5-15 11.8-29 20.5-42 .5-1.3.7-2.6.5-4a41 41 0 0 1 7-13c8.5-9.8 16.5-19.8 24-30a304.5 304.5 0 0 0 35-30.5 358.4 358.4 0 0 0 30-19c5.6-4.3 9.6-9.6 12-16-.6-.5-1.3-.6-2-.5 5.8-2.7 11.8-5 18-7Z" style="opacity:.729"/>
  <path fill="#085c2f" d="M116.5 40.5c.8.3 1.5.8 2 1.5a38 38 0 0 1-5.5 8.5C99 65.3 84.9 80 70.5 94.5a235.6 235.6 0 0 0-16 24h-2c-.2-1.4 0-2.7.5-4l22-28a145.2 145.2 0 0 0 33-37c.7-1.2.6-2.2-.5-3 2.5-2.7 5.5-4.7 9-6Z" style="opacity:.696"/>
  <path fill="#9bedc1" d="M390.5 37.5c7.6 4.3 14.6 9.3 21 15-.6.2-1 .7-1 1.5l2.5 4.5a383.5 383.5 0 0 1 42 50c1.4 2.6 2.6 5.2 3.5 8l-4-2a26.9 26.9 0 0 0-10.5-15 79.7 79.7 0 0 0-23.5-26c-.7 0-1-.3-1-1-9-10.4-18.4-20.4-28.5-30-.7-1.6-1.5-3-2.5-4.5.6-.5 1.3-.6 2-.5Z" style="opacity:.685"/>
  <path fill="#e3feeb" d="M256.5 46.5h15c18 1.7 35.8 5.4 53 11a259.3 259.3 0 0 1 54 28c12.3 10 24 20.6 35 32 6.4 7.7 12.4 15.7 18 24a287 287 0 0 1 24 50c2.1 10.2 4.4 20.2 7 30 1.7 15.6 2.3 31.3 2 47-1.3 18.8-5 37.1-11 55-2.8 7.7-5.8 15.4-9 23-6.6 12-13.6 23.6-21 35l-16 18a186 186 0 0 1-30 26 209 209 0 0 1-48 26 250.5 250.5 0 0 1-51 12h-3c-.3-10.4 0-20.7 1-31a101 101 0 0 0 27-6 143 143 0 0 0 54-25c6.3-4.3 12.3-9 18-14 7-5.9 13-12.6 18-20a70 70 0 0 0 14-20 104 104 0 0 0 13-24 157 157 0 0 0 8-27c2.6-9 4.2-18.4 5-28v-25c-.4-7.5-1.4-14.8-3-22a125.9 125.9 0 0 0-9-30c-4-12.2-9.7-23.5-17-34-4.9-7.7-10.4-15-16.5-22a102 102 0 0 0-15.5-14c-2.3-2.8-5-5.1-8-7a169.6 169.6 0 0 0-89-36c-4.8-1-9.8-1.3-15-1h-4v-31Z" style="opacity:.729"/>
  <path fill="#0dd76c" d="M145.5 56.5c.7 1.8 1.7 2.5 3 2-2.6 1-3 2.3-1.5 4 36.1-.2 72.3-.2 108.5 0v20c-46.2-1.1-92.4-1.1-138.5 0 0-1.6.7-2.8 2.5-3.5-1-1.2-2-1.7-3-1.5 1.1-1.4 2.4-2.6 4-3.5-1.3-.7-1.3-1.3 0-2 8-5.8 16.3-11 25-15.5Z" style="opacity:.729"/>
  <path fill="#074423" d="M96.5 54.5c.9-.1 1.5.2 2 1a74.8 74.8 0 0 1-19.5 24c-7.6 10.3-16 20-25 29a34.7 34.7 0 0 0-7 14 14 14 0 0 0-4 3c-1.7 4-3.9 7.7-6.5 11 5.9-12.7 13-24.7 21.5-36l24-30c.7-1.2.6-2.2-.5-3 4.7-4.7 9.7-9 15-13Z" style="opacity:.714"/>
  <path fill="#0a8c47" d="M163.5 16.5c.7-.1 1.4 0 2 .5a35.2 35.2 0 0 1-12 16 358.4 358.4 0 0 1-30 19 304.5 304.5 0 0 1-35 30.5l11-12c2.4-1.4 4-3.4 5-6 14.1-10 27.3-21.3 39.5-34 1.2-2.2 1.7-4.5 1.5-7a104 104 0 0 1 18-7Z" style="opacity:.729"/>
  <path fill="#63e5a0" d="m322.5 7.5 16 5c0 1-.2 1.8-1 2.5l7 7a466.7 466.7 0 0 0 44 28.5 14 14 0 0 1 7 5c3.4 4.7 7.7 8.6 13 11.5 6 5.2 11 11 15.5 17.5a30 30 0 0 0 7 6c.6 2.4 1.7 4.4 3.5 6-7.7-6.3-15-13-22-20a294.8 294.8 0 0 0-18-16.5c-1.9-1-3.9-1.6-6-2-5.2-3.8-10.6-7.3-16-10.5-3.8-2.4-7.5-5-11-8 .1-.9-.2-1.5-1-2a53 53 0 0 1-12-7c-.8-2-2.1-3.5-4-4.5a161 161 0 0 1-15-8c-3.7-2.7-6-6.2-7-10.5Z" style="opacity:.729"/>
  <path fill="#15d26d" d="M338.5 35.5c3.1 1.9 6.4 3.2 10 4a25 25 0 0 1 13 7.5l11 3a14 14 0 0 1 3 4 51.7 51.7 0 0 1 16 13c4.2 2 8.2 4 12 6.5l8 10c-.5 0-.9.4-1 1 2.4 2.5 4.5 5.2 6.5 8 .7.7.7 1.3 0 2l-5-5-1 1c-4.7-6-9.3-6.4-14-1-.7-1.3-1.3-1.3-2 0l-2-3c-2 1.8-4 2.8-6 3-1.5-.8-1.7-1.6-.5-2.5-2.2-.2-4-1-5.5-2.5-.7.8-1.5 1-2.5 1a259.3 259.3 0 0 0-54-28c14.2.2 28 .2 41.5 0l11 7 1.5-1.5c-2.4-2.2-5-3.8-8-5-2.4-1.3-2.4-2.3 0-3a4.2 4.2 0 0 1-3-2.5c-9-5.5-18.3-10.5-28-15-.8-.5-1.1-1.1-1-2Z" style="opacity:.729"/>
  <path fill="#3eda87" d="M372.5 47.5c5.4 3.2 10.8 6.7 16 10.5 2.1.4 4.1 1 6 2 6.3 5.3 12.3 10.8 18 16.5 6 7.4 12.4 14.4 19.5 21 2.4 3.9 4.9 7.5 7.5 11a87 87 0 0 0-8.5-7A163.5 163.5 0 0 0 411.5 78a62.8 62.8 0 0 1-8-4.5 37 37 0 0 1-4-5.5c-7.5-4.8-14.8-9.8-22-15a38.5 38.5 0 0 1-5-5.5Z" style="opacity:.729"/>
  <path fill="#70e0a4" d="m395.5 55.5 20 15a7 7 0 0 0 4 2c0 .7.3 1 1 1a47.4 47.4 0 0 0 14.5 16l1 4a14 14 0 0 1 5 7c4.7 4.5 9.2 9.1 13.5 14 7.7 15.8 15.7 31.5 24 47 .5 2.3.8 4.6 1 7-5-11-10.2-22-15.5-33a7586 7586 0 0 0-11-13 40.2 40.2 0 0 0-11.5-16c.1-1 0-2-.5-3l-6.5-7c-1.8-1.6-3-3.6-3.5-6a30 30 0 0 1-7-6A96.2 96.2 0 0 0 408.5 67c-5.3-3-9.6-6.8-13-11.5Z" style="opacity:.729"/>
  <path fill="#28c46f" d="M255.5 46.5h1v31h4c.5 1.7.5 3.2 0 4.5 1.8.3 2.1 1 1 2 .8 2 1.3 4.2 1.5 6.5 1-1.2 1.5-.9 1.5 1 .3 9 .3 17.7 0 26.5 1.4 2.1 2.8 4.3 4 6.5h-5c-2.4-1-5.1-1.3-8-1v-77Z" style="opacity:.729"/>
  <path fill="#10cb67" d="M275.5 78.5c33.3 3.5 63 15.5 89 36-.3.8-.8 1.5-1.5 2a841.2 841.2 0 0 0-82 0 19 19 0 0 1-3-9l-1 1c-2.9-2.5-5-5-6.5-7.5.1-6.5.4-14 1-22.5h4Z" style="opacity:.729"/>
  <path fill="#0dd069" d="M216.5 2.5c1 2 1.7 4.1 2 6.5a123 123 0 0 1-4.5 9.5l-1-1c-2 2.6-4.4 4.4-7.5 5.5l1 1c-2.2 1-4.2 2-6 3.5.2.6.5 1 1 1.5-1.2.5-2 0-2.5-1.5a39 39 0 0 1-4.5 4.5l3 1c-2 .8-3.7 1.3-5 1.5a31 31 0 0 1 2 2 222 222 0 0 0-49 20c-8.7 4.5-17 9.7-25 15.5-1.3.7-1.3 1.3 0 2-1.6 1-2.9 2.1-4 3.5 1-.2 2 .3 3 1.5-1.8.7-2.6 1.9-2.5 3.5 46.1-1.1 92.3-1.1 138.5 0v25c-2.1-1.5-4-1.1-5.5 1l-2-2c-.8 1-1.8 1-3 0-1.8 2.3-3.5 2.3-5 0-.8 1-1.8 1-3 0-1.8 2.3-3.5 2.3-5 0-.8 1-1.8 1-3 0-1.8 2.3-3.5 2.3-5 0-.8 1-1.8 1-3 0-1.8 2.3-3.5 2.3-5 0-.8 1-1.8 1-3 0-1.8 2.3-3.5 2.3-5 0-.8 1-1.8 1-3 0-1.8 2.3-3.5 2.3-5 0-.8 1-1.8 1-3 0-1.8 2.3-3.5 2.3-5 0-.8 1-1.8 1-3 0-1.8 2.3-3.5 2.3-5 0-.8 1-1.8 1-3 0-1.8 2.3-3.5 2.3-5 0-.8 1-1.8 1-3 0-1.8 2.3-3.5 2.3-5 0-.8 1-1.8 1-3 0-1.8 2.3-3.5 2.3-5 0-.8 1-1.8 1-3 0-1.8 2.3-3.5 2.3-5 0-.8 1-1.8 1-3 0-1.8 2.3-3.5 2.3-5 0-.8 1-1.8 1-3 0-1.8 2.3-3.5 2.3-5 0-.8 1-1.8 1-3 0-1.8 2.3-3.5 2.3-5 0-.8 1-1.8 1-3 0-1.8 2.3-3.5 2.3-5 0-.8 1-1.8 1-3 0-1.8 2.3-3.5 2.3-5 0-.8 1-1.8 1-3 0-1.8 2.3-3.5 2.3-5 0-.8 1-1.8 1-3 0-1.8 2.3-3.5 2.3-5 0h-5.5a5.3 5.3 0 0 1 3-3.5l-4-1a22 22 0 0 0 5-8.5c12-11.7 24.4-23.2 37-34.5a794.8 794.8 0 0 1 67-40.5c-.1-1 0-2 .5-3l1 1c1-2.3 2.4-4.5 4.5-6.5a21 21 0 0 1-1-5.5c4.2-1.2 8.6-1.8 13-2Z" style="opacity:.729"/>
  <path fill="#0eb05a" d="M185.5 8.5a31 31 0 0 0 2 2 31.4 31.4 0 0 0-3.5 7c-3 2.3-5.8 4.8-8.5 7.5a1179.5 1179.5 0 0 0-54 36C94.3 83 72.1 109 55 139.5l-1 7a21.6 21.6 0 0 0-5.5 11c-2.5 3.2-4.1 7-5 11a183 183 0 0 1-6 14c3.3-12.3 7.4-24.3 12.5-36 5.2-9.1 9.9-18.4 14-28 4.4-4.4 8.1-9.4 11-15 14.2-14.8 28.7-29.3 43.5-43.5a779.8 779.8 0 0 1 54-36l9.5-9.5c.4-1.7.2-3.4-.5-5a7 7 0 0 0 4-1Z" style="opacity:.729"/>
  <path fill="#14cb68" d="M411.5 83.5c9.7 8.1 18 17.5 25 28-3.2.5-3.2 2 0 4.5l-1 .5c-7.2-.1-14.4-.5-21.5-1-.5.6-.6 1.3-.5 2-11-11.4-22.7-22-35-32 1 0 1.8-.2 2.5-1a8.4 8.4 0 0 0 5.5 2.5c-1.2 1-1 1.7.5 2.5 2-.2 4-1.2 6-3l2 3c.7-1.3 1.3-1.3 2 0 4.7-5.4 9.3-5 14 1l1-1 5 5c.7-.7.7-1.3 0-2-2-2.8-4.1-5.5-6.5-8 .1-.6.5-1 1-1Z" style="opacity:.729"/>
  <path fill="#073b20" d="M81.5 67.5c1 .8 1.2 1.8.5 3l-24 30a198.1 198.1 0 0 0-21.5 36 222.2 222.2 0 0 0-26.5 80 258.3 258.3 0 0 0 29.5 156 231 231 0 0 1-26.5-65 254 254 0 0 1 37-201c.4-2 1.2-3.6 2.5-5-.1-.6-.5-1-1-1a176.4 176.4 0 0 1 30-33Z" style="opacity:.729"/>
  <path fill="#0dca66" d="M94.5 93.5a22 22 0 0 1-5 8.5l4 1a5.3 5.3 0 0 0-3 3.5H96c1.5 2.3 3.2 2.3 5 0 1.2 1 2.2 1 3 0 1.5 2.3 3.2 2.3 5 0 1.2 1 2.2 1 3 0 1.5 2.3 3.2 2.3 5 0 1.2 1 2.2 1 3 0 1.5 2.3 3.2 2.3 5 0 1.2 1 2.2 1 3 0 1.5 2.3 3.2 2.3 5 0 1.2 1 2.2 1 3 0 1.5 2.3 3.2 2.3 5 0 1.2 1 2.2 1 3 0 1.5 2.3 3.2 2.3 5 0 1.2 1 2.2 1 3 0 1.5 2.3 3.2 2.3 5 0 1.2 1 2.2 1 3 0 1.5 2.3 3.2 2.3 5 0 1.2 1 2.2 1 3 0 1.5 2.3 3.2 2.3 5 0 1.2 1 2.2 1 3 0 1.5 2.3 3.2 2.3 5 0 1.2 1 2.2 1 3 0 1.5 2.3 3.2 2.3 5 0 1.2 1 2.2 1 3 0 1.5 2.3 3.2 2.3 5 0 1.2 1 2.2 1 3 0 1.5 2.3 3.2 2.3 5 0 1.2 1 2.2 1 3 0 1.5 2.3 3.2 2.3 5 0 1.2 1 2.2 1 3 0 1.5 2.3 3.2 2.3 5 0 1.2 1 2.2 1 3 0 1.5 2.3 3.2 2.3 5 0 1.2 1 2.2 1 3 0 1.5 2.3 3.2 2.3 5 0 1.2 1 2.2 1 3 0 1.5 2.3 3.2 2.3 5 0 1.2 1 2.2 1 3 0l2 2c1.6-2.1 3.4-2.5 5.5-1v27c-1.6-2.4-3-2.4-4.5 0-1.3-2.7-2.7-2.7-4 0-1.3-2.7-2.7-2.7-4 0-1.3-2.7-2.7-2.7-4 0-1.3-2.7-2.7-2.7-4 0-1.3-2.7-2.7-2.7-4 0-1.3-2.7-2.7-2.7-4 0-1.3-2.7-2.7-2.7-4 0-1.3-2.7-2.7-2.7-4 0-1.3-2.7-2.7-2.7-4 0-1.3-2.7-2.7-2.7-4 0-1.3-2.7-2.7-2.7-4 0-1.3-2.7-2.7-2.7-4 0-1.3-2.7-2.7-2.7-4 0-1.3-2.7-2.7-2.7-4 0-1.3-2.7-2.7-2.7-4 0-1.3-2.7-2.7-2.7-4 0-1.3-2.7-2.7-2.7-4 0-1.3-2.7-2.7-2.7-4 0-1.3-2.7-2.7-2.7-4 0-1.3-2.7-2.7-2.7-4 0-1.3-2.7-2.7-2.7-4 0-1.3-2.7-2.7-2.7-4 0-1.3-2.7-2.7-2.7-4 0-1.3-2.7-2.7-2.7-4 0-1.3-2.7-2.7-2.7-4 0-1.3-2.7-2.7-2.7-4 0-1.3-2.7-2.7-2.7-4 0-1.3-2.7-2.7-2.7-4 0-1.3-2.7-2.7-2.7-4 0-1.3-2.7-2.7-2.7-4 0-1.3-2.7-2.7-2.7-4 0-1.3-2.7-2.7-2.7-4 0-1.3-2.7-2.7-2.7-4 0-1.3-2.7-2.7-2.7-4 0-1.3-2.7-2.7-2.7-4 0-1.3-2.7-2.7-2.7-4 0-1.3-2.7-2.7-2.7-4 0-1.3-2.7-2.7-2.7-4 0-1.3-2.7-2.7-2.7-4 0-1.3-2.7-2.7-2.7-4 0-1.3-2.7-2.7-2.7-4 0-1.3-2.7-2.7-2.7-4 0-1.3-2.7-2.7-2.7-4 0-1.3-2.7-2.7-2.7-4 0-1.3-2.7-2.7-2.7-4 0l-1.5-1.5a29 29 0 0 0 0-8c1.9-1 2.2-2.1 1-3.5 3.4-5.2 7-10.2 11-15 4.7-4 9-8.4 13-13Z" style="opacity:.729"/>
  <path fill="#b4ecce" d="M443.5 81.5a244.2 244.2 0 0 1 60 111c.1.7 0 1.4-.5 2a74.8 74.8 0 0 1-9.5-21 3 3 0 0 0-3-1 146.3 146.3 0 0 0-16-36 212.2 212.2 0 0 0-18.5-31c-1.7-6-5-11.3-10-16l-3.5-7c.1-.6.5-1 1-1Z" style="opacity:.65"/>
  <path fill="#89e5b4" d="M420.5 73.5c9.8 7 17.6 15.6 23.5 26 5.2 3.7 8.7 8.7 10.5 15-4.3-4.9-8.8-9.5-13.5-14a14 14 0 0 0-5-7l-1-4c-6.1-4.3-11-9.6-14.5-16Z" style="opacity:.729"/>
  <path fill="#29cf77" d="M403.5 73.5c2.5 1.7 5.2 3.2 8 4.5 7.3 7.2 13.8 15 19.5 23.5a87 87 0 0 1 8.5 7 73 73 0 0 1 15 25 23.7 23.7 0 0 1-5.5-9 25.1 25.1 0 0 0-4.5-4l-8-9c-7-10.5-15.3-19.9-25-28l-8-10Z" style="opacity:.729"/>
  <path fill="#11c565" d="m436.5 111.5 8 9a234 234 0 0 0 15 28c-3.3-3.4-6.8-6.8-10.5-10-1 2.2-2.3 4.2-4 6h-4l-2-2c-1.1 1.9-2.4 2.6-4 2-1.5-.8-1.7-1.6-.5-2.5a5 5 0 0 0-3-.5 307.4 307.4 0 0 0-18-24c-.1-.7 0-1.4.5-2 7 .5 14.3.9 21.5 1l1-.5c-3.2-2.5-3.2-4 0-4.5Z" style="opacity:.729"/>
  <path fill="#a9ecc8" d="M411.5 52.5a164.8 164.8 0 0 1 32 29c-.5 0-.9.4-1 1l3.5 7c5 4.7 8.3 10 10 16 6.9 9.5 13 19.8 18.5 31 .8 3.6 1.5 7.3 2 11-3-3.4-5.2-7.4-6.5-12a69 69 0 0 1-11.5-19c-1-2.8-2.1-5.4-3.5-8a383.5 383.5 0 0 0-42-50l-2.5-4.5c0-.8.4-1.3 1-1.5Z" style="opacity:.729"/>
  <path fill="#0cc663" d="M70.5 121.5c1.2 1.4.9 2.5-1 3.5a29 29 0 0 1 0 8l1.5 1.5c1.3-2.7 2.7-2.7 4 0 1.3-2.7 2.7-2.7 4 0 1.3-2.7 2.7-2.7 4 0 1.3-2.7 2.7-2.7 4 0 1.3-2.7 2.7-2.7 4 0 1.3-2.7 2.7-2.7 4 0 1.3-2.7 2.7-2.7 4 0 1.3-2.7 2.7-2.7 4 0 1.3-2.7 2.7-2.7 4 0 1.3-2.7 2.7-2.7 4 0 1.3-2.7 2.7-2.7 4 0 1.3-2.7 2.7-2.7 4 0 1.3-2.7 2.7-2.7 4 0 1.3-2.7 2.7-2.7 4 0 1.3-2.7 2.7-2.7 4 0 1.3-2.7 2.7-2.7 4 0 1.3-2.7 2.7-2.7 4 0 1.3-2.7 2.7-2.7 4 0 1.3-2.7 2.7-2.7 4 0 1.3-2.7 2.7-2.7 4 0 1.3-2.7 2.7-2.7 4 0 1.3-2.7 2.7-2.7 4 0 1.3-2.7 2.7-2.7 4 0 1.3-2.7 2.7-2.7 4 0 1.3-2.7 2.7-2.7 4 0 1.3-2.7 2.7-2.7 4 0 1.3-2.7 2.7-2.7 4 0 1.3-2.7 2.7-2.7 4 0 1.3-2.7 2.7-2.7 4 0 1.3-2.7 2.7-2.7 4 0 1.3-2.7 2.7-2.7 4 0 1.3-2.7 2.7-2.7 4 0 1.3-2.7 2.7-2.7 4 0 1.3-2.7 2.7-2.7 4 0 1.3-2.7 2.7-2.7 4 0 1.3-2.7 2.7-2.7 4 0 1.3-2.7 2.7-2.7 4 0 1.3-2.7 2.7-2.7 4 0 1.3-2.7 2.7-2.7 4 0 1.3-2.7 2.7-2.7 4 0 1.3-2.7 2.7-2.7 4 0 1.3-2.7 2.7-2.7 4 0 1.3-2.7 2.7-2.7 4 0 1.3-2.7 2.7-2.7 4 0 1.3-2.7 2.7-2.7 4 0 1.4-2.4 3-2.4 4.5 0v12c-2.7-4.6-5.9-5.3-9.5-2-.7-1-1.7-1.7-3-2-1.2 1-2.2 1-3 0-1.5 2.3-3.2 2.3-5 0-1.2 1-2.2 1-3 0-1.5 2.3-3.2 2.3-5 0-1.2 1-2.2 1-3 0-1.5 2.3-3.2 2.3-5 0-1.2 1-2.2 1-3 0-1.5 2.3-3.2 2.3-5 0-1.2 1-2.2 1-3 0-1.5 2.3-3.2 2.3-5 0-1.2 1-2.2 1-3 0-1.5 2.3-3.2 2.3-5 0-1.2 1-2.2 1-3 0-1.5 2.3-3.2 2.3-5 0-1.2 1-2.2 1-3 0-1.5 2.3-3.2 2.3-5 0-1.2 1-2.2 1-3 0-1.5 2.3-3.2 2.3-5 0-1.2 1-2.2 1-3 0-1.5 2.3-3.2 2.3-5 0-1.2 1-2.2 1-3 0-1.5 2.3-3.2 2.3-5 0-1.2 1-2.2 1-3 0-1.5 2.3-3.2 2.3-5 0-1.2 1-2.2 1-3 0-1.5 2.3-3.2 2.3-5 0-1.2 1-2.2 1-3 0-1.5 2.3-3.2 2.3-5 0-1.2 1-2.2 1-3 0-1.5 2.3-3.2 2.3-5 0-1.2 1-2.2 1-3 0-1.5 2.3-3.2 2.3-5 0-1.2 1-2.2 1-3 0-1.5 2.3-3.2 2.3-5 0-1.2 1-2.2 1-3 0-1.5 2.3-3.2 2.3-5 0-1.2 1-2.2 1-3 0-1.5 2.3-3.2 2.3-5 0-1.2 1-2.2 1-3 0-1.5 2.3-3.2 2.3-5 0-1.2 1-2.2 1-3 0l-2 2c-1.8-2-3.8-2.6-6-2l-2 2a11 11 0 0 0-6.5-2.5c2.8-2.4 2.5-3.7-1-4 .8-3 2.1-5.7 4-8-.8-.7-1-1.5-1-2.5l5-6Z" style="opacity:.729"/>
  <path fill="#0fc564" d="M260.5 77.5c5.2-.3 10.2 0 15 1h-4c-.6 8.5-.9 16-1 22.5 1.4 2.5 3.6 5 6.5 7.5l1-1a19 19 0 0 0 3 9c27.3-1.3 54.7-1.3 82 0 .7-.5 1.2-1.2 1.5-2 3 1.9 5.7 4.2 8 7-1 .4-1.2 1-.5 2l3.5 3.5a7 7 0 0 0-2.5 3.5c-20.5-1-40.8-1-61 0l-5-4c-1.1 1-2.1 1-3 0-1 1.8-2 2.2-3.5 1l-2 2c-1.2-3.1-2.7-3.5-4.5-1-3.4-1.2-6.9-2-10.5-2-5-.6-10-1.2-15-2a82.6 82.6 0 0 0-4-6.5c.3-8.8.3-17.6 0-26.5 0-1.9-.5-2.2-1.5-1-.2-2.3-.7-4.4-1.5-6.5 1.1-1 .8-1.7-1-2 .5-1.3.5-2.8 0-4.5Z" style="opacity:.729"/>
  <path fill="#e3feeb" d="M263.5 124.5h5c5 .8 10 1.4 15 2a138.7 138.7 0 0 1 88 66c4 8.6 7.7 17.2 11 26 1.8 9.1 3.5 18.1 5 27v17a272.3 272.3 0 0 1-6 32c-3.5 9.6-7.5 19-12 28a279 279 0 0 1-17 23c-8 7.4-16.4 14.4-25 21-12.7 7.3-26 13-40 17l-12 2v-31c21.4-4.7 39.4-15 54-31 8-8 14-17.3 18-28 4.4-9 7-18.8 8-29a50.5 50.5 0 0 0 0-20 71.4 71.4 0 0 0-7-29 86.5 86.5 0 0 0-16-26 92 92 0 0 0-62-35c-1-1-2.4-1.3-4-1-3.1-1-6.5-1.3-10-1v-30h7Z" style="opacity:.729"/>
  <path fill="#3ed182" d="M412.5 76.5c7 7 14.3 13.7 22 20l6.5 7c.5 1 .6 2 .5 3a484.1 484.1 0 0 1 23.5 38l3.5 11a7 7 0 0 1-2.5-2l-8-16a19.2 19.2 0 0 1-3.5-4 73 73 0 0 0-15-25c-2.6-3.5-5.1-7.1-7.5-11-7-6.6-13.6-13.6-19.5-21Z" style="opacity:.729"/>
  <path fill="#0a793e" d="m99.5 70.5-11 12a237 237 0 0 0-62.5 108c-1.7 8.4-3.7 16.8-6 25-2.3 31-.1 61.7 6.5 92-1.1-1.8-2-3.8-2.5-6a319 319 0 0 1-6.5-81c2.4-13.8 5.2-27.4 8.5-41l5-10a46 46 0 0 1 2-10c6.6-14 13.8-27.6 21.5-41 6.7-8.2 13.2-16.5 19.5-25 2.8-3 5.6-5.6 8.5-8a179 179 0 0 1 17-15Z" style="opacity:.729"/>
  <path fill="#084d28" d="M107.5 46.5c1 .8 1.2 1.8.5 3a145.2 145.2 0 0 1-33 37l-22 28a8.4 8.4 0 0 0-.5 4 31.6 31.6 0 0 0-10 17 124 124 0 0 0-4 4 225.8 225.8 0 0 0-23 145l3.5 26c3.5 8 6.4 16.4 8.5 25a45.5 45.5 0 0 1-6.5-12 261.8 261.8 0 0 1-7-116c2.9-13.8 6.2-27.5 10-41 4.6-9.9 8.8-19.9 12.5-30 2.6-3.3 4.8-7 6.5-11a14 14 0 0 1 4-3c1.3-5.2 3.6-9.9 7-14 9-9 17.4-18.7 25-29a74.8 74.8 0 0 0 19.5-24c-.5-.8-1.1-1.1-2-1 3.1-3.4 6.8-6.1 11-8Z" style="opacity:.729"/>
  <path fill="#78d4a0" d="M255.5 123.5c2.9-.3 5.6 0 8 1h-7v30h-1v-31Z" style="opacity:.729"/>
  <path fill="#4dce8a" d="M441.5 106.5c5.1 4.3 9 9.6 11.5 16l11 13c5.3 11 10.4 22 15.5 33 .8 3.6 2 7 4 10 1 5 1.6 10 2 15 1.5 6.3 2.5 12.6 3 19-3-9-5.5-18.4-7.5-28-1.6-6-4-11.6-7-17a12 12 0 0 0-5.5-12l-3.5-11a484.1 484.1 0 0 0-23.5-38Z" style="opacity:.729"/>
  <path fill="#11c062" d="M372.5 121.5a102 102 0 0 1 15.5 14c6.1 7 11.6 14.3 16.5 22-1.4 1.2-2.5.9-3.5-1-1.3 2.7-2.7 2.7-4 0-1.3 2.7-2.7 2.7-4 0-1.3 2.7-2.7 2.7-4 0-1.3 2.7-2.7 2.7-4 0-1.3 2.7-2.7 2.7-4 0-1.3 2.7-2.7 2.7-4 0-1.3 2.7-2.7 2.7-4 0-1.3 2.7-2.7 2.7-4 0-1.3 2.7-2.7 2.7-4 0-1.3 2.7-2.7 2.7-4 0-1.3 2.7-2.7 2.7-4 0-1.3 2.7-2.7 2.7-4 0-1.3 2.7-2.7 2.7-4 0a5.3 5.3 0 0 0-2.5 4c-18-16.8-39-28.2-63-34 3.6 0 7.1.8 10.5 2 1.8-2.5 3.3-2.1 4.5 1l2-2c1.4 1.2 2.6.8 3.5-1 .9 1 1.9 1 3 0l5 4c20.2-1 40.5-1 61 0a7 7 0 0 1 2.5-3.5l-3.5-3.5c-.7-1-.5-1.6.5-2Z" style="opacity:.729"/>
  <path fill="#81ddad" d="m454.5 114.5 4 2a69 69 0 0 0 11.5 19c1.3 4.6 3.5 8.6 6.5 12 4 11.6 8.2 23.3 12.5 35 1.1 3.6 2 7.3 2.5 11-3.5-11-7.9-21.6-13-32-8.3-15.5-16.3-31.2-24-47Z" style="opacity:.729"/>
  <path fill="#0cc262" d="M65.5 127.5c0 1 .2 1.8 1 2.5-1.9 2.3-3.2 5-4 8 3.5.3 3.8 1.6 1 4 2.2 0 4.4.9 6.5 2.5l2-2c2.2-.6 4.2 0 6 2l2-2c.8 1 1.8 1 3 0 1.8 2.3 3.5 2.3 5 0 .8 1 1.8 1 3 0 1.8 2.3 3.5 2.3 5 0 .8 1 1.8 1 3 0 1.8 2.3 3.5 2.3 5 0 .8 1 1.8 1 3 0 1.8 2.3 3.5 2.3 5 0 .8 1 1.8 1 3 0 1.8 2.3 3.5 2.3 5 0 .8 1 1.8 1 3 0 1.8 2.3 3.5 2.3 5 0 .8 1 1.8 1 3 0 1.8 2.3 3.5 2.3 5 0 .8 1 1.8 1 3 0 1.8 2.3 3.5 2.3 5 0 .8 1 1.8 1 3 0 1.8 2.3 3.5 2.3 5 0 .8 1 1.8 1 3 0 1.8 2.3 3.5 2.3 5 0 .8 1 1.8 1 3 0 1.8 2.3 3.5 2.3 5 0 .8 1 1.8 1 3 0 1.8 2.3 3.5 2.3 5 0 .8 1 1.8 1 3 0 1.8 2.3 3.5 2.3 5 0 .8 1 1.8 1 3 0 1.8 2.3 3.5 2.3 5 0 .8 1 1.8 1 3 0 1.8 2.3 3.5 2.3 5 0 .8 1 1.8 1 3 0 1.8 2.3 3.5 2.3 5 0 .8 1 1.8 1 3 0 1.8 2.3 3.5 2.3 5 0 .8 1 1.8 1 3 0 1.8 2.3 3.5 2.3 5 0 .8 1 1.8 1 3 0 1.8 2.3 3.5 2.3 5 0 .8 1 1.8 1 3 0 1.8 2.3 3.5 2.3 5 0 .8 1 1.8 1 3 0 1.3.3 2.3 1 3 2 3.6-3.3 6.8-2.6 9.5 2v12c-66.2-1.1-132.4-1.1-198.5 0-.2-2-1-3.8-2.5-5.5 2-.9 2-2.2 0-4a11 11 0 0 0 3.5-10.5c2.4-3.8 4.9-7.5 7.5-11Z" style="opacity:.729"/>
  <path fill="#0dbe60" d="M203.5 4.5c0 1.9.4 3.7 1 5.5-2 2-3.6 4.2-4.5 6.5l-1-1a5 5 0 0 0-.5 3 794.8 794.8 0 0 0-67 40.5c-12.6 11.3-25 22.8-37 34.5-4 4.6-8.3 9-13 13-4 4.8-7.6 9.8-11 15l-5 6c-2.6 3.5-5.1 7.2-7.5 11 .8 4-.4 7.5-3.5 10.5 2 1.8 2 3.1 0 4a9.6 9.6 0 0 1 2.5 5.5c66.1-1.1 132.3-1.1 198.5 0v16a25.1 25.1 0 0 1-4.5-4l-4 4-4-4-4 4-4-4-4 4-4-4-4 4-4-4-4 4-4-4-4 4-4-4-4 4-4-4-4 4-4-4-4 4-4-4-4 4-4-4-4 4-4-4-4 4-4-4-4 4-4-4-4 4-4-4-4 4-4-4-4 4-4-4-4 4-4-4-4 4-4-4-4 4-4-4-4 4-4-4-4 4-4-4-4 4-4-4-4 4-4-4-4 4-4-4-4 4-4-4-4 4-1.5-1.5v-4c1.1-3.8 2.1-7.6 3-11.5.8-4.2 2.6-7.9 5.5-11l1-7c17-30.4 39.3-56.6 66.5-78.5 17.7-12.5 35.7-24.5 54-36 2.7-2.7 5.5-5.2 8.5-7.5.9-2.5 2-4.8 3.5-7a31 31 0 0 1-2-2c6-1.6 12-3 18-4Z" style="opacity:.729"/>
  <path fill="#20c36c" d="M444.5 120.5c1.6 1.1 3.1 2.5 4.5 4 1.2 3.5 3 6.5 5.5 9 1 1.4 2.1 2.8 3.5 4l8 16a7 7 0 0 0 2.5 2 25 25 0 0 0 .5 7c2.7 7.1 4.9 14.5 6.5 22-2-1-3-2.7-3-5a176.7 176.7 0 0 0-13-31 234 234 0 0 1-15-28Z" style="opacity:.729"/>
  <path fill="#23b365" d="M255.5 154.5h1c3.5-.3 6.9 0 10 1-1-.1-2 0-3 .5l1 5c-2.7 2-2.7 4 0 6l-2 4 2 22a55 55 0 0 1-1 7.5 44 44 0 0 1 3 2h-1c-3-.7-6-1-9-1h-1v-47Z" style="opacity:.729"/>
  <path fill="#0fb85e" d="M270.5 156.5a92 92 0 0 1 62 35c-2 1.4-3.8 1-5.5-1-1.3 2.7-2.7 2.7-4 0-1.3 2.7-2.7 2.7-4 0-1.3 2.7-2.7 2.7-4 0-1.3 2.7-2.7 2.7-4 0-1.3 2.7-2.7 2.7-4 0-1.3 2.7-2.7 2.7-4 0-1.3 2.7-2.7 2.7-4 0-1.3 2.7-2.7 2.7-4 0-1.3 2.7-2.7 2.7-4 0a8.8 8.8 0 0 1-8.5 1.5l1-1c-.7-1-1.2-2.2-1.5-3.5-1 1-2.2 1.2-3.5.5a48.2 48.2 0 0 0-4.5-6.5l-3 1c0-5.4.1-10.2.5-14.5a16 16 0 0 1-1-11.5Z" style="opacity:.729"/>
  <path fill="#0fb95d" d="M404.5 157.5c7.3 10.5 13 21.8 17 34-2.3 1.4-4.5 1.1-6.5-1-1.3 2.7-2.7 2.7-4 0-1.3 2.7-2.7 2.7-4 0-1.3 2.7-2.7 2.7-4 0-1.3 2.7-2.7 2.7-4 0-1.3 2.7-2.7 2.7-4 0-1.3 2.7-2.7 2.7-4 0-1.3 2.7-2.7 2.7-4 0-1.3 2.7-2.7 2.7-4 0-1.3 2.7-2.7 2.7-4 0l-1.5 1.5-6 .5a144.7 144.7 0 0 0-25-32c.2-1.7 1-3 2.5-4 1.3 2.7 2.7 2.7 4 0 1.3 2.7 2.7 2.7 4 0 1.3 2.7 2.7 2.7 4 0 1.3 2.7 2.7 2.7 4 0 1.3 2.7 2.7 2.7 4 0 1.3 2.7 2.7 2.7 4 0 1.3 2.7 2.7 2.7 4 0 1.3 2.7 2.7 2.7 4 0 1.3 2.7 2.7 2.7 4 0 1.3 2.7 2.7 2.7 4 0 1.3 2.7 2.7 2.7 4 0 1.3 2.7 2.7 2.7 4 0 1.3 2.7 2.7 2.7 4 0 1 1.9 2.1 2.2 3.5 1Z" style="opacity:.729"/>
  <path fill="#10ba5f" d="M459.5 148.5c5.3 9.9 9.6 20.2 13 31-.5 3.6.1 7.3 2 11l-1.5 3c-.8-2.1-1.8-4.1-3-6 0 1.6.2 3.3.5 5a9 9 0 0 1-7.5-2c-1.3 2.7-2.7 2.7-4 0-1 1.9-2.1 2.2-3.5 1a287 287 0 0 0-24-50c1-.1 2 0 3 .5-1.2 1-1 1.7.5 2.5 1.6.6 2.9-.1 4-2l2 2h4c1.7-1.8 3-3.8 4-6 3.7 3.2 7.2 6.6 10.5 10Z" style="opacity:.729"/>
  <path fill="#0bb75c" d="M43.5 168.5c.5 1.2.9 2.4 1 3.5a9.6 9.6 0 0 0-3 5c1.3 1.3 1.3 2.7 0 4 .6 2 1.8 3.8 3.5 5.5 70.1-1.1 140.3-1.1 210.5 0v14c-72.2-.2-144.4-.2-216.5 0l-2.5-2.5v-6.5c1-1.8 1-3.5 0-5a7 7 0 0 1 1-4 183 183 0 0 0 6-14Z" style="opacity:.729"/>
  <path fill="#0cba5e" d="M48.5 157.5c-.9 3.9-1.9 7.7-3 11.5v4l1.5 1.5 4-4 4 4 4-4 4 4 4-4 4 4 4-4 4 4 4-4 4 4 4-4 4 4 4-4 4 4 4-4 4 4 4-4 4 4 4-4 4 4 4-4 4 4 4-4 4 4 4-4 4 4 4-4 4 4 4-4 4 4 4-4 4 4 4-4 4 4 4-4 4 4 4-4 4 4 4-4 4 4 4-4 4 4 4-4 4 4 4-4 4 4 4-4 4 4 4-4 4 4 4-4c1.4 1.5 2.9 2.9 4.5 4v12c-70.2-1.1-140.4-1.1-210.5 0-1.7-1.7-3-3.5-3.5-5.5 1.3-1.3 1.3-2.7 0-4 .5-2 1.5-3.7 3-5-.1-1.1-.5-2.3-1-3.5.9-4 2.5-7.8 5-11Z" style="opacity:.729"/>
  <path fill="#11b35c" d="M472.5 179.5c0 2.3 1 4 3 5 2.2 5.5 4.2 11.2 6 17-.1 1.8.2 3.4 1 5l-2 1c1.6 5.6 3 11.3 4 17-.2 6.6-.7 6.6-1.5 0l-1 1a6.5 6.5 0 0 0-3-3l-1-5c-1.8 1-3.4.6-5-1l-2 2h-4l-2-2a4.9 4.9 0 0 0-2.5 5c-2.6-9.8-4.9-19.8-7-30 1.4 1.2 2.5.9 3.5-1 1.3 2.7 2.7 2.7 4 0a9 9 0 0 0 7.5 2c-.3-1.7-.5-3.4-.5-5 1.2 1.9 2.2 3.9 3 6l1.5-3a18.3 18.3 0 0 1-2-11Z" style="opacity:.729"/>
  <path fill="#70d29e" d="M478.5 161.5c5.1 10.4 9.5 21 13 32 0 .7.3 1 1 1-.2 3 0 6 .5 9a253 253 0 0 1 7.5 52 505 505 0 0 1-4-19c-1.8-20-6.1-39.4-13-58-2-3-3.2-6.4-4-10-.2-2.4-.5-4.7-1-7Z" style="opacity:.729"/>
  <path fill="#096735" d="M52.5 118.5h2c-7.7 13.4-14.9 27-21.5 41a46 46 0 0 0-2 10l-5 10a603.3 603.3 0 0 0-8.5 41 245.1 245.1 0 0 0 8 100c-1-2.3-2.2-4.6-3.5-7-2-9-3.7-18-5-27-.3-1-.8-1.6-1.5-2-1.7-25-1.2-50 1.5-75a286.8 286.8 0 0 1 25.5-74 31.6 31.6 0 0 1 10-17Z" style="opacity:.729"/>
  <path fill="#2cbf71" d="M468.5 155.5a12 12 0 0 1 5.5 12c3 5.4 5.4 11 7 17 2 9.6 4.5 19 7.5 28l-1 2a65.7 65.7 0 0 0-6-13c-1.8-5.8-3.8-11.5-6-17-1.6-7.5-3.8-14.9-6.5-22a25 25 0 0 1-.5-7Z" style="opacity:.729"/>
  <path fill="#0cb45b" d="M36.5 191.5v6.5l2.5 2.5c72.1-.2 144.3-.2 216.5 0v7c-72.9-1.1-145.7-1.1-218.5 0-1.3-.7-2.4-1.5-3.5-2.5.2-4.2 1.2-8.7 3-13.5Z" style="opacity:.729"/>
  <path fill="#072e19" d="M146.5 476.5c-4.3-.7-8.3-2.2-12-4.5-78.4-46.8-122.8-114.5-133-203a4.3 4.3 0 0 0-2-1.5v-37c1.5-11 3.5-22 6-33 1.1-1.3 1.8-1.2 2 .5-14.7 90.2 10.3 168.2 75 234a307.9 307.9 0 0 0 64 44.5Z" style="opacity:.711"/>
  <path fill="#d8f4e0" d="M256.5 201.5c3 0 6 .3 9 1v106c-3 .7-6 1-9 1v-108Z" style="opacity:.729"/>
  <path fill="#ddfce7" d="M265.5 202.5h1a24 24 0 0 1 9 3v100a45.8 45.8 0 0 1-7 3h-3v-106Z" style="opacity:.729"/>
  <path fill="#0fb15b" d="M266.5 155.5c1.6-.3 3 0 4 1a16 16 0 0 0 1 11.5c-.4 4.3-.6 9.1-.5 14.5l3-1c1.7 2 3.2 4.2 4.5 6.5 1.3.7 2.5.5 3.5-.5.3 1.3.8 2.4 1.5 3.5l-1 1c3.2 1 6 .5 8.5-1.5 1.3 2.7 2.7 2.7 4 0 1.3 2.7 2.7 2.7 4 0 1.3 2.7 2.7 2.7 4 0 1.3 2.7 2.7 2.7 4 0 1.3 2.7 2.7 2.7 4 0 1.3 2.7 2.7 2.7 4 0 1.3 2.7 2.7 2.7 4 0 1.3 2.7 2.7 2.7 4 0 1.3 2.7 2.7 2.7 4 0 1.7 2 3.5 2.4 5.5 1a86.5 86.5 0 0 1 16 26c-1.4 1.2-2.5.9-3.5-1l-2 2h-4c-1.3-2.7-2.7-2.7-4 0h-4c-1.3-2.7-2.7-2.7-4 0h-4c-1.3-2.7-2.7-2.7-4 0h-4c-1.3-2.7-2.7-2.7-4 0h-4c-1.3-2.7-2.7-2.7-4 0h-4a15 15 0 0 0-3.5-3c-.8.5-1.1 1.1-1 2a56.6 56.6 0 0 0-19-12 24 24 0 0 0-9-3 44 44 0 0 0-3-2c.5-2.6.9-5 1-7.5l-2-22 2-4c-2.7-2-2.7-4 0-6l-1-5c1-.5 2-.6 3-.5Z" style="opacity:.729"/>
  <path fill="#10b15b" d="M421.5 191.5c4.2 9.5 7.2 19.5 9 30l-2.5-4c-1.1 1-2.1.6-3-1l-2 2h-4c-1.3-2.7-2.7-2.7-4 0h-4c-1.3-2.7-2.7-2.7-4 0h-4c-1.3-2.7-2.7-2.7-4 0h-4c-1.3-2.7-2.7-2.7-4 0h-4c-1.4-2.4-3-2.4-4.5 0-3.3-8.8-7-17.4-11-26l6-.5 1.5-1.5c1.3 2.7 2.7 2.7 4 0 1.3 2.7 2.7 2.7 4 0 1.3 2.7 2.7 2.7 4 0 1.3 2.7 2.7 2.7 4 0 1.3 2.7 2.7 2.7 4 0 1.3 2.7 2.7 2.7 4 0 1.3 2.7 2.7 2.7 4 0 1.3 2.7 2.7 2.7 4 0 1.3 2.7 2.7 2.7 4 0 2 2.1 4.2 2.4 6.5 1Z" style="opacity:.729"/>
  <path fill="#e3feeb" d="M275.5 205.5a56.6 56.6 0 0 1 19 12 71.4 71.4 0 0 1 15 28v17a61 61 0 0 1-16 32 62.3 62.3 0 0 1-18 11v-100Z" style="opacity:.729"/>
  <path fill="#a0e0be" d="M474.5 136.5a146.3 146.3 0 0 1 16 36 3 3 0 0 1 3 1 74.8 74.8 0 0 0 9.5 21c.5-.6.6-1.3.5-2 3.8 14.5 6.5 29.1 8 44v15c-1 0-1.8-.2-2.5-1-4.7-20.8-9.7-41.8-15-63a246.6 246.6 0 0 1-14-36c-1-1.5-2.2-2.9-3.5-4-.5-3.7-1.2-7.4-2-11Z" style="opacity:.683"/>
  <path fill="#0baa56" d="M32.5 199.5c-.5 3-.5 5.8 0 8.5-1.3 3-2.3 6-3 9 1.3 4 1.3 8 0 12 .7 1 1.2 2.2 1.5 3.5 1.1-1 2.1-.6 3 1 1.3-2.7 2.7-2.7 4 0 1.3-2.7 2.7-2.7 4 0 1.3-2.7 2.7-2.7 4 0 1.3-2.7 2.7-2.7 4 0 1.3-2.7 2.7-2.7 4 0 1.3-2.7 2.7-2.7 4 0 1.3-2.7 2.7-2.7 4 0 1.3-2.7 2.7-2.7 4 0 1.3-2.7 2.7-2.7 4 0 1.3-2.7 2.7-2.7 4 0 1.3-2.7 2.7-2.7 4 0 1.3-2.7 2.7-2.7 4 0 1.3-2.7 2.7-2.7 4 0 1.3-2.7 2.7-2.7 4 0 1.3-2.7 2.7-2.7 4 0 1.3-2.7 2.7-2.7 4 0 1.3-2.7 2.7-2.7 4 0 1.3-2.7 2.7-2.7 4 0 1.3-2.7 2.7-2.7 4 0 1.3-2.7 2.7-2.7 4 0 1.3-2.7 2.7-2.7 4 0 1.3-2.7 2.7-2.7 4 0 1.3-2.7 2.7-2.7 4 0 1.3-2.7 2.7-2.7 4 0 1.3-2.7 2.7-2.7 4 0 1.3-2.7 2.7-2.7 4 0 1.3-2.7 2.7-2.7 4 0 1.3-2.7 2.7-2.7 4 0 1.3-2.7 2.7-2.7 4 0 1.3-2.7 2.7-2.7 4 0 1.3-2.7 2.7-2.7 4 0 1.3-2.7 2.7-2.7 4 0 1.3-2.7 2.7-2.7 4 0 1.3-2.7 2.7-2.7 4 0 1.3-2.7 2.7-2.7 4 0 1.3-2.7 2.7-2.7 4 0 1.3-2.7 2.7-2.7 4 0 1.3-2.7 2.7-2.7 4 0 1.3-2.7 2.7-2.7 4 0 1.3-2.7 2.7-2.7 4 0 1.3-2.7 2.7-2.7 4 0 1.3-2.7 2.7-2.7 4 0 1.3-2.7 2.7-2.7 4 0 1.3-2.7 2.7-2.7 4 0 1.3-2.7 2.7-2.7 4 0 1.3-2.7 2.7-2.7 4 0 1.3-2.7 2.7-2.7 4 0 1.3-2.7 2.7-2.7 4 0 1.3-2.7 2.7-2.7 4 0 1.3-2.7 2.7-2.7 4 0 1.3-2.7 2.7-2.7 4 0 1.3-2.7 2.7-2.7 4 0 1.3-2.7 2.7-2.7 4 0 1.3-2.7 2.7-2.7 4 0l2-2c1 1.2 2.2 2.2 3.5 3v16c-1.3-.8-2.5-1.8-3.5-3-1.3 2.7-2.7 2.7-4 0-1.3 2.7-2.7 2.7-4 0-1.3 2.7-2.7 2.7-4 0-1.3 2.7-2.7 2.7-4 0-1.3 2.7-2.7 2.7-4 0-1.3 2.7-2.7 2.7-4 0-1.3 2.7-2.7 2.7-4 0-1.3 2.7-2.7 2.7-4 0-1.3 2.7-2.7 2.7-4 0-1.3 2.7-2.7 2.7-4 0-1.3 2.7-2.7 2.7-4 0-1.3 2.7-2.7 2.7-4 0-1.3 2.7-2.7 2.7-4 0-1.3 2.7-2.7 2.7-4 0-1.3 2.7-2.7 2.7-4 0-1.3 2.7-2.7 2.7-4 0-1.3 2.7-2.7 2.7-4 0-1.3 2.7-2.7 2.7-4 0-1.3 2.7-2.7 2.7-4 0-1.3 2.7-2.7 2.7-4 0-1.3 2.7-2.7 2.7-4 0-1.3 2.7-2.7 2.7-4 0-1.3 2.7-2.7 2.7-4 0-1.3 2.7-2.7 2.7-4 0-1.3 2.7-2.7 2.7-4 0-1.3 2.7-2.7 2.7-4 0-1.3 2.7-2.7 2.7-4 0-1.3 2.7-2.7 2.7-4 0-1.3 2.7-2.7 2.7-4 0-1.3 2.7-2.7 2.7-4 0-1.3 2.7-2.7 2.7-4 0-1.3 2.7-2.7 2.7-4 0-1.3 2.7-2.7 2.7-4 0-1.3 2.7-2.7 2.7-4 0-1.3 2.7-2.7 2.7-4 0-1.3 2.7-2.7 2.7-4 0-1.3 2.7-2.7 2.7-4 0-1.3 2.7-2.7 2.7-4 0-1.3 2.7-2.7 2.7-4 0-1.3 2.7-2.7 2.7-4 0-1.3 2.7-2.7 2.7-4 0-1.3 2.7-2.7 2.7-4 0-1.3 2.7-2.7 2.7-4 0-1.3 2.7-2.7 2.7-4 0-1.3 2.7-2.7 2.7-4 0-1.3 2.7-2.7 2.7-4 0-1.3 2.7-2.7 2.7-4 0-1.3 2.7-2.7 2.7-4 0-1.3 2.7-2.7 2.7-4 0-1.3 2.7-2.7 2.7-4 0-1.3 2.7-2.7 2.7-4 0-1.3 2.7-2.7 2.7-4 0-1.3 2.7-2.7 2.7-4 0-1.3 2.7-2.7 2.7-4 0l-2 2c-2-.6-3.8-1.8-5.5-3.5l1-5c-.9-6.1-1.6-12.3-2-18.5.9-2.9 1.2-5.9 1-9 1.2-4.7 2.5-9.4 4-14Z" style="opacity:.729"/>
  <path fill="#0caf59" d="M36.5 186.5c1 1.5 1 3.2 0 5a45.6 45.6 0 0 0-3 13.5c1 1 2.2 1.8 3.5 2.5 72.8-1.1 145.6-1.1 218.5 0v27c-1.3-.8-2.5-1.8-3.5-3l-2 2c-1.3-2.7-2.7-2.7-4 0-1.3-2.7-2.7-2.7-4 0-1.3-2.7-2.7-2.7-4 0-1.3-2.7-2.7-2.7-4 0-1.3-2.7-2.7-2.7-4 0-1.3-2.7-2.7-2.7-4 0-1.3-2.7-2.7-2.7-4 0-1.3-2.7-2.7-2.7-4 0-1.3-2.7-2.7-2.7-4 0-1.3-2.7-2.7-2.7-4 0-1.3-2.7-2.7-2.7-4 0-1.3-2.7-2.7-2.7-4 0-1.3-2.7-2.7-2.7-4 0-1.3-2.7-2.7-2.7-4 0-1.3-2.7-2.7-2.7-4 0-1.3-2.7-2.7-2.7-4 0-1.3-2.7-2.7-2.7-4 0-1.3-2.7-2.7-2.7-4 0-1.3-2.7-2.7-2.7-4 0-1.3-2.7-2.7-2.7-4 0-1.3-2.7-2.7-2.7-4 0-1.3-2.7-2.7-2.7-4 0-1.3-2.7-2.7-2.7-4 0-1.3-2.7-2.7-2.7-4 0-1.3-2.7-2.7-2.7-4 0-1.3-2.7-2.7-2.7-4 0-1.3-2.7-2.7-2.7-4 0-1.3-2.7-2.7-2.7-4 0-1.3-2.7-2.7-2.7-4 0-1.3-2.7-2.7-2.7-4 0-1.3-2.7-2.7-2.7-4 0-1.3-2.7-2.7-2.7-4 0-1.3-2.7-2.7-2.7-4 0-1.3-2.7-2.7-2.7-4 0-1.3-2.7-2.7-2.7-4 0-1.3-2.7-2.7-2.7-4 0-1.3-2.7-2.7-2.7-4 0-1.3-2.7-2.7-2.7-4 0-1.3-2.7-2.7-2.7-4 0-1.3-2.7-2.7-2.7-4 0-1.3-2.7-2.7-2.7-4 0-1.3-2.7-2.7-2.7-4 0-1.3-2.7-2.7-2.7-4 0-1.3-2.7-2.7-2.7-4 0-1.3-2.7-2.7-2.7-4 0-1.3-2.7-2.7-2.7-4 0-1.3-2.7-2.7-2.7-4 0-1.3-2.7-2.7-2.7-4 0-1.3-2.7-2.7-2.7-4 0-1.3-2.7-2.7-2.7-4 0-1.3-2.7-2.7-2.7-4 0-1.3-2.7-2.7-2.7-4 0-1.3-2.7-2.7-2.7-4 0-1.3-2.7-2.7-2.7-4 0-.9-1.6-1.9-2-3-1-.3-1.3-.8-2.4-1.5-3.5 1.3-4 1.3-8 0-12 .7-3 1.7-6 3-9-.5-2.7-.5-5.6 0-8.5 0-4.9 1.3-9.2 4-13Z" style="opacity:.729"/>
  <path fill="#085a2e" d="M42.5 135.5a286.8 286.8 0 0 0-25.5 74c-2.7 25-3.2 50-1.5 75-8.5-51-.8-99.2 23-145a124 124 0 0 1 4-4Z" style="opacity:.729"/>
  <path fill="#0ba554" d="M27.5 222.5c.4 6.2 1.1 12.4 2 18.5l-1 5c1.7 1.7 3.5 3 5.5 3.5l2-2c1.3 2.7 2.7 2.7 4 0 1.3 2.7 2.7 2.7 4 0 1.3 2.7 2.7 2.7 4 0 1.3 2.7 2.7 2.7 4 0 1.3 2.7 2.7 2.7 4 0 1.3 2.7 2.7 2.7 4 0 1.3 2.7 2.7 2.7 4 0 1.3 2.7 2.7 2.7 4 0 1.3 2.7 2.7 2.7 4 0 1.3 2.7 2.7 2.7 4 0 1.3 2.7 2.7 2.7 4 0 1.3 2.7 2.7 2.7 4 0 1.3 2.7 2.7 2.7 4 0 1.3 2.7 2.7 2.7 4 0 1.3 2.7 2.7 2.7 4 0 1.3 2.7 2.7 2.7 4 0 1.3 2.7 2.7 2.7 4 0 1.3 2.7 2.7 2.7 4 0 1.3 2.7 2.7 2.7 4 0 1.3 2.7 2.7 2.7 4 0 1.3 2.7 2.7 2.7 4 0 1.3 2.7 2.7 2.7 4 0 1.3 2.7 2.7 2.7 4 0 1.3 2.7 2.7 2.7 4 0 1.3 2.7 2.7 2.7 4 0 1.3 2.7 2.7 2.7 4 0 1.3 2.7 2.7 2.7 4 0 1.3 2.7 2.7 2.7 4 0 1.3 2.7 2.7 2.7 4 0 1.3 2.7 2.7 2.7 4 0 1.3 2.7 2.7 2.7 4 0 1.3 2.7 2.7 2.7 4 0 1.3 2.7 2.7 2.7 4 0 1.3 2.7 2.7 2.7 4 0 1.3 2.7 2.7 2.7 4 0 1.3 2.7 2.7 2.7 4 0 1.3 2.7 2.7 2.7 4 0 1.3 2.7 2.7 2.7 4 0 1.3 2.7 2.7 2.7 4 0 1.3 2.7 2.7 2.7 4 0 1.3 2.7 2.7 2.7 4 0 1.3 2.7 2.7 2.7 4 0 1.3 2.7 2.7 2.7 4 0 1.3 2.7 2.7 2.7 4 0 1.3 2.7 2.7 2.7 4 0 1.3 2.7 2.7 2.7 4 0 1.3 2.7 2.7 2.7 4 0 1.3 2.7 2.7 2.7 4 0 1.3 2.7 2.7 2.7 4 0 1.3 2.7 2.7 2.7 4 0 1.3 2.7 2.7 2.7 4 0 1.3 2.7 2.7 2.7 4 0 1.3 2.7 2.7 2.7 4 0 1.3 2.7 2.7 2.7 4 0 1 1.2 2.2 2.2 3.5 3v18c-.7.4-1.2 1-1.5 2-1.7-2.7-3.3-2.7-5 0-1-.4-1.5-1-1.5-2-.7.5-1.2 1.2-1.5 2-1.7-2.7-3.3-2.7-5 0-1-.4-1.5-1-1.5-2-.7.5-1.2 1.2-1.5 2-1.7-2.7-3.3-2.7-5 0-1-.4-1.5-1-1.5-2-.7.5-1.2 1.2-1.5 2-1.7-2.7-3.3-2.7-5 0-1-.4-1.5-1-1.5-2-.7.5-1.2 1.2-1.5 2-1.7-2.7-3.3-2.7-5 0-1-.4-1.5-1-1.5-2-.7.5-1.2 1.2-1.5 2-1.7-2.7-3.3-2.7-5 0-1-.4-1.5-1-1.5-2-.7.5-1.2 1.2-1.5 2-1.7-2.7-3.3-2.7-5 0-1-.4-1.5-1-1.5-2-.7.5-1.2 1.2-1.5 2-1.7-2.7-3.3-2.7-5 0-1-.4-1.5-1-1.5-2-.7.5-1.2 1.2-1.5 2-1.7-2.7-3.3-2.7-5 0-1-.4-1.5-1-1.5-2-.7.5-1.2 1.2-1.5 2-1.7-2.7-3.3-2.7-5 0-1-.4-1.5-1-1.5-2-.7.5-1.2 1.2-1.5 2-1.7-2.7-3.3-2.7-5 0-1-.4-1.5-1-1.5-2-.7.5-1.2 1.2-1.5 2-1.7-2.7-3.3-2.7-5 0-1-.4-1.5-1-1.5-2-.7.5-1.2 1.2-1.5 2-1.7-2.7-3.3-2.7-5 0-1-.4-1.5-1-1.5-2-.7.5-1.2 1.2-1.5 2-1.7-2.7-3.3-2.7-5 0-1-.4-1.5-1-1.5-2-.7.5-1.2 1.2-1.5 2-1.7-2.7-3.3-2.7-5 0-1-.4-1.5-1-1.5-2-.7.5-1.2 1.2-1.5 2-1.7-2.7-3.3-2.7-5 0-1-.4-1.5-1-1.5-2-.7.5-1.2 1.2-1.5 2-1.7-2.7-3.3-2.7-5 0-1-.4-1.5-1-1.5-2-.7.5-1.2 1.2-1.5 2-1.7-2.7-3.3-2.7-5 0-1-.4-1.5-1-1.5-2-.7.5-1.2 1.2-1.5 2-1.7-2.7-3.3-2.7-5 0-1-.4-1.5-1-1.5-2-.7.5-1.2 1.2-1.5 2-1.7-2.7-3.3-2.7-5 0-1-.4-1.5-1-1.5-2-.7.5-1.2 1.2-1.5 2-1.7-2.7-3.3-2.7-5 0-1-.4-1.5-1-1.5-2-.7.5-1.2 1.2-1.5 2-1.7-2.7-3.3-2.7-5 0-1-.4-1.5-1-1.5-2-.7.5-1.2 1.2-1.5 2-1.7-2.7-3.3-2.7-5 0-1-.4-1.5-1-1.5-2-.7.5-1.2 1.2-1.5 2-1.7-2.7-3.3-2.7-5 0-1-.4-1.5-1-1.5-2-.7.5-1.2 1.2-1.5 2-1.7-2.7-3.3-2.7-5 0-1-.4-1.5-1-1.5-2-.7.5-1.2 1.2-1.5 2-1.7-2.7-3.3-2.7-5 0-1-.4-1.5-1-1.5-2-.7.5-1.2 1.2-1.5 2-1.7-2.7-3.3-2.7-5 0-1-.4-1.5-1-1.5-2-.7.5-1.2 1.2-1.5 2-1.7-2.7-3.3-2.7-5 0a84.6 84.6 0 0 1-4.5-6c-.8-8.1-1.8-16-3-23.5.5-6.1 1.1-12.3 2-18.5Z" style="opacity:.729"/>
  <path fill="#0fab57" d="M348.5 217.5a71.4 71.4 0 0 1 7 29c-1.3-.8-2.5-1.8-3.5-3-1.3 2.7-2.7 2.7-4 0-1.3 2.7-2.7 2.7-4 0-1.3 2.7-2.7 2.7-4 0-1.3 2.7-2.7 2.7-4 0-1.3 2.7-2.7 2.7-4 0-1.3 2.7-2.7 2.7-4 0-1.3 2.7-2.7 2.7-4 0-1.3 2.7-2.7 2.7-4 0-1.3 2.7-2.7 2.7-4 0-1.3 2.7-2.7 2.7-4 0a7 7 0 0 1-2.5 2 71.4 71.4 0 0 0-15-28c-.1-.9.2-1.5 1-2a15 15 0 0 1 3.5 3h4c1.3-2.7 2.7-2.7 4 0h4c1.3-2.7 2.7-2.7 4 0h4c1.3-2.7 2.7-2.7 4 0h4c1.3-2.7 2.7-2.7 4 0h4c1.3-2.7 2.7-2.7 4 0h4l2-2c1 1.9 2.1 2.2 3.5 1Z" style="opacity:.729"/>
  <path fill="#10ab57" d="M430.5 221.5c1.6 7.2 2.6 14.5 3 22a4 4 0 0 0-3.5 2c-1.3-2.7-2.7-2.7-4 0-1.3-2.7-2.7-2.7-4 0-1.3-2.7-2.7-2.7-4 0-1.3-2.7-2.7-2.7-4 0-1.3-2.7-2.7-2.7-4 0-1.3-2.7-2.7-2.7-4 0-1.3-2.7-2.7-2.7-4 0-1.3-2.7-2.7-2.7-4 0-1.3-2.7-2.7-2.7-4 0-1.3-2.7-2.7-2.7-4 0-1.4-2.3-2.2-2.3-2.5 0-1.5-8.9-3.2-17.9-5-27 1.6-2.4 3-2.4 4.5 0h4c1.3-2.7 2.7-2.7 4 0h4c1.3-2.7 2.7-2.7 4 0h4c1.3-2.7 2.7-2.7 4 0h4c1.3-2.7 2.7-2.7 4 0h4l2-2c.9 1.6 1.9 2 3 1 1 1.4 1.8 2.7 2.5 4Z" style="opacity:.729"/>
  <path fill="#27b468" d="M481.5 201.5c2.5 4.1 4.5 8.5 6 13-.6 4.6.4 8.7 3 12.5a8 8 0 0 0-1 3.5c1.3 7.9 2.3 15.7 3 23.5l-2 10.5c.2-1.3-.1-2.3-1-3-.2-5-.8-10.6-2-16.5 0-1.1.4-2.1 1-3a133 133 0 0 0-4-17.5c-1-5.7-2.4-11.4-4-17l2-1a9.1 9.1 0 0 1-1-5Z" style="opacity:.729"/>
  <path fill="#10a655" d="M355.5 246.5a50.5 50.5 0 0 1 0 20c-1.7.1-3.2.8-4.5 2-1-.4-1.6-1-2-2-.7 1.7-1.9 2.2-3.5 1.5 2.1-.6 2.3-1 .5-1.5-1.9 2.4-3.5 2.4-5 0-.7 1.7-1.9 2.2-3.5 1.5 2.1-.6 2.3-1 .5-1.5-1.9 2.4-3.5 2.4-5 0-.7 1.7-1.9 2.2-3.5 1.5 2.1-.6 2.3-1 .5-1.5-1.9 2.4-3.5 2.4-5 0-.7 1.7-1.9 2.2-3.5 1.5 2.1-.6 2.3-1 .5-1.5-1.9 2.4-3.5 2.4-5 0-.7 1.7-1.9 2.2-3.5 1.5 2.1-.6 2.3-1 .5-1.5a7.2 7.2 0 0 1-4.5 2v-23a7 7 0 0 0 2.5-2c1.3 2.7 2.7 2.7 4 0 1.3 2.7 2.7 2.7 4 0 1.3 2.7 2.7 2.7 4 0 1.3 2.7 2.7 2.7 4 0 1.3 2.7 2.7 2.7 4 0 1.3 2.7 2.7 2.7 4 0 1.3 2.7 2.7 2.7 4 0 1.3 2.7 2.7 2.7 4 0 1.3 2.7 2.7 2.7 4 0 1.3 2.7 2.7 2.7 4 0 1 1.2 2.2 2.2 3.5 3Z" style="opacity:.729"/>
  <path fill="#0ba554" d="M433.5 243.5v25c-2 .3-3.5-.4-4.5-2-.7 1.7-1.9 2.2-3.5 1.5 2.1-.6 2.3-1 .5-1.5-1.9 2.4-3.5 2.4-5 0-.7 1.7-1.9 2.2-3.5 1.5 2.1-.6 2.3-1 .5-1.5-1.9 2.4-3.5 2.4-5 0-.7 1.7-1.9 2.2-3.5 1.5 2.1-.6 2.3-1 .5-1.5-1.9 2.4-3.5 2.4-5 0-.7 1.7-1.9 2.2-3.5 1.5 2.1-.6 2.3-1 .5-1.5-1.9 2.4-3.5 2.4-5 0-.7 1.7-1.9 2.2-3.5 1.5 2.1-.6 2.3-1 .5-1.5-1.9 2.4-3.5 2.4-5 0l-1 2c-.5-2-.7-4-.5-6v-17c.3-2.3 1.1-2.3 2.5 0 1.3-2.7 2.7-2.7 4 0 1.3-2.7 2.7-2.7 4 0 1.3-2.7 2.7-2.7 4 0 1.3-2.7 2.7-2.7 4 0 1.3-2.7 2.7-2.7 4 0 1.3-2.7 2.7-2.7 4 0 1.3-2.7 2.7-2.7 4 0 1.3-2.7 2.7-2.7 4 0 1.3-2.7 2.7-2.7 4 0 1.3-2.7 2.7-2.7 4 0a4 4 0 0 1 3.5-2Z" style="opacity:.729"/>
  <path fill="#11a857" d="M484.5 224.5a133 133 0 0 1 4 17.5c-.6.9-1 1.9-1 3 1.2 6 1.8 11.4 2 16.5-1 3.9-1.6 7.5-2 11-1 4.1-1.8 8.4-2.5 13-.2-3.3-1-6.4-2.5-9.5.6-1.6.3-3.3-1-5l1-1c-.7-1.4-1.2-2.9-1.5-4.5a5 5 0 0 0-.5 3c-1.6.1-2.8-.5-3.5-2-.7 1.7-1.9 2.2-3.5 1.5 2.1-.6 2.3-1 .5-1.5-1.9 2.4-3.5 2.4-5 0a4.3 4.3 0 0 1-4.5 2c.3-15.7-.3-31.4-2-47-.2-2.2.6-3.8 2.5-5l2 2h4l2-2c1.6 1.6 3.2 2 5 1l1 5c1.3.7 2.3 1.7 3 3l1-1c.8 6.6 1.3 6.6 1.5 0Z" style="opacity:.729"/>
  <path fill="#0b9e50" d="M36.5 171.5a530.5 530.5 0 0 0-9 41.5c.2.4.6.6 1 .5.2 3.1-.1 6.1-1 9-.9 6.2-1.5 12.4-2 18.5 1.2 7.6 2.2 15.4 3 23.5l-1 2.5 3 5-1 3 4 2c-2.5 1.6-2.3 3 .5 4.5 1.3-2.7 2.7-2.7 4 0 1.3-2.7 2.7-2.7 4 0 1.3-2.7 2.7-2.7 4 0 1.3-2.7 2.7-2.7 4 0 1.3-2.7 2.7-2.7 4 0 1.3-2.7 2.7-2.7 4 0 1.3-2.7 2.7-2.7 4 0 1.3-2.7 2.7-2.7 4 0 1.3-2.7 2.7-2.7 4 0 1.3-2.7 2.7-2.7 4 0 1.3-2.7 2.7-2.7 4 0 1.3-2.7 2.7-2.7 4 0 1.3-2.7 2.7-2.7 4 0 1.3-2.7 2.7-2.7 4 0 1.3-2.7 2.7-2.7 4 0 1.3-2.7 2.7-2.7 4 0 1.3-2.7 2.7-2.7 4 0 1.3-2.7 2.7-2.7 4 0 1.3-2.7 2.7-2.7 4 0 1.3-2.7 2.7-2.7 4 0 1.3-2.7 2.7-2.7 4 0 1.3-2.7 2.7-2.7 4 0 1.3-2.7 2.7-2.7 4 0 1.3-2.7 2.7-2.7 4 0 1.3-2.7 2.7-2.7 4 0 1.3-2.7 2.7-2.7 4 0 1.3-2.7 2.7-2.7 4 0 1.3-2.7 2.7-2.7 4 0 1.3-2.7 2.7-2.7 4 0 1.3-2.7 2.7-2.7 4 0 1.3-2.7 2.7-2.7 4 0 1.3-2.7 2.7-2.7 4 0 1.3-2.7 2.7-2.7 4 0 1.3-2.7 2.7-2.7 4 0 1.3-2.7 2.7-2.7 4 0 1.3-2.7 2.7-2.7 4 0 1.3-2.7 2.7-2.7 4 0 1.3-2.7 2.7-2.7 4 0 1.3-2.7 2.7-2.7 4 0 1.3-2.7 2.7-2.7 4 0 1.3-2.7 2.7-2.7 4 0 1.3-2.7 2.7-2.7 4 0 1.3-2.7 2.7-2.7 4 0 1.3-2.7 2.7-2.7 4 0 1.3-2.7 2.7-2.7 4 0 1.3-2.7 2.7-2.7 4 0 1.3-2.7 2.7-2.7 4 0 1.3-2.7 2.7-2.7 4 0 1.3-2.7 2.7-2.7 4 0 1.3-2.7 2.7-2.7 4 0 1.3-2.7 2.7-2.7 4 0 1.3-2.7 2.7-2.7 4 0 1.3-2.7 2.7-2.7 4 0 1.3-2.7 2.7-2.7 4 0 1.3-2.7 2.7-2.7 4 0 .4-.6.9-.9 1.5-1v12c-1.4 1.2-2.5.9-3.5-1-1.3 2.7-2.7 2.7-4 0-1.3 2.7-2.7 2.7-4 0-1.3 2.7-2.7 2.7-4 0-1.3 2.7-2.7 2.7-4 0-1.3 2.7-2.7 2.7-4 0-1.3 2.7-2.7 2.7-4 0-1.3 2.7-2.7 2.7-4 0-1.3 2.7-2.7 2.7-4 0-1.3 2.7-2.7 2.7-4 0-1.3 2.7-2.7 2.7-4 0-1.3 2.7-2.7 2.7-4 0-1.3 2.7-2.7 2.7-4 0-1.3 2.7-2.7 2.7-4 0-1.3 2.7-2.7 2.7-4 0-1.3 2.7-2.7 2.7-4 0-1.3 2.7-2.7 2.7-4 0-1.3 2.7-2.7 2.7-4 0-1.3 2.7-2.7 2.7-4 0-1.3 2.7-2.7 2.7-4 0-1.3 2.7-2.7 2.7-4 0-1.3 2.7-2.7 2.7-4 0-1.3 2.7-2.7 2.7-4 0-1.3 2.7-2.7 2.7-4 0-1.3 2.7-2.7 2.7-4 0-1.3 2.7-2.7 2.7-4 0-1.3 2.7-2.7 2.7-4 0-1.3 2.7-2.7 2.7-4 0-1.3 2.7-2.7 2.7-4 0-1.3 2.7-2.7 2.7-4 0-1.3 2.7-2.7 2.7-4 0-1.3 2.7-2.7 2.7-4 0-1.3 2.7-2.7 2.7-4 0-1.3 2.7-2.7 2.7-4 0-1.3 2.7-2.7 2.7-4 0-1.3 2.7-2.7 2.7-4 0-1.3 2.7-2.7 2.7-4 0-1.3 2.7-2.7 2.7-4 0-1.3 2.7-2.7 2.7-4 0-1.3 2.7-2.7 2.7-4 0-1.3 2.7-2.7 2.7-4 0-1.3 2.7-2.7 2.7-4 0-1.3 2.7-2.7 2.7-4 0-1.3 2.7-2.7 2.7-4 0-1.3 2.7-2.7 2.7-4 0-1.3 2.7-2.7 2.7-4 0-1.3 2.7-2.7 2.7-4 0-1.3 2.7-2.7 2.7-4 0-1.3 2.7-2.7 2.7-4 0-1.3 2.7-2.7 2.7-4 0-1.3 2.7-2.7 2.7-4 0-1.3 2.7-2.7 2.7-4 0-1.3 2.7-2.7 2.7-4 0-1.3 2.7-2.7 2.7-4 0-1.3 2.7-2.7 2.7-4 0l-2 2c-1.7-4.3-3.6-8-5.5-11.5l1-1c-1.8-6.2-3.5-12.4-5-18.5a229.4 229.4 0 0 1 12-91Z" style="opacity:.729"/>
  <path fill="#8fd9b1" d="M476.5 147.5c1.3 1.1 2.5 2.5 3.5 4 3.7 12.4 8.4 24.4 14 36 5.3 21.2 10.3 42.2 15 63 .7.8 1.5 1 2.5 1v16c-1 0-1.8-.2-2.5-1a57.6 57.6 0 0 1-3-8c-2.3-22-6.8-43.3-13.5-64-.7 0-1-.3-1-1-.5-3.7-1.4-7.4-2.5-11-4.3-11.7-8.5-23.4-12.5-35Z" style="opacity:.696"/>
  <path fill="#38b472" d="M488.5 212.5c3.2 13 5 26.3 5.5 40 .7 11.2.2 22.2-1.5 33l-2 3v-24l2-10.5c-.7-7.8-1.7-15.6-3-23.5a8 8 0 0 1 1-3.5c-2.6-3.8-3.6-8-3-12.5l1-2Z" style="opacity:.729"/>
  <path fill="#0b994d" d="M24.5 262.5c1.5 6.1 3.2 12.3 5 18.5l-1 1c2 3.4 3.8 7.2 5.5 11.5l2-2c1.3 2.7 2.7 2.7 4 0 1.3 2.7 2.7 2.7 4 0 1.3 2.7 2.7 2.7 4 0 1.3 2.7 2.7 2.7 4 0 1.3 2.7 2.7 2.7 4 0 1.3 2.7 2.7 2.7 4 0 1.3 2.7 2.7 2.7 4 0 1.3 2.7 2.7 2.7 4 0 1.3 2.7 2.7 2.7 4 0 1.3 2.7 2.7 2.7 4 0 1.3 2.7 2.7 2.7 4 0 1.3 2.7 2.7 2.7 4 0 1.3 2.7 2.7 2.7 4 0 1.3 2.7 2.7 2.7 4 0 1.3 2.7 2.7 2.7 4 0 1.3 2.7 2.7 2.7 4 0 1.3 2.7 2.7 2.7 4 0 1.3 2.7 2.7 2.7 4 0 1.3 2.7 2.7 2.7 4 0 1.3 2.7 2.7 2.7 4 0 1.3 2.7 2.7 2.7 4 0 1.3 2.7 2.7 2.7 4 0 1.3 2.7 2.7 2.7 4 0 1.3 2.7 2.7 2.7 4 0 1.3 2.7 2.7 2.7 4 0 1.3 2.7 2.7 2.7 4 0 1.3 2.7 2.7 2.7 4 0 1.3 2.7 2.7 2.7 4 0 1.3 2.7 2.7 2.7 4 0 1.3 2.7 2.7 2.7 4 0 1.3 2.7 2.7 2.7 4 0 1.3 2.7 2.7 2.7 4 0 1.3 2.7 2.7 2.7 4 0 1.3 2.7 2.7 2.7 4 0 1.3 2.7 2.7 2.7 4 0 1.3 2.7 2.7 2.7 4 0 1.3 2.7 2.7 2.7 4 0 1.3 2.7 2.7 2.7 4 0 1.3 2.7 2.7 2.7 4 0 1.3 2.7 2.7 2.7 4 0 1.3 2.7 2.7 2.7 4 0 1.3 2.7 2.7 2.7 4 0 1.3 2.7 2.7 2.7 4 0 1.3 2.7 2.7 2.7 4 0 1.3 2.7 2.7 2.7 4 0 1.3 2.7 2.7 2.7 4 0 1.3 2.7 2.7 2.7 4 0 1.3 2.7 2.7 2.7 4 0 1.3 2.7 2.7 2.7 4 0 1.3 2.7 2.7 2.7 4 0 1.3 2.7 2.7 2.7 4 0 1.3 2.7 2.7 2.7 4 0 1.3 2.7 2.7 2.7 4 0 1.3 2.7 2.7 2.7 4 0 1 1.9 2.1 2.2 3.5 1v27l-214.5 1a105.6 105.6 0 0 1-16.5-58Z" style="opacity:.729"/>
  <path fill="#0ba152" d="m28.5 264.5 4.5 6c1.7-2.7 3.3-2.7 5 0 .3-.8.8-1.5 1.5-2 0 1 .5 1.6 1.5 2 1.7-2.7 3.3-2.7 5 0 .3-.8.8-1.5 1.5-2 0 1 .5 1.6 1.5 2 1.7-2.7 3.3-2.7 5 0 .3-.8.8-1.5 1.5-2 0 1 .5 1.6 1.5 2 1.7-2.7 3.3-2.7 5 0 .3-.8.8-1.5 1.5-2 0 1 .5 1.6 1.5 2 1.7-2.7 3.3-2.7 5 0 .3-.8.8-1.5 1.5-2 0 1 .5 1.6 1.5 2 1.7-2.7 3.3-2.7 5 0 .3-.8.8-1.5 1.5-2 0 1 .5 1.6 1.5 2 1.7-2.7 3.3-2.7 5 0 .3-.8.8-1.5 1.5-2 0 1 .5 1.6 1.5 2 1.7-2.7 3.3-2.7 5 0 .3-.8.8-1.5 1.5-2 0 1 .5 1.6 1.5 2 1.7-2.7 3.3-2.7 5 0 .3-.8.8-1.5 1.5-2 0 1 .5 1.6 1.5 2 1.7-2.7 3.3-2.7 5 0 .3-.8.8-1.5 1.5-2 0 1 .5 1.6 1.5 2 1.7-2.7 3.3-2.7 5 0 .3-.8.8-1.5 1.5-2 0 1 .5 1.6 1.5 2 1.7-2.7 3.3-2.7 5 0 .3-.8.8-1.5 1.5-2 0 1 .5 1.6 1.5 2 1.7-2.7 3.3-2.7 5 0 .3-.8.8-1.5 1.5-2 0 1 .5 1.6 1.5 2 1.7-2.7 3.3-2.7 5 0 .3-.8.8-1.5 1.5-2 0 1 .5 1.6 1.5 2 1.7-2.7 3.3-2.7 5 0 .3-.8.8-1.5 1.5-2 0 1 .5 1.6 1.5 2 1.7-2.7 3.3-2.7 5 0 .3-.8.8-1.5 1.5-2 0 1 .5 1.6 1.5 2 1.7-2.7 3.3-2.7 5 0 .3-.8.8-1.5 1.5-2 0 1 .5 1.6 1.5 2 1.7-2.7 3.3-2.7 5 0 .3-.8.8-1.5 1.5-2 0 1 .5 1.6 1.5 2 1.7-2.7 3.3-2.7 5 0 .3-.8.8-1.5 1.5-2 0 1 .5 1.6 1.5 2 1.7-2.7 3.3-2.7 5 0 .3-.8.8-1.5 1.5-2 0 1 .5 1.6 1.5 2 1.7-2.7 3.3-2.7 5 0 .3-.8.8-1.5 1.5-2 0 1 .5 1.6 1.5 2 1.7-2.7 3.3-2.7 5 0 .3-.8.8-1.5 1.5-2 0 1 .5 1.6 1.5 2 1.7-2.7 3.3-2.7 5 0 .3-.8.8-1.5 1.5-2 0 1 .5 1.6 1.5 2 1.7-2.7 3.3-2.7 5 0 .3-.8.8-1.5 1.5-2 0 1 .5 1.6 1.5 2 1.7-2.7 3.3-2.7 5 0 .3-.8.8-1.5 1.5-2 0 1 .5 1.6 1.5 2 1.7-2.7 3.3-2.7 5 0 .3-.8.8-1.5 1.5-2 0 1 .5 1.6 1.5 2 1.7-2.7 3.3-2.7 5 0 .3-.8.8-1.5 1.5-2 0 1 .5 1.6 1.5 2 1.7-2.7 3.3-2.7 5 0 .3-1 .8-1.6 1.5-2v12c-.6.1-1.1.4-1.5 1-1.3-2.7-2.7-2.7-4 0-1.3-2.7-2.7-2.7-4 0-1.3-2.7-2.7-2.7-4 0-1.3-2.7-2.7-2.7-4 0-1.3-2.7-2.7-2.7-4 0-1.3-2.7-2.7-2.7-4 0-1.3-2.7-2.7-2.7-4 0-1.3-2.7-2.7-2.7-4 0-1.3-2.7-2.7-2.7-4 0-1.3-2.7-2.7-2.7-4 0-1.3-2.7-2.7-2.7-4 0-1.3-2.7-2.7-2.7-4 0-1.3-2.7-2.7-2.7-4 0-1.3-2.7-2.7-2.7-4 0-1.3-2.7-2.7-2.7-4 0-1.3-2.7-2.7-2.7-4 0-1.3-2.7-2.7-2.7-4 0-1.3-2.7-2.7-2.7-4 0-1.3-2.7-2.7-2.7-4 0-1.3-2.7-2.7-2.7-4 0-1.3-2.7-2.7-2.7-4 0-1.3-2.7-2.7-2.7-4 0-1.3-2.7-2.7-2.7-4 0-1.3-2.7-2.7-2.7-4 0-1.3-2.7-2.7-2.7-4 0-1.3-2.7-2.7-2.7-4 0-1.3-2.7-2.7-2.7-4 0-1.3-2.7-2.7-2.7-4 0-1.3-2.7-2.7-2.7-4 0-1.3-2.7-2.7-2.7-4 0-1.3-2.7-2.7-2.7-4 0-1.3-2.7-2.7-2.7-4 0-1.3-2.7-2.7-2.7-4 0-1.3-2.7-2.7-2.7-4 0-1.3-2.7-2.7-2.7-4 0-1.3-2.7-2.7-2.7-4 0-1.3-2.7-2.7-2.7-4 0-1.3-2.7-2.7-2.7-4 0-1.3-2.7-2.7-2.7-4 0-1.3-2.7-2.7-2.7-4 0-1.3-2.7-2.7-2.7-4 0-1.3-2.7-2.7-2.7-4 0-1.3-2.7-2.7-2.7-4 0-1.3-2.7-2.7-2.7-4 0-1.3-2.7-2.7-2.7-4 0-1.3-2.7-2.7-2.7-4 0-1.3-2.7-2.7-2.7-4 0-1.3-2.7-2.7-2.7-4 0-1.3-2.7-2.7-2.7-4 0-1.3-2.7-2.7-2.7-4 0-1.3-2.7-2.7-2.7-4 0-1.3-2.7-2.7-2.7-4 0-1.3-2.7-2.7-2.7-4 0-1.3-2.7-2.7-2.7-4 0-1.3-2.7-2.7-2.7-4 0-2.8-1.4-3-3-.5-4.5l-4-2 1-3a88 88 0 0 1-3-5l1-2.5Z" style="opacity:.729"/>
  <path fill="#4dbd81" d="M485.5 193.5c1.8 1.9 3 4.2 3.5 7 6.3 28.3 8.8 57 7.5 86-.7 4.9-1.5 9.9-2.5 15a49 49 0 0 0-.5-14l-1-2c1.7-10.8 2.2-21.8 1.5-33a194 194 0 0 0-5.5-40c-.5-6.4-1.5-12.7-3-19Z" style="opacity:.729"/>
  <path fill="#0e9f51" d="M309.5 262.5v6c1.7-.1 3.2-.8 4.5-2 1.8.4 1.6 1-.5 1.5 1.6.7 2.8.2 3.5-1.5 1.5 2.4 3.1 2.4 5 0 1.8.4 1.6 1-.5 1.5 1.6.7 2.8.2 3.5-1.5 1.5 2.4 3.1 2.4 5 0 1.8.4 1.6 1-.5 1.5 1.6.7 2.8.2 3.5-1.5 1.5 2.4 3.1 2.4 5 0 1.8.4 1.6 1-.5 1.5 1.6.7 2.8.2 3.5-1.5 1.5 2.4 3.1 2.4 5 0 1.8.4 1.6 1-.5 1.5 1.6.7 2.8.2 3.5-1.5.4 1 1 1.6 2 2a7.2 7.2 0 0 1 4.5-2c-1 10.2-3.6 20-8 29-.3-.8-.8-1.5-1.5-2-17.3-.3-34.8 0-52.5 1a61 61 0 0 0 16-32Z" style="opacity:.729"/>
  <path fill="#109f52" d="M387.5 262.5c-.2 2 0 4 .5 6l1-2c1.5 2.4 3.1 2.4 5 0 1.8.4 1.6 1-.5 1.5 1.6.7 2.8.2 3.5-1.5 1.5 2.4 3.1 2.4 5 0 1.8.4 1.6 1-.5 1.5 1.6.7 2.8.2 3.5-1.5 1.5 2.4 3.1 2.4 5 0 1.8.4 1.6 1-.5 1.5 1.6.7 2.8.2 3.5-1.5 1.5 2.4 3.1 2.4 5 0 1.8.4 1.6 1-.5 1.5 1.6.7 2.8.2 3.5-1.5 1.5 2.4 3.1 2.4 5 0 1.8.4 1.6 1-.5 1.5 1.6.7 2.8.2 3.5-1.5 1 1.6 2.5 2.3 4.5 2-.8 9.6-2.4 19-5 28 .1-1 0-2-.5-3-15.3 1-30.8 1.3-46.5 1 2.7-10.7 4.7-21.3 6-32Z" style="opacity:.729"/>
  <path fill="#7acca0" d="M492.5 194.5c6.7 20.7 11.2 42 13.5 64 .8 2.7 1.8 5.4 3 8 .7.8 1.5 1 2.5 1v9c-1.2 8.6-2.5 17.2-4 26a5.7 5.7 0 0 1-3.5-5c-1-5.3-1.7-10.6-2-16l-1.5-1.5c.8-8.1.8-16.3 0-24.5a253 253 0 0 0-7.5-52c-.5-3-.7-6-.5-9Z" style="opacity:.729"/>
  <path fill="#5cc38c" d="M483.5 178.5c6.9 18.6 11.2 38 13 58 .8 12.2 1.8 24.4 3 36.5a716 716 0 0 0-3 27.5v-14c1.3-29-1.2-57.7-7.5-86-.5-2.8-1.7-5.1-3.5-7-.4-5-1-10-2-15Z" style="opacity:.729"/>
  <path fill="#0d994e" d="M347.5 295.5c-4 10.7-10 20-18 28-15-.3-29.8 0-44.5 1-2.5-2-5.1-2-8 0l-3-5-1 1a11.5 11.5 0 0 0-4.5-3.5c.2-2.8.2-5.6 0-8.5 2.4-.8 4.7-1.8 7-3a62.3 62.3 0 0 0 18-11c17.7-1 35.2-1.3 52.5-1 .7.5 1.2 1.2 1.5 2ZM428.5 296.5a157 157 0 0 1-8 27c-15.8.6-31.7 1-47.5 1-1.3-.6-2.5-1.3-3.5-2 4.5-9 8.5-18.4 12-28 15.7.3 31.2 0 46.5-1 .5 1 .6 2 .5 3Z" style="opacity:.729"/>
  <path fill="#119c50" d="M487.5 272.5c0 2.6.4 5.3 1 8a66 66 0 0 1-4 14.5c.6.4.9.9 1 1.5-1.2.5-1.9 1.5-2 3 0 4.7-1.1 9.4-3.5 14-.5-2.4-1.3-2.6-2.5-.5l1 1-3 12a4 4 0 0 0 1 2c-1.6-.4-3.1-.6-4.5-.5-.7-.7-.7-1.3 0-2 .7 1.2 1.2 1.2 1.5 0-.7-3.5-2.2-3.9-4.5-1-5.2 0-10.3-.4-15.5-1 6-17.9 9.7-36.2 11-55 2 .3 3.5-.4 4.5-2 1.5 2.4 3.1 2.4 5 0 1.8.4 1.6 1-.5 1.5 1.6.7 2.8.2 3.5-1.5a3.3 3.3 0 0 0 3.5 2c-.1-1 0-2 .5-3 .3 1.6.8 3.1 1.5 4.5l-1 1c1.3 1.7 1.6 3.4 1 5 1.5 3 2.3 6.2 2.5 9.5.7-4.6 1.5-8.9 2.5-13Z" style="opacity:.729"/>
  <path fill="#66c090" d="M496.5 236.5a505 505 0 0 0 4 19c.8 8.2.8 16.4 0 24.5l1.5 1.5c.3 5.4 1 10.7 2 16 .2 2.4 1.4 4 3.5 5a302 302 0 0 1-7 30c-1.3.2-2.5-.2-3.5-1-.5-2.4-1.2-4.7-2-7-.4-8 0-16 1.5-24 .8-9 1.8-18.3 3-27.5a972.3 972.3 0 0 1-3-36.5Z" style="opacity:.696"/>
  <path fill="#0b8c47" d="M88.5 82.5a493.7 493.7 0 0 1-24 30 41 41 0 0 0-7 13c-1.9 2.7-4 5.4-6.5 8-15.9 29-25.6 60-29 93-2.5 32 1.8 63 13 93 .7 2.1 1.9 3.8 3.5 5 0 2.2.8 4.2 2 6 2.4 3.2 4.6 6.5 6.5 10 69.5-.2 139-.2 208.5 0v24c-.9-1.1-1.7-1.1-2.5 0-1.3-2.7-2.7-2.7-4 0h-4c-1.3-2.7-2.7-2.7-4 0h-4c-1.3-2.7-2.7-2.7-4 0h-4c-1.3-2.7-2.7-2.7-4 0h-4c-1.3-2.7-2.7-2.7-4 0h-4c-1.3-2.7-2.7-2.7-4 0h-4c-1.3-2.7-2.7-2.7-4 0h-4c-1.3-2.7-2.7-2.7-4 0h-4c-1.3-2.7-2.7-2.7-4 0h-4c-1.3-2.7-2.7-2.7-4 0h-4c-1.3-2.7-2.7-2.7-4 0h-4c-1.3-2.7-2.7-2.7-4 0h-4c-1.3-2.7-2.7-2.7-4 0h-4c-1.3-2.7-2.7-2.7-4 0h-4c-1.3-2.7-2.7-2.7-4 0h-4c-1.3-2.7-2.7-2.7-4 0h-4c-1.3-2.7-2.7-2.7-4 0h-4c-1.3-2.7-2.7-2.7-4 0h-4c-1.3-2.7-2.7-2.7-4 0h-4c-1.3-2.7-2.7-2.7-4 0h-4c-1.3-2.7-2.7-2.7-4 0h-4c-1.3-2.7-2.7-2.7-4 0h-4c-1.3-2.7-2.7-2.7-4 0h-4c-1.3-2.7-2.7-2.7-4 0h-4a2326 2326 0 0 1-13-13c-2.6-5.5-5.5-10.8-8.5-16-.5-.8-1.1-1.1-2-1-4.5-8.6-8.2-17.6-11-27-6.6-30.3-8.8-61-6.5-92 2.3-8.2 4.3-16.6 6-25a237 237 0 0 1 62.5-108Z" style="opacity:.729"/>
  <path fill="#062916" d="M-.5 267.5c.8.3 1.5.8 2 1.5 10.2 88.5 54.6 156.2 133 203 3.7 2.3 7.7 3.8 12 4.5 29.4 15 60.7 23.5 94 25.5 37 .9 73-4 108-14.5 3.8.3 7.1 1.3 10 3a91.3 91.3 0 0 1-10 4 8 8 0 0 0-5.5-2 264 264 0 0 0-31.5 6.5c-98 17.9-181.1-9.3-249.5-81.5A247 247 0 0 1 36.5 384a13.9 13.9 0 0 1-4.5-6.5 4 4 0 0 0-3.5-2 271.7 271.7 0 0 1-29-98v-10Z" style="opacity:.698"/>
  <path fill="#359c61" d="M255.5 201.5h1v108c3 0 6-.3 9-1h1c-.7.9-1.7 1.2-3 1 .4 3.4-.3 6.6-2 9.5.9.7 1.5 1.5 2 2.5 0 7-.3 14.3-1 21.5 2.2 2.3 3.4 1.8 3.5-1.5 1.1 1.3 1.3 2.4.5 3.5 3 2.2 3.4 4.5 1 7 .9 1 1.9 1.9 3 2.5a66.7 66.7 0 0 1-14 2v31h-1v-186Z" style="opacity:.729"/>
  <path fill="#0b944b" d="M57.5 125.5c.2 1.4 0 2.7-.5 4-8.7 13-15.5 27-20.5 42a229.4 229.4 0 0 0-12 91c0 21.5 5.5 40.8 16.5 58l214.5-1v12c-2 .4-3.7-.2-5.5-2l-3 2c-1.7.2-3.3-.5-5-2l-3 2c-1.7.2-3.3-.5-5-2l-3 2c-1.7.2-3.3-.5-5-2l-3 2c-1.7.2-3.3-.5-5-2l-3 2c-1.7.2-3.3-.5-5-2l-3 2c-1.7.2-3.3-.5-5-2l-3 2c-1.7.2-3.3-.5-5-2l-3 2c-1.7.2-3.3-.5-5-2l-3 2c-1.7.2-3.3-.5-5-2l-3 2c-1.7.2-3.3-.5-5-2l-3 2c-1.7.2-3.3-.5-5-2l-3 2c-1.7.2-3.3-.5-5-2l-3 2c-1.7.2-3.3-.5-5-2l-3 2c-1.7.2-3.3-.5-5-2l-3 2c-1.7.2-3.3-.5-5-2l-3 2c-1.7.2-3.3-.5-5-2l-3 2c-1.7.2-3.3-.5-5-2l-3 2c-1.7.2-3.3-.5-5-2l-3 2c-1.7.2-3.3-.5-5-2l-3 2c-1.7.2-3.3-.5-5-2l-3 2c-1.7.2-3.3-.5-5-2l-3 2c-1.7.2-3.3-.5-5-2l-3 2c-1.7.2-3.3-.5-5-2l-3 2c-1.7.2-3.3-.5-5-2l-3 2c-1.7.2-3.3-.5-5-2-1.7 1.5-3.3 2.2-5 2-1.6-3-3.8-5.3-6.5-7a10.6 10.6 0 0 1-3.5-5c-11.2-30-15.5-61-13-93 3.4-33 13.1-64 29-93 2.4-2.6 4.6-5.3 6.5-8Z" style="opacity:.729"/>
  <path fill="#0f924c" d="M266.5 308.5h2c.2 2.9.2 5.7 0 8.5 1.8.8 3.3 2 4.5 3.5l1-1 3 5c2.9-2 5.5-2 8 0 14.7-1 29.6-1.3 44.5-1a100.6 100.6 0 0 1-54 31h-5c-1.1-.6-2.1-1.5-3-2.5 2.4-2.5 2-4.8-1-7 .8-1 .6-2.2-.5-3.5 0 3.3-1.3 3.8-3.5 1.5.7-7.2 1-14.4 1-21.5-.5-1-1.1-1.8-2-2.5 1.7-2.9 2.4-6 2-9.5 1.3.2 2.3-.1 3-1Z" style="opacity:.729"/>
  <path fill="#4db17b" d="M496.5 286.5v14c-1.4 8-2 16-1.5 24 .8 2.3 1.5 4.6 2 7 1 .8 2.2 1.2 3.5 1-2.4 7.1-5 14.1-8 21-1.5 0-2.8-.6-4-1.5l1-1a24.9 24.9 0 0 1-3-8c3-18.6 5.3-37 7-55.5.8 4.5 1 9.2.5 14 1-5.1 1.8-10.1 2.5-15Z" style="opacity:.722"/>
  <path fill="#0a9049" d="M38.5 324.5c2.7 1.7 5 4 6.5 7 1.7.2 3.3-.5 5-2 1.7 1.5 3.3 2.2 5 2l3-2c1.7 1.5 3.3 2.2 5 2l3-2c1.7 1.5 3.3 2.2 5 2l3-2c1.7 1.5 3.3 2.2 5 2l3-2c1.7 1.5 3.3 2.2 5 2l3-2c1.7 1.5 3.3 2.2 5 2l3-2c1.7 1.5 3.3 2.2 5 2l3-2c1.7 1.5 3.3 2.2 5 2l3-2c1.7 1.5 3.3 2.2 5 2l3-2c1.7 1.5 3.3 2.2 5 2l3-2c1.7 1.5 3.3 2.2 5 2l3-2c1.7 1.5 3.3 2.2 5 2l3-2c1.7 1.5 3.3 2.2 5 2l3-2c1.7 1.5 3.3 2.2 5 2l3-2c1.7 1.5 3.3 2.2 5 2l3-2c1.7 1.5 3.3 2.2 5 2l3-2c1.7 1.5 3.3 2.2 5 2l3-2c1.7 1.5 3.3 2.2 5 2l3-2c1.7 1.5 3.3 2.2 5 2l3-2c1.7 1.5 3.3 2.2 5 2l3-2c1.7 1.5 3.3 2.2 5 2l3-2c1.7 1.5 3.3 2.2 5 2l3-2c1.7 1.5 3.3 2.2 5 2l3-2c1.7 1.5 3.3 2.2 5 2l3-2c1.7 1.5 3.3 2.2 5 2l3-2c1.8 1.8 3.6 2.4 5.5 2v9c-69.5-.2-139-.2-208.5 0-2-3.5-4-6.8-6.5-10-1.2-1.8-2-3.8-2-6Z" style="opacity:.729"/>
  <path fill="#27a462" d="M489.5 261.5c.9.7 1.2 1.7 1 3v24a535.8 535.8 0 0 0-4.5 34 12.4 12.4 0 0 0-3.5 11.5c-.6.5-1.3.6-2 .5-.9 1-1.6 1-2 0-.1-.6-.4-1.1-1-1.5 4.9-12 7.5-24 8-36.5-.1-.6-.4-1.1-1-1.5a66 66 0 0 0 4-14.5c-.6-2.7-1-5.4-1-8 .4-3.5 1-7.1 2-11Z" style="opacity:.729"/>
  <path fill="#0d924b" d="M369.5 322.5c1 .7 2.2 1.4 3.5 2 15.8 0 31.7-.4 47.5-1a104 104 0 0 1-13 24c-.3-.8-.8-1.5-1.5-2-18 1.2-35.8 1.2-53.5 0 6-7.4 11.8-15 17-23Z" style="opacity:.729"/>
  <path fill="#11944d" d="M485.5 296.5c-.5 12.4-3.1 24.6-8 36.5.6.4.9.9 1 1.5-1.4 2-2.4 4-3 6.5 1 1.1.6 2.1-1 3 1.3 1.4 1 2.4-1 3a8.4 8.4 0 0 0 0 6c-.5.7-1.2 1.2-2 1.5-.8-.3-1.2-1-1-2 1.2-1.4.9-2.5-1-3.5l2-2v-3.5a35.4 35.4 0 0 0-4 6c-1-.5-1.8-1.1-2.5-2-2.2 4-2.7 3.9-1.5-.5l-1.5-1.5c-5.8.6-11.6.9-17.5 1 3.2-7.6 6.2-15.3 9-23 5.2.6 10.3 1 15.5 1 2.3-2.9 3.8-2.5 4.5 1-.3 1.2-.8 1.2-1.5 0-.7.7-.7 1.3 0 2 1.4-.1 2.9 0 4.5.5a4 4 0 0 1-1-2l3-12-1-1c1.2-2.1 2-2 2.5.5 2.4-4.6 3.6-9.3 3.5-14 .1-1.5.8-2.5 2-3Z" style="opacity:.729"/>
  <path fill="#0d8d48" d="M352.5 345.5c17.7 1.2 35.5 1.2 53.5 0 .7.5 1.2 1.2 1.5 2a70 70 0 0 1-14 20c-21.8.1-43.8-.2-66-1 8.6-6.6 17-13.6 25-21Z" style="opacity:.729"/>
  <path fill="#0e8c48" d="M470.5 352.5c-1.7 3.3-3.4 6.8-5 10.5l1 3c-1 1.6-2.2 1.8-3.5.5l-1 3-1-1c-1.1 1.3-1.3 2.4-.5 3.5-2.4 1.3-2.4 2.3 0 3-.3 2.2-1.6 4-4 5.5.2.6.5 1 1 1.5a4.3 4.3 0 0 0-2 4.5c0 .4-.1.8-.5 1a5 5 0 0 0-2.5-3.5c2.4-.8 2.2-1.6-.5-2.5-9.7.7-19.2.7-28.5 0 7.4-11.4 14.4-23 21-35 5.9-.1 11.7-.4 17.5-1l1.5 1.5c-1.2 4.4-.7 4.5 1.5.5.7.9 1.5 1.5 2.5 2 1.2-2.2 2.5-4.2 4-6v3.5l-2 2c1.9 1 2.2 2.1 1 3.5Z" style="opacity:.729"/>
  <path fill="#3ba66d" d="m492.5 285.5 1 2c-1.7 18.4-4 37-7 55.5.5 2.9 1.5 5.5 3 8l-1 1c1.2 1 2.5 1.4 4 1.5-2.4 5.9-5.1 11.5-8 17l-6.5-3a51.9 51.9 0 0 1-2.5-12.5 36 36 0 0 0 5-20.5c.7.1 1.4 0 2-.5-.9-4.3.3-8.2 3.5-11.5 1.1-11.2 2.6-22.5 4.5-34l2-3Z" style="opacity:.699"/>
  <path fill="#0a7f41" d="M26.5 307.5c2.8 9.4 6.5 18.4 11 27 3.2 12.3 9.2 23 18 32-.1.6-.4 1.1-1 1.5 3.1 3.6 6.4 6.9 10 10l-1 1a63 63 0 0 0 11.5 9.5c60.1-.2 120.3-.2 180.5 0v22c-54.2-1.1-108.4-1.1-162.5 0l-3-3-1 2a60 60 0 0 0-13-13c-.4.6-.9.9-1.5 1a200.3 200.3 0 0 0-19-24 54 54 0 0 1-8-15l-9-12c-3.5-5.8-6-11.8-7.5-18l-4.5-21Z" style="opacity:.729"/>
  <path fill="#d7f5e1" d="M270.5 354.5h5v31c-2.2.9-4.6 1.2-7 1-4 .5-8 .9-12 1v-31c4.9-.2 9.5-.9 14-2Z" style="opacity:.729"/>
  <path fill="#0a8745" d="M37.5 334.5c.9-.1 1.5.2 2 1 3 5.2 5.9 10.5 8.5 16l13 13h4c1.3-2.7 2.7-2.7 4 0h4c1.3-2.7 2.7-2.7 4 0h4c1.3-2.7 2.7-2.7 4 0h4c1.3-2.7 2.7-2.7 4 0h4c1.3-2.7 2.7-2.7 4 0h4c1.3-2.7 2.7-2.7 4 0h4c1.3-2.7 2.7-2.7 4 0h4c1.3-2.7 2.7-2.7 4 0h4c1.3-2.7 2.7-2.7 4 0h4c1.3-2.7 2.7-2.7 4 0h4c1.3-2.7 2.7-2.7 4 0h4c1.3-2.7 2.7-2.7 4 0h4c1.3-2.7 2.7-2.7 4 0h4c1.3-2.7 2.7-2.7 4 0h4c1.3-2.7 2.7-2.7 4 0h4c1.3-2.7 2.7-2.7 4 0h4c1.3-2.7 2.7-2.7 4 0h4c1.3-2.7 2.7-2.7 4 0h4c1.3-2.7 2.7-2.7 4 0h4c1.3-2.7 2.7-2.7 4 0h4c1.3-2.7 2.7-2.7 4 0h4c1.3-2.7 2.7-2.7 4 0h4c1.3-2.7 2.7-2.7 4 0h4c1.3-2.7 2.7-2.7 4 0 .8-1.1 1.6-1.1 2.5 0v14c-1.4-1.2-2.5-.9-3.5 1l-4-4-4 4-4-4-4 4-4-4-4 4-4-4-4 4-4-4-4 4-4-4-4 4-4-4-4 4-4-4-4 4-4-4-4 4-4-4-4 4-4-4-4 4-4-4-4 4-4-4-4 4-4-4-4 4-4-4-4 4-4-4-4 4-4-4-4 4-4-4-4 4-4-4-4 4-4-4-4 4-4-4-4 4-4-4-4 4-4-4c-1.8.7-3.4 1-5 1a9.5 9.5 0 0 0-2.5-1.5c-1-2.8-2.4-5.5-4-8a13 13 0 0 0-5-.5 70.3 70.3 0 0 1-18-32Z" style="opacity:.729"/>
  <path fill="#28985c" d="M478.5 334.5c.4 1 1.1 1 2 0 .4 7-1.2 14-5 20.5.3 4 1.1 8.2 2.5 12.5l6.5 3c-2.2 5-4.8 9.7-8 14-2.3-.7-4.5-2.4-6.5-5l-1.5-15.5c1.6-1.6 2-3.2 1-5a39 39 0 0 0 2-4.5c.8-.3 1.5-.8 2-1.5a8.4 8.4 0 0 1 0-6c2-.6 2.3-1.6 1-3 1.6-.9 2-1.9 1-3 .6-2.4 1.6-4.6 3-6.5Z" style="opacity:.722"/>
  <path fill="#0a8443" d="M55.5 366.5a13 13 0 0 1 5 .5c1.6 2.5 3 5.2 4 8 1 .4 1.7.9 2.5 1.5 1.6 0 3.2-.3 5-1l4 4 4-4 4 4 4-4 4 4 4-4 4 4 4-4 4 4 4-4 4 4 4-4 4 4 4-4 4 4 4-4 4 4 4-4 4 4 4-4 4 4 4-4 4 4 4-4 4 4 4-4 4 4 4-4 4 4 4-4 4 4 4-4 4 4 4-4 4 4 4-4 4 4 4-4 4 4 4-4 4 4 4-4 4 4 4-4 4 4c1-1.9 2.1-2.2 3.5-1v10c-60.2-.2-120.4-.2-180.5 0a63 63 0 0 1-11.5-9.5l1-1c-3.6-3.1-6.9-6.4-10-10 .6-.4.9-.9 1-1.5Z" style="opacity:.729"/>
  <path fill="#198e4f" d="M470.5 352.5c-.2 1 .2 1.7 1 2a39 39 0 0 1-2 4.5c1 1.8.6 3.4-1 5l1.5 15.5c2 2.6 4.2 4.3 6.5 5a53.6 53.6 0 0 1-7 12c0-2.2-.9-3-2.5-2a52.5 52.5 0 0 1-11.5-8c-.3-2 .4-3.5 2-4.5-.5-.4-.8-1-1-1.5 2.4-1.4 3.7-3.3 4-5.5-2.4-.7-2.4-1.7 0-3-.8-1-.6-2.2.5-3.5l1 1 1-3c1.3 1.3 2.5 1.1 3.5-.5l-1-3c1.6-3.7 3.3-7.2 5-10.5Z" style="opacity:.721"/>
  <path fill="#0e8946" d="M327.5 366.5c22.2.8 44.2 1.1 66 1-5 7.4-11 14.1-18 20 .2-1.6-.3-3-1.5-4-28.6 1.1-57.4 1.1-86.5 0 14-4 27.3-9.7 40-17Z" style="opacity:.729"/>
  <path fill="#0a5b2f" d="M15.5 284.5c.7.4 1.2 1 1.5 2 1.3 9 3 18 5 27l3.5 7c0 3.4 1 6.4 3 9 .4 2.7 1 5.3 1.5 8 3.2 5.3 5.5 11 7 17 8.8 14.5 17.8 28.9 27 43 4.9 4.2 9 9 12.5 14.5 1.6 1 3.2 2 5 2.5 6.6 7.5 12.9 15.1 19 23h-2c-7.6-7-15-14.4-22.5-22-3.2-6-7.5-11-13-15a54.6 54.6 0 0 1-7-12 169.6 169.6 0 0 1-28.5-53c-2.1-8.6-5-17-8.5-25l-3.5-26Z" style="opacity:.729"/>
  <path fill="#0b8543" d="M287.5 383.5c29.1 1.1 58 1.1 86.5 0 1.2 1 1.7 2.4 1.5 4-5.7 5-11.7 9.7-18 14-.3-.8-.8-1.5-1.5-2-26.1 1-52.3 1-78.5 0-.3 1.2-.8 1.2-1.5 0l-1-3-2 4a15 15 0 0 0-3.5-3c0-3.8-.3-7.5-1-11 2.4.2 4.8-.1 7-1l12-2Z" style="opacity:.729"/>
  <path fill="#0d8544" d="M423.5 381.5c9.3.7 18.8.7 28.5 0 2.7.9 2.9 1.7.5 2.5a5 5 0 0 1 2.5 3.5c.4-.2.6-.6.5-1 3.4 3.1 7.2 5.8 11.5 8 1.6-1 2.5-.2 2.5 2a19 19 0 0 1-4 6c-2.3-.6-4.8-1.6-7.5-3l-5 1-2-2h-8l-2 2c-10.9-.1-22-.5-33.5-1l16-18Z" style="opacity:.729"/>
  <path fill="#0a783d" d="m38.5 346.5 9 12a54 54 0 0 0 8 15c7.2 7.9 13.6 15.9 19 24 7 8.2 14.5 15.2 22.5 21l3-1c2 2.2 4.3 3.8 7 5 49.5-.2 99-.2 148.5 0v14c-44.2-.2-88.4-.2-132.5 0-7.8-3-15.3-7.2-22.5-12.5L72 399.5a245.6 245.6 0 0 1-33.5-53Z" style="opacity:.729"/>
  <path fill="#0c8041" d="M277.5 399.5c26.2 1 52.4 1 78.5 0 .7.5 1.2 1.2 1.5 2a143 143 0 0 1-54 25c-8.3-.6-16.4-.6-24.5 0-.4-1-.9-1.8-1.5-2.5 1-7.5 1-15.6 0-24.5Z" style="opacity:.729"/>
  <path fill="#0c7f41" d="M465.5 402.5a16.6 16.6 0 0 1-5 6c-1.3-.2-2.5.2-3.5 1a8 8 0 0 0-5-2c-2.3.5-4.5.5-6.5 0l-12.5 5c-1.6-.8-2.6-.2-3 2l-1-1a8.4 8.4 0 0 1-5.5 2.5c-.7 1.3-1.5 2.4-2.5 3.5l-1-2-5.5 5.5c-3.8-1-7 .1-9.5 3.5a259 259 0 0 1-27.5-1 186 186 0 0 0 30-26c11.4.5 22.6.9 33.5 1l2-2h8l2 2 5-1c2.7 1.4 5.2 2.4 7.5 3Z" style="opacity:.727"/>
  <path fill="#158046" d="M268.5 386.5c.7 3.5 1 7.2 1 11a15 15 0 0 1 3.5 3l2-4 1 3c.7 1.2 1.2 1.2 1.5 0 1 8.9 1 17 0 24.5.6.8 1.1 1.6 1.5 2.5 8-.6 16.2-.6 24.5 0a101 101 0 0 1-27 6l-20 2h-1v-47h1c4-.1 8-.5 12-1Z" style="opacity:.729"/>
  <path fill="#062414" d="M28.5 375.5a4 4 0 0 1 3.5 2c.9 2.6 2.4 4.8 4.5 6.5A247 247 0 0 0 62 417.5c68.4 72.2 151.5 99.4 249.5 81.5a264 264 0 0 1 31.5-6.5 8 8 0 0 1 5.5 2c-7.8 3.3-15.8 6-24 8 .1-1 0-2-.5-3-8 1.5-16 3.1-24 5-6.8-1-13.8-.4-21 2h-48l-1.5-1.5c-3.3-.2-6.4-.7-9.5-1.5l-1 1a57.4 57.4 0 0 0-11-3l-3 1c-.3-.8-.8-1.5-1.5-2a81 81 0 0 1-6.5 0c-2.8-2-5.8-2.8-9-2-1.6-.6-3-1.6-4-3a85 85 0 0 1-20-6c-1.1 1-2.1.6-3-1-1.4 1.3-2.4 1-3-1-1.7.8-3 .1-4-2l-1 1c-18.6-8.6-36.3-19-53-31l-1.5 3a262.3 262.3 0 0 1-70-83Z" style="opacity:.698"/>
  <path fill="#0a733a" d="M17.5 220.5a319 319 0 0 0 6.5 81c.6 2.2 1.4 4.2 2.5 6l4.5 21c1.5 6.2 4 12.2 7.5 18 8.9 19 20 36.7 33.5 53l28.5 24.5a96.7 96.7 0 0 0 22.5 12.5c44.1-.2 88.3-.2 132.5 0v20c-1.3-1.5-2.2-1.1-2.5 1a14 14 0 0 1-4-3l-4 3a14 14 0 0 1-4-3l-4 3a14 14 0 0 1-4-3l-4 3a14 14 0 0 1-4-3l-4 3a14 14 0 0 1-4-3l-4 3a14 14 0 0 1-4-3l-4 3a14 14 0 0 1-4-3l-4 3a14 14 0 0 1-4-3l-4 3a14 14 0 0 1-4-3l-4 3a14 14 0 0 1-4-3l-4 3a14 14 0 0 1-4-3l-4 3a14 14 0 0 1-4-3l-4 3c-1.8-.8-3.3-2-4.5-3.5-11.5-3.4-22.8-8-34-14a441.5 441.5 0 0 0-30-21A203.8 203.8 0 0 0 71 402.5a23 23 0 0 0-2-5 15.2 15.2 0 0 1-8-10c-2.3-3.3-5-6.3-8-9-9.8-15.6-18-31.9-24.5-49-2-2.6-3-5.6-3-9a245.1 245.1 0 0 1-8-100Z" style="opacity:.729"/>
  <path fill="#0c793e" d="M460.5 408.5c-1.5 3-3.5 5.7-6 8a81 81 0 0 0-16.5-1 6.5 6.5 0 0 0-3 3c-2.6-.2-4.9.8-7 3l-1-1a45 45 0 0 1-15 9l-9 7-1-1-15 9-1-1a81 81 0 0 1-9 5l-3-1a29.8 29.8 0 0 1-9 5 915 915 0 0 0-35.5-1 209 209 0 0 0 48-26c9 .8 18.2 1.1 27.5 1 2.5-3.4 5.7-4.5 9.5-3.5l5.5-5.5 1 2c1-1 1.8-2.2 2.5-3.5 2.2-.2 4-1 5.5-2.5l1 1c.4-2.2 1.4-2.8 3-2l12.5-5c2 .5 4.2.5 6.5 0a8 8 0 0 1 5 2c1-.8 2.2-1.2 3.5-1Z" style="opacity:.729"/>
  <path fill="#0a7b3f" d="M255.5 410.5v12c-49.5-.2-99-.2-148.5 0-2.7-1.2-5-2.8-7-5l-3 1c-8-5.8-15.5-12.8-22.5-21 .6-.1 1.1-.4 1.5-1a60 60 0 0 1 13 13l1-2 3 3c54.1-1.1 108.3-1.1 162.5 0Z" style="opacity:.729"/>
  <path fill="#0c743b" d="M454.5 416.5c-1 2.6-2.6 4.6-5 6-1.3-1.5-2.2-1.1-2.5 1-1-.8-1.6-1.8-2-3a8.5 8.5 0 0 1-8 0c-.9 1.6-1.9 2-3 1a2036.4 2036.4 0 0 1-58 33l-1-1c-3.7 1.3-7 3.3-10 6h-5c-1.1 1.9-2.4 2.6-4 2l-8 4a4 4 0 0 0-2-1l-9 4c-1.1-1-2.1-.6-3 1-1.8-.7-3.4-1-5-1-.9 1.6-1.9 2-3 1-3.8 1.2-7.7 2.6-11.5 4-1-2.6-2.3-3-4-1.5 2.4.5 2.6 1.3.5 2.5-1.3-1.3-2.7-1.3-4 0l-3-4c-2.1 1.2-2 2 .5 2.5l-1.5 1.5c-1.3-1.3-2.7-1.3-4 0l-3-4c-2.1 1.2-2 2 .5 2.5l-1.5 1.5c-1.3-1.3-2.7-1.3-4 0l-3-4c-2.1 1.2-2 2 .5 2.5l-1.5 1.5c-1.3-1.3-2.7-1.3-4 0-1.3-2.7-2.7-2.7-4 0l-1-1-1 5a35 35 0 0 1-1.5-14c1.3.2 2.3-.1 3-1 17.4-2.2 34.4-6.2 51-12 12.1.1 24 .4 35.5 1 3.3-1.1 6.3-2.8 9-5l3 1a81 81 0 0 0 9-5l1 1 15-9 1 1 9-7a45 45 0 0 0 15-9l1 1c2.1-2.2 4.4-3.2 7-3a6.5 6.5 0 0 1 3-3 81 81 0 0 1 16.5 1Z" style="opacity:.728"/>
  <path fill="#07351c" d="M51.5 100.5c.5 0 .9.4 1 1a9.9 9.9 0 0 0-2.5 5 254 254 0 0 0-37 201 231 231 0 0 0 26.5 65 268.5 268.5 0 0 0 117 105 178.2 178.2 0 0 0 46 15.5c30.2 6.1 60.5 7.1 91 3 26.8-5.7 53.5-12 80-19 3-.9 5.7-.4 8 1.5a161 161 0 0 1-15 8c-1.9-1.3-4.2-2-7-2-15.2 2-30.2 5.2-45 9.5a257.9 257.9 0 0 1-168-17.5 307.9 307.9 0 0 1-64-44.5c-64.7-65.8-89.7-143.8-75-234-.2-1.7-.9-1.8-2-.5 8.1-36 23.5-68.3 46-97Z" style="opacity:.729"/>
  <path fill="#096734" d="M443.5 429.5a25.7 25.7 0 0 1-6 6c-3 .4-5.8.4-8.5 0-16 5.6-31.5 12.7-46.5 21.5-37 18.1-75 28.6-114 31.5h-13v-3c45.7-.9 90-12.4 133-34.5 13.6-7.4 27-14.9 40.5-22.5l1 1c4.6-3.8 9.1-3.8 13.5 0Z" style="opacity:.725"/>
  <path fill="#d9f6e2" d="M276.5 432.5c-1 10.3-1.3 20.6-1 31-2.6.9-5.2 1.2-8 1h-11v-30l20-2Z" style="opacity:.729"/>
  <path fill="#096031" d="M437.5 435.5c-2.3 3-5 5.7-8 8-.3-.8-.8-1.5-1.5-2h-8c-20.9 9.3-41.7 18.8-62.5 28.5a369 369 0 0 1-70.5 18.5c-6.1.5-12.3.5-18.5 0 39-2.9 77-13.4 114-31.5 15-8.8 30.5-16 46.5-21.5 2.7.4 5.6.4 8.5 0Z" style="opacity:.729"/>
  <path fill="#0a5a2f" d="M429.5 443.5c-1.7 2.7-4 4.7-7 6-2.4-1-4.5-1.7-6.5-2-21.4 8.2-42.9 17-64.5 26.5a273.7 273.7 0 0 1-118 17 90.8 90.8 0 0 1-15-2.5c12 .8 24.4.8 37 0h13c6.2.5 12.4.5 18.5 0a369 369 0 0 0 70.5-18.5c20.8-9.7 41.6-19.2 62.5-28.5h8c.7.5 1.2 1.2 1.5 2Z" style="opacity:.725"/>
  <path fill="#6cac87" d="M255.5 434.5h1v30h11c-3.8 1-7.8 1.3-12 1v-31Z" style="opacity:.729"/>
  <path fill="#094d28" d="M413.5 457.5a26 26 0 0 1-7 5c-.6-1.1-1.5-2.1-2.5-3h-4c-23.2 8.9-46.7 17-70.5 24.5a265.8 265.8 0 0 1-113 8c-6.3-1-12.3-2.4-18-4.5 9.7 1.3 19.7 2.8 30 4.5 40.6 3.8 80.2-1.2 119-15 17.8-6.8 35.3-14 52.5-21.5l1 1c2.2-1 4.6-1.6 7-2 2.4.1 4.2 1.1 5.5 3Z" style="opacity:.721"/>
  <path fill="#0e6234" d="M81.5 414.5a193 193 0 0 1 21 19.5l16 11c2.3 3.5 5.8 6.3 10.5 8.5l3-1c24.4 16 51 25.8 80 29 1.8 1.4 3.7 1.7 5.5 1l5.5 2 1-1c10.5 2 21 2.7 31.5 2v3c-12.6.8-25 .8-37 0a255.6 255.6 0 0 1-112-48.5 33 33 0 0 1-6-2.5 471.5 471.5 0 0 0-19-23Z" style="opacity:.729"/>
  <path fill="#096c37" d="M28.5 329.5a280.3 280.3 0 0 0 24.5 49c3 2.7 5.7 5.7 8 9 1.2 4.5 3.9 7.9 8 10a23 23 0 0 1 2 5c6.1 5.1 12 10.6 17.5 16.5a441.5 441.5 0 0 1 30 21c11.2 6 22.5 10.6 34 14 1.2 1.5 2.7 2.7 4.5 3.5l4-3a14 14 0 0 0 4 3l4-3a14 14 0 0 0 4 3l4-3a14 14 0 0 0 4 3l4-3a14 14 0 0 0 4 3l4-3a14 14 0 0 0 4 3l4-3a14 14 0 0 0 4 3l4-3a14 14 0 0 0 4 3l4-3a14 14 0 0 0 4 3l4-3a14 14 0 0 0 4 3l4-3a14 14 0 0 0 4 3l4-3a14 14 0 0 0 4 3l4-3a14 14 0 0 0 4 3c.3-2.1 1.2-2.5 2.5-1v29c-10.5.7-21 0-31.5-2l-1 1-5.5-2c-1.8.7-3.7.4-5.5-1-29-3.2-55.6-13-80-29l-3 1c-4.7-2.2-8.2-5-10.5-8.5l-16-11a193 193 0 0 0-21-19.5c-1.8-.6-3.4-1.4-5-2.5A65 65 0 0 0 64 397.5c-9.2-14.1-18.2-28.5-27-43-1.5-6-3.8-11.7-7-17l-1.5-8Z" style="opacity:.729"/>
  <path fill="#0d6f3a" d="M449.5 422.5c-1.3 3-3.3 5.3-6 7-4.4-3.8-8.9-3.8-13.5 0l-1-1c-13.4 7.6-27 15.1-40.5 22.5a299.6 299.6 0 0 1-133 34.5v-20c4.2.3 8.2 0 12-1 2.8.2 5.4-.1 8-1h3c-.7.9-1.7 1.2-3 1a35 35 0 0 0 1.5 14l1-5 1 1c1.3-2.7 2.7-2.7 4 0 1.3-1.3 2.7-1.3 4 0l1.5-1.5c-2.4-.5-2.6-1.3-.5-2.5l3 4c1.3-1.3 2.7-1.3 4 0l1.5-1.5c-2.4-.5-2.6-1.3-.5-2.5l3 4c1.3-1.3 2.7-1.3 4 0l1.5-1.5c-2.4-.5-2.6-1.3-.5-2.5l3 4c1.3-1.3 2.7-1.3 4 0 2.1-1.2 2-2-.5-2.5 1.7-1.6 3-1 4 1.5 3.8-1.4 7.7-2.8 11.5-4 1.1 1 2.1.6 3-1 1.6 0 3.2.3 5 1 .9-1.6 1.9-2 3-1l9-4a4 4 0 0 1 2 1l8-4c1.6.6 2.9-.1 4-2h5c3-2.7 6.3-4.7 10-6l1 1c19.8-10.9 39.2-21.9 58-33 1.1 1 2.1.6 3-1a8.5 8.5 0 0 0 8 0c.4 1.2 1 2.2 2 3 .3-2.1 1.2-2.5 2.5-1Z" style="opacity:.729"/>
  <path fill="#062012" d="M324.5 502.5a324.3 324.3 0 0 1-47 9h-45a261 261 0 0 1-134-53l1.5-3c16.7 12 34.4 22.4 53 31l1-1c1 2.1 2.3 2.8 4 2 .6 2 1.6 2.3 3 1 .9 1.6 1.9 2 3 1a85 85 0 0 0 20 6c1 1.4 2.4 2.4 4 3 3.2-.8 6.2 0 9 2h6.5c.7.5 1.2 1.2 1.5 2l3-1c3.8.6 7.4 1.6 11 3l1-1c3 .8 6.2 1.3 9.5 1.5l1.5 1.5h48c7.2-2.4 14.2-3 21-2 8-1.9 16-3.5 24-5 .5 1 .6 2 .5 3Z" style="opacity:.69"/>
  <path fill="#084625" d="M36.5 136.5a393.5 393.5 0 0 1-12.5 30 612.5 612.5 0 0 0-10 41c-6.4 39.2-4 77.9 7 116 1.6 4.4 3.8 8.4 6.5 12 6.4 19.5 16 37.2 28.5 53 1.8 4.3 4.1 8.3 7 12 5.5 4 9.8 9 13 15 7.4 7.6 15 15 22.5 22a222 222 0 0 0 100 50c5.7 2 11.7 3.6 18 4.5 38.3 5.5 76 2.8 113-8 23.8-7.5 47.3-15.6 70.5-24.5h4c1 .9 1.9 1.9 2.5 3-5.1 4.4-10.8 8-17 11-.1-.6-.4-1.1-1-1.5-3.3-.7-6.7-.7-10 0-31.9 11-64.4 19-97.5 24.5-19.2.3-39-.2-59.5-1.5a714.2 714.2 0 0 0-40-9c-8.4-2.7-16.7-5.6-25-8.5a268.5 268.5 0 0 1-117-105 258.3 258.3 0 0 1-29.5-156 222.2 222.2 0 0 1 26.5-80Z" style="opacity:.729"/>
  <path fill="#072e19" d="M146.5 476.5a257.9 257.9 0 0 0 168 17.5c14.8-4.3 29.8-7.4 45-9.5 2.8 0 5.1.7 7 2l-8 4a22.3 22.3 0 0 0-10-3c-35 10.6-71 15.4-108 14.5-33.3-2-64.6-10.5-94-25.5Z" style="opacity:.723"/>
  <path fill="#0b542d" d="M98.5 437.5h2a33 33 0 0 0 6 2.5 255.6 255.6 0 0 0 112 48.5c4.8 1.2 9.8 2 15 2.5 40.4 3 79.8-2.6 118-17 21.6-9.4 43.1-18.3 64.5-26.5 2 .3 4.1 1 6.5 2l-9 8a6.6 6.6 0 0 0-5.5-3c-2.4.4-4.8 1-7 2l-1-1c-17.2 7.5-34.7 14.7-52.5 21.5a274.3 274.3 0 0 1-119 15c-10.3-1.7-20.3-3.2-30-4.5a222 222 0 0 1-100-50Z" style="opacity:.729"/>
  <path fill="#083c20" d="M389.5 473.5c-2.3 2.2-5 3.8-8 5a8.3 8.3 0 0 0-8-1.5c-26.5 7-53.2 13.3-80 19a272.6 272.6 0 0 1-91-3 178.2 178.2 0 0 1-46-15.5c8.3 3 16.6 5.8 25 8.5 13.4 2.6 26.8 5.6 40 9 20.4 1.3 40.3 1.8 59.5 1.5a596.4 596.4 0 0 0 97.5-24.5c3.3-.7 6.7-.7 10 0 .6.4.9.9 1 1.5Z" style="opacity:.729"/>
</svg>
