<?xml version="1.0" encoding="UTF-8" standalone="no"?>
<!DOCTYPE svg PUBLIC "-//W3C//DTD SVG 1.1//EN" "http://www.w3.org/Graphics/SVG/1.1/DTD/svg11.dtd">
<svg xmlns="http://www.w3.org/2000/svg" version="1.1" viewBox="0.00 0.00 782.00 173.00">
  <path fill="#FFFFFF" d="
  M 461.01 0.00
  L 782.00 0.00
  L 782.00 25.43
  L 461.45 25.42
  Q 460.86 25.42 460.87 24.83
  L 461.01 0.00
  Z" />
  <path fill="#FFFFFF" d="
  M 15.03 75.20
  A 0.43 0.43 0.0 0 0 15.84 75.41
  C 26.51 56.66 44.28 45.37 66.37 47.70
  C 82.44 49.40 93.54 60.81 96.21 76.82
  A 0.63 0.62 -34.7 0 0 97.37 77.03
  C 108.61 57.35 125.81 45.06 149.26 47.66
  C 174.74 50.49 179.63 77.93 179.80 99.06
  Q 180.07 134.17 180.00 169.25
  A 0.50 0.50 0.0 0 1 179.50 169.75
  L 164.77 169.75
  Q 164.21 169.75 164.21 169.20
  Q 164.28 136.07 164.39 103.02
  Q 164.44 87.76 159.71 75.81
  C 153.23 59.44 132.34 58.53 119.32 66.82
  C 108.28 73.85 98.03 87.39 98.01 101.16
  Q 97.98 135.20 98.01 169.24
  A 0.52 0.51 -0.0 0 1 97.49 169.75
  L 83.25 169.75
  A 1.02 1.02 0.0 0 1 82.23 168.73
  Q 82.31 135.34 82.19 101.51
  C 82.15 91.11 80.77 78.05 74.80 70.23
  C 68.11 61.45 55.76 60.00 45.54 63.15
  C 31.50 67.48 16.62 84.46 16.56 99.64
  Q 16.43 134.43 16.53 169.14
  A 0.65 0.65 0.0 0 1 15.88 169.79
  L 0.79 169.65
  Q 0.17 169.65 0.17 169.04
  L 0.45 49.90
  Q 0.45 49.25 1.10 49.25
  L 14.37 49.25
  Q 14.99 49.25 14.99 49.87
  L 15.03 75.20
  Z" />
  <path fill="#FFFFFF" d="
  M 390.69 173.00
  L 388.68 173.00
  C 371.07 171.35 353.32 165.71 340.93 152.51
  A 0.75 0.74 -51.2 0 1 340.84 151.61
  L 346.48 142.46
  A 0.90 0.90 0.0 0 1 347.82 142.24
  C 363.46 155.19 378.16 161.76 399.01 158.51
  C 411.23 156.60 421.71 149.38 420.77 135.51
  C 420.15 126.34 411.75 122.32 404.02 120.18
  Q 395.49 117.83 386.99 115.36
  C 372.85 111.27 352.46 107.13 348.24 90.27
  Q 346.26 82.34 348.53 73.56
  C 352.08 59.82 364.18 52.04 377.28 49.09
  C 397.31 44.59 419.01 48.27 433.88 63.21
  A 0.83 0.82 -50.0 0 1 433.97 64.27
  L 427.43 73.57
  A 0.70 0.70 0.0 0 1 426.40 73.69
  Q 405.21 54.95 377.96 62.32
  C 367.40 65.18 361.63 71.33 362.29 82.51
  C 362.86 92.09 371.89 96.10 380.26 98.71
  Q 395.09 103.33 409.93 107.91
  C 428.40 113.62 440.15 123.78 435.08 145.05
  C 430.32 165.02 408.44 171.42 390.69 173.00
  Z" />
  <path fill="#FFFFFF" d="
  M 565.65 173.00
  L 563.18 173.00
  Q 555.42 172.11 546.17 169.08
  C 517.20 159.59 501.08 130.06 504.86 100.81
  C 508.32 73.98 527.11 51.67 554.76 48.09
  C 578.94 44.95 601.01 53.21 613.18 75.02
  A 0.76 0.76 0.0 0 1 612.75 76.11
  L 598.84 80.54
  Q 598.30 80.71 598.00 80.23
  C 584.82 59.32 557.03 55.06 537.67 70.46
  C 513.01 90.09 515.03 130.28 539.30 149.51
  C 556.98 163.51 588.03 160.38 599.06 138.18
  A 0.69 0.68 -68.1 0 1 599.87 137.83
  L 613.48 141.95
  Q 614.86 142.36 614.23 143.66
  C 605.23 162.08 585.32 171.28 565.65 173.00
  Z" />
  <path fill="#FFFFFF" d="
  M 672.44 173.00
  L 668.67 173.00
  C 646.27 169.49 628.54 156.54 630.01 132.02
  C 630.82 118.48 641.13 108.21 653.43 103.44
  C 672.45 96.06 695.90 97.20 715.39 103.76
  A 0.32 0.32 0.0 0 0 715.81 103.46
  C 715.80 97.24 716.01 90.23 714.62 84.59
  Q 710.27 66.83 693.42 62.04
  C 676.39 57.20 658.10 64.30 644.19 73.85
  A 1.13 1.13 0.0 0 1 642.55 73.46
  L 637.62 64.35
  Q 637.16 63.51 637.96 62.98
  C 654.90 51.60 674.00 44.79 694.54 48.36
  C 718.11 52.46 731.04 70.70 731.26 94.06
  Q 731.54 122.41 731.50 150.76
  Q 731.49 156.53 736.65 157.28
  A 0.71 0.70 -85.8 0 1 737.25 157.98
  L 737.25 168.75
  A 1.11 1.11 0.0 0 1 736.35 169.84
  C 732.11 170.65 727.18 170.65 723.55 168.29
  C 717.64 164.44 718.06 158.65 717.97 152.26
  Q 717.94 150.09 716.52 151.73
  C 705.34 164.59 689.65 170.89 672.44 173.00
  Z
  M 676.18 109.39
  C 663.48 110.35 646.84 116.15 645.00 131.09
  C 643.84 140.49 649.01 150.06 656.76 155.18
  C 674.51 166.90 706.75 156.84 714.73 136.75
  C 716.85 131.43 715.71 122.28 715.77 116.51
  A 1.61 1.60 10.8 0 0 714.74 115.00
  Q 696.15 107.89 676.18 109.39
  Z" />
  <path fill="#FFFFFF" d="
  M 234.65 147.82
  C 243.43 160.74 261.08 160.09 274.18 153.57
  Q 291.49 144.97 298.20 127.18
  Q 299.28 124.30 299.28 120.66
  Q 299.21 85.19 299.26 49.75
  Q 299.27 49.25 299.77 49.25
  L 314.25 49.25
  A 0.74 0.74 0.0 0 1 314.99 49.99
  Q 315.00 100.66 315.05 151.51
  Q 315.05 156.57 319.97 157.15
  A 0.62 0.61 -86.3 0 1 320.50 157.76
  L 320.50 168.99
  A 0.62 0.61 81.8 0 1 320.06 169.58
  C 312.69 171.71 303.27 168.77 302.00 160.21
  Q 300.81 152.18 301.14 144.27
  A 0.56 0.56 0.0 0 0 300.11 143.95
  C 290.44 159.59 276.15 167.94 258.24 172.23
  C 250.70 174.04 239.71 171.20 233.32 168.42
  C 214.06 160.03 212.09 133.17 212.04 115.37
  Q 211.95 82.72 212.02 50.22
  A 0.97 0.97 0.0 0 1 212.99 49.25
  L 227.24 49.25
  Q 227.76 49.25 227.76 49.77
  Q 227.71 82.90 227.80 115.99
  C 227.83 126.95 228.83 139.26 234.65 147.82
  Z" />
  <rect fill="#FFFFFF" x="462.24" y="49.26" width="15.76" height="120.48" rx="0.65" />
  <rect fill="#FFFFFF" x="765.50" y="49.26" width="15.76" height="120.48" rx="0.65" />
</svg>