<?xml version="1.0" encoding="UTF-8" standalone="no"?>
<!DOCTYPE svg PUBLIC "-//W3C//DTD SVG 1.1//EN" "http://www.w3.org/Graphics/SVG/1.1/DTD/svg11.dtd">
<svg xmlns="http://www.w3.org/2000/svg" version="1.1" viewBox="0.00 0.00 217.00 217.00">
<rect fill="#fbfcfc" x="21.00" y="25.00" width="18.00" height="168.00" rx="0.51"/>
<rect fill="#fbfcfc" x="179.00" y="24.99" width="18.00" height="168.00" rx="0.74"/>
<path fill="#fbfcfc" d="
  M 95.30 81.50
  A 0.32 0.32 0.0 0 0 95.87 81.66
  Q 103.39 71.85 114.75 70.01
  C 131.35 67.32 142.07 76.47 146.01 91.92
  C 150.62 109.99 150.28 139.96 131.64 151.23
  C 120.91 157.72 106.07 155.81 97.11 146.49
  Q 96.50 145.85 96.50 146.73
  L 96.50 183.76
  Q 96.50 184.27 95.99 184.33
  L 79.87 186.18
  Q 79.25 186.26 79.25 185.63
  L 79.25 72.25
  A 0.50 0.50 0.0 0 1 79.75 71.75
  L 93.41 71.75
  Q 94.33 71.75 94.42 72.67
  L 95.30 81.50
  Z
  M 129.59 122.77
  C 131.14 113.04 131.90 86.89 118.74 83.50
  C 108.60 80.89 102.34 86.57 96.86 94.05
  Q 96.50 94.54 96.50 95.15
  L 96.50 131.75
  Q 96.50 132.25 96.78 132.66
  C 100.47 138.11 105.83 141.37 112.54 141.37
  C 123.90 141.37 127.95 133.07 129.59 122.77
  Z"
/>
</svg>
