<svg width="555" height="555" viewBox="0 0 555 555" fill="none" xmlns="http://www.w3.org/2000/svg">
<rect width="555" height="555" rx="86" fill="white"/>
<path fill-rule="evenodd" clip-rule="evenodd" d="M227.879 84.3019C227.879 84.4681 225.672 84.6889 222.975 84.7923C220.277 84.896 216.874 85.1271 215.411 85.306C213.948 85.4849 210.843 85.815 208.512 86.0398C206.18 86.2642 204.273 86.5704 204.273 86.7204C204.273 86.87 203.524 86.9923 202.61 86.9923C201.696 86.9923 200.948 87.1419 200.948 87.3248C200.948 87.5077 200.304 87.6573 199.518 87.6573C198.732 87.6573 197.946 87.7916 197.773 87.9559C197.599 88.1198 196.821 88.3442 196.044 88.4546C192.564 88.9477 191.971 89.0727 191.971 89.3117C191.971 89.4517 191.037 89.6718 189.896 89.8011C188.755 89.9301 187.67 90.1552 187.486 90.3009C187.17 90.5502 186.31 90.7567 183.739 91.2009C183.143 91.304 182.573 91.5211 182.472 91.6836C182.372 91.8466 181.85 91.9796 181.312 91.9796C180.774 91.9796 180.334 92.1292 180.334 92.312C180.334 92.4949 180.008 92.6445 179.609 92.6445C178.912 92.6445 177.234 93.104 175.845 93.6752C175.48 93.8258 174.358 94.1899 173.352 94.4845C172.346 94.7787 171.299 95.1335 171.024 95.2724C170.75 95.4114 169.815 95.7326 168.946 95.986C168.078 96.2396 167.367 96.5638 167.367 96.7068C167.367 96.8498 167.005 96.9668 166.564 96.9668C166.122 96.9668 165.71 97.0788 165.649 97.2161C165.546 97.4479 163.687 98.2189 161.133 99.0887C160.539 99.2912 160.053 99.5698 160.053 99.7081C160.053 99.8461 159.678 99.9591 159.221 99.9591C158.764 99.9591 158.39 100.109 158.39 100.292C158.39 100.474 158.169 100.624 157.9 100.624C157.63 100.624 156.439 101.148 155.254 101.788C154.069 102.428 152.868 102.951 152.586 102.951C152.304 102.951 152.073 103.101 152.073 103.284C152.073 103.467 151.774 103.616 151.408 103.616C151.042 103.616 150.743 103.738 150.743 103.887C150.743 104.036 150.219 104.363 149.579 104.614C148.939 104.865 148.416 105.18 148.416 105.314C148.416 105.449 147.93 105.665 147.335 105.796C146.741 105.926 146.013 106.312 145.717 106.653C145.421 106.994 144.935 107.274 144.636 107.274C144.338 107.274 144.093 107.423 144.093 107.606C144.093 107.789 143.869 107.939 143.595 107.939C143.32 107.939 143.096 108.055 143.096 108.198C143.096 108.341 142.684 108.63 142.182 108.84C140.984 109.34 139.302 110.366 139.162 110.682C139.101 110.819 138.907 110.931 138.732 110.931C138.557 110.931 138.092 111.23 137.7 111.596C137.307 111.962 136.79 112.261 136.55 112.261C136.31 112.261 136.114 112.378 136.114 112.522C136.114 112.665 135.627 113.066 135.033 113.412C134.439 113.759 133.711 114.315 133.415 114.648C133.119 114.981 132.708 115.253 132.501 115.253C132.294 115.253 132.124 115.403 132.124 115.586C132.124 115.769 131.9 115.918 131.625 115.918C131.351 115.918 131.127 116.068 131.127 116.251C131.127 116.434 130.977 116.583 130.795 116.583C130.613 116.583 129.908 117.107 129.229 117.747C128.551 118.387 127.88 118.911 127.738 118.911C127.597 118.911 126.779 119.584 125.92 120.407C125.061 121.23 124.232 121.903 124.078 121.903C123.924 121.903 122.962 122.71 121.941 123.697C119.946 125.624 119.992 125.578 118.254 127.317C117.614 127.957 116.96 128.609 116.801 128.766C115.013 130.53 112.508 133.303 112.508 133.518C112.508 133.669 111.947 134.376 111.261 135.089C110.575 135.802 109.573 136.98 109.034 137.706C108.495 138.432 107.964 139.1 107.853 139.192C107.743 139.283 107.136 140.103 106.506 141.013C105.2 142.896 104.863 143.349 104.279 144.001C104.05 144.256 103.863 144.591 103.863 144.747C103.863 144.903 103.564 145.245 103.198 145.509C102.832 145.773 102.533 146.186 102.533 146.428C102.533 146.669 102.241 147.18 101.885 147.563C101.528 147.945 101 148.725 100.712 149.294C100.123 150.456 99.4584 151.576 99.2084 151.826C98.8796 152.155 97.8336 154 97.6531 154.569C97.5513 154.889 97.3432 155.151 97.1899 155.151C97.0367 155.151 96.8129 155.675 96.6929 156.315C96.5729 156.955 96.3693 157.478 96.241 157.478C96.1127 157.478 95.8021 158.002 95.5511 158.642C95.3001 159.282 94.9729 159.806 94.824 159.806C94.6754 159.806 94.5537 160.105 94.5537 160.471C94.5537 160.836 94.4041 161.136 94.2212 161.136C94.0383 161.136 93.8887 161.355 93.8887 161.623C93.8887 162.224 92.8175 164.586 92.4757 164.737C92.3387 164.799 92.2263 165.135 92.2263 165.486C92.2263 165.836 92.0767 166.123 91.8938 166.123C91.711 166.123 91.5613 166.497 91.5613 166.954C91.5613 167.411 91.4117 167.785 91.2289 167.785C91.046 167.785 90.8964 168.085 90.8964 168.45C90.8964 168.816 90.7468 169.115 90.5639 169.115C90.381 169.115 90.2314 169.429 90.2314 169.813C90.2314 170.197 90.028 170.982 89.7796 171.559C88.7782 173.879 88.569 174.494 88.569 175.116C88.569 175.473 88.4194 175.765 88.2365 175.765C88.0537 175.765 87.9041 176.214 87.9041 176.762C87.9041 177.311 87.7544 177.76 87.5716 177.76C87.3887 177.76 87.2391 178.125 87.2391 178.571C87.2391 179.018 87.0895 179.475 86.9066 179.588C86.7237 179.701 86.5741 180.15 86.5741 180.586C86.5741 181.021 86.4245 181.47 86.2416 181.583C86.0588 181.696 85.9092 182.145 85.9092 182.581C85.9092 183.016 85.7792 183.453 85.6206 183.551C85.4617 183.649 85.2276 184.514 85.1006 185.474C84.9733 186.434 84.7478 187.372 84.5995 187.56C84.3269 187.905 84.0259 189.206 83.6941 191.477C83.5937 192.164 83.3777 192.808 83.2141 192.909C83.0505 193.01 82.9168 193.653 82.9168 194.337C82.9168 195.021 82.7825 195.723 82.6183 195.897C82.4543 196.07 82.2479 196.811 82.1597 197.542C82.0716 198.274 81.7455 200.294 81.435 202.031C80.1523 209.203 79.8803 211.459 79.1904 220.65C78.7116 227.03 78.7193 233.679 79.213 239.768C79.9036 248.285 80.1416 250.114 81.4632 257.057C81.7418 258.52 82.049 260.278 82.1458 260.963C82.2425 261.649 82.4557 262.21 82.6193 262.21C82.7828 262.21 82.9168 262.734 82.9168 263.374C82.9168 264.014 83.0664 264.537 83.2493 264.537C83.4322 264.537 83.5818 264.988 83.5818 265.54C83.5818 266.09 83.7168 266.801 83.8821 267.119C84.047 267.436 84.3389 268.294 84.531 269.026C85.3616 272.19 86.0265 274.213 86.2905 274.376C86.4464 274.472 86.5741 274.916 86.5741 275.363C86.5741 275.809 86.7237 276.174 86.9066 276.174C87.0895 276.174 87.2391 276.623 87.2391 277.172C87.2391 277.72 87.3887 278.169 87.5716 278.169C87.7544 278.169 87.9041 278.468 87.9041 278.834C87.9041 279.2 88.0537 279.499 88.2365 279.499C88.4194 279.499 88.5706 279.836 88.573 280.247C88.5753 280.658 88.9493 281.646 89.4042 282.442C89.859 283.238 90.2314 284.173 90.2314 284.52C90.2314 284.867 90.381 285.151 90.5639 285.151C90.7468 285.151 90.8964 285.451 90.8964 285.816C90.8964 286.182 91.046 286.481 91.2289 286.481C91.4117 286.481 91.5613 286.708 91.5613 286.985C91.5613 287.463 92.1838 288.786 92.5761 289.141C92.8773 289.414 93.8887 291.705 93.8887 292.114C93.8887 292.323 94.188 292.815 94.5537 293.207C94.9194 293.6 95.2186 294.117 95.2186 294.357C95.2186 294.597 95.3683 294.793 95.5511 294.793C95.734 294.793 95.8836 295.018 95.8836 295.292C95.8836 295.566 96.0332 295.791 96.2161 295.791C96.399 295.791 96.5486 296.079 96.5486 296.432C96.5486 296.784 96.773 297.298 97.0473 297.572C97.3216 297.846 97.546 298.231 97.546 298.427C97.546 298.623 97.6956 298.783 97.8785 298.783C98.0614 298.783 98.211 299.049 98.211 299.375C98.211 299.7 98.5102 300.182 98.8759 300.445C99.2417 300.709 99.5409 301.045 99.5409 301.191C99.5409 301.541 101.298 304.237 101.619 304.38C101.756 304.441 101.868 304.703 101.868 304.962C101.868 305.221 101.993 305.433 102.145 305.433C102.297 305.433 102.633 305.844 102.893 306.347C103.152 306.85 103.701 307.605 104.113 308.024C104.524 308.444 104.861 308.908 104.861 309.056C104.861 309.203 105.309 309.793 105.858 310.368C106.407 310.942 106.855 311.537 106.855 311.692C106.855 311.846 107.454 312.62 108.185 313.412C108.917 314.205 109.515 314.964 109.515 315.099C109.515 315.234 110.263 316.121 111.178 317.07C112.092 318.018 112.84 318.972 112.84 319.188C112.84 319.405 113.166 319.803 113.563 320.071C113.961 320.34 114.747 321.07 115.309 321.692C117.083 323.656 124.92 331.367 126.263 332.47C126.972 333.052 128.291 334.238 129.195 335.107C130.099 335.975 131.02 336.686 131.242 336.686C131.463 336.686 131.86 336.985 132.124 337.351C132.388 337.717 132.87 338.016 133.195 338.016C133.52 338.016 133.786 338.165 133.786 338.348C133.786 338.538 134.778 338.681 136.095 338.681C138.367 338.681 140.031 338.082 141.374 336.779C141.616 336.545 141.967 336.353 142.155 336.353C142.343 336.353 142.916 335.905 143.428 335.356C143.941 334.807 144.456 334.359 144.573 334.359C144.691 334.359 144.967 334.211 145.188 334.031C147.047 332.516 147.721 332.031 147.975 332.031C148.136 332.031 148.485 331.732 148.748 331.366C149.012 331 149.419 330.701 149.653 330.701C149.887 330.701 150.078 330.582 150.078 330.435C150.078 330.289 150.751 329.743 151.574 329.223C152.397 328.703 153.07 328.16 153.07 328.015C153.07 327.871 153.374 327.657 153.746 327.539C154.118 327.421 154.784 326.962 155.227 326.519C155.67 326.076 156.134 325.714 156.257 325.714C156.381 325.714 157.211 325.19 158.102 324.55C158.993 323.91 159.871 323.387 160.053 323.387C160.236 323.387 160.385 323.262 160.385 323.11C160.385 322.958 160.797 322.622 161.299 322.362C161.802 322.103 162.51 321.623 162.872 321.296C163.234 320.969 163.87 320.616 164.285 320.512C164.7 320.408 165.04 320.189 165.04 320.026C165.04 319.863 165.264 319.729 165.538 319.729C165.813 319.729 166.037 319.605 166.037 319.453C166.037 319.301 166.449 318.964 166.952 318.705C168.147 318.088 169.016 317.375 170.023 316.183C170.591 315.511 170.622 311.453 170.062 311.107C169.877 310.992 169.625 310.267 169.501 309.496C169.378 308.724 169.147 308.093 168.987 308.093C168.827 308.093 168.697 307.718 168.697 307.261C168.697 306.804 168.547 306.43 168.365 306.43C168.182 306.43 168.032 306.065 168.032 305.618C168.032 305.172 167.882 304.714 167.7 304.601C167.517 304.488 167.367 304.031 167.367 303.584C167.367 303.138 167.218 302.773 167.035 302.773C166.852 302.773 166.702 302.546 166.702 302.269C166.702 301.993 166.571 301.506 166.411 301.189C166.25 300.871 165.97 300.088 165.788 299.448C164.906 296.339 163.607 292.238 163.342 291.722C163.179 291.405 163.045 290.778 163.045 290.329C163.045 289.88 162.895 289.42 162.712 289.307C162.53 289.194 162.38 288.587 162.38 287.958C162.38 287.328 162.23 286.814 162.047 286.814C161.865 286.814 161.715 286.363 161.715 285.812C161.715 285.261 161.582 284.55 161.42 284.232C161.257 283.915 160.944 282.757 160.724 281.66C160.505 280.563 160.175 279.067 159.99 278.335C159.807 277.604 159.581 276.295 159.49 275.426C159.398 274.558 159.188 273.847 159.023 273.847C158.858 273.847 158.723 273.099 158.723 272.185C158.723 271.27 158.573 270.522 158.39 270.522C158.207 270.522 158.058 270.011 158.058 269.386C158.058 268.761 157.685 265.881 157.23 262.986C156.775 260.09 156.401 256.787 156.399 255.644C156.397 254.482 156.249 253.566 156.063 253.566C155.861 253.566 155.73 252.134 155.73 249.936C155.73 247.651 155.598 246.262 155.374 246.188C154.876 246.022 154.878 212.234 155.377 212.068C155.598 211.994 155.73 210.589 155.73 208.32C155.73 206.122 155.861 204.691 156.063 204.691C156.253 204.691 156.4 203.659 156.406 202.28C156.415 199.981 156.621 198.022 157.417 192.638C157.612 191.313 157.853 189.33 157.951 188.233C158.05 187.136 158.263 186.096 158.426 185.922C158.589 185.748 158.723 184.813 158.723 183.844C158.723 182.875 158.854 182.082 159.015 182.082C159.176 182.082 159.393 181.222 159.498 180.17C159.602 179.119 159.857 177.436 160.064 176.43C160.816 172.772 161.424 169.586 161.603 168.365C161.703 167.678 161.919 167.034 162.083 166.933C162.246 166.831 162.38 166.168 162.38 165.458C162.38 164.748 162.53 164.075 162.712 163.962C162.895 163.849 163.045 163.167 163.045 162.446C163.045 161.725 163.194 161.136 163.377 161.136C163.56 161.136 163.71 160.612 163.71 159.972C163.71 159.332 163.859 158.808 164.042 158.808C164.225 158.808 164.375 158.389 164.375 157.877C164.375 157.365 164.746 155.681 165.199 154.137C165.652 152.592 166.026 151.065 166.03 150.746C166.034 150.426 166.187 150.164 166.37 150.164C166.553 150.164 166.702 149.715 166.702 149.166C166.702 148.618 166.852 148.169 167.035 148.169C167.218 148.169 167.367 147.795 167.367 147.338C167.367 146.881 167.517 146.507 167.7 146.507C167.882 146.507 168.032 146.207 168.032 145.842C168.032 145.476 168.182 145.177 168.365 145.177C168.547 145.177 168.697 144.894 168.697 144.55C168.697 144.205 168.92 143.494 169.194 142.97C169.467 142.447 169.691 141.756 169.692 141.436C169.693 141.116 169.844 140.854 170.027 140.854C170.21 140.854 170.359 140.555 170.359 140.189C170.359 139.824 170.509 139.524 170.692 139.524C170.875 139.524 171.024 139.3 171.024 139.026C171.024 138.751 171.174 138.527 171.357 138.527C171.54 138.527 171.689 138.228 171.689 137.862C171.689 137.496 171.839 137.197 172.022 137.197C172.205 137.197 172.354 136.962 172.354 136.674C172.354 136.098 174.005 133.106 174.42 132.93C174.564 132.869 174.682 132.533 174.682 132.182C174.682 131.831 174.821 131.545 174.992 131.545C175.163 131.545 175.386 131.283 175.489 130.963C175.592 130.643 176.125 129.858 176.674 129.217C177.223 128.577 177.673 127.943 177.673 127.808C177.674 127.544 178.301 126.745 179.752 125.159C180.255 124.61 180.666 124.036 180.666 123.885C180.666 123.734 180.966 123.515 181.331 123.399C181.697 123.283 181.996 122.977 181.996 122.719C181.996 122.27 186.705 117.461 188.492 116.084C189.329 115.44 190.886 114.142 192.029 113.134C192.335 112.864 192.924 112.462 193.338 112.241C193.752 112.02 194.399 111.55 194.776 111.197C195.153 110.844 195.985 110.311 196.625 110.012C197.266 109.714 197.864 109.38 197.955 109.27C198.332 108.818 201.271 107.274 201.755 107.274C202.043 107.274 202.278 107.124 202.278 106.941C202.278 106.758 202.502 106.609 202.776 106.609C203.051 106.609 203.275 106.459 203.275 106.276C203.275 106.093 203.464 105.944 203.696 105.944C203.927 105.944 205.04 105.493 206.17 104.942C207.299 104.391 208.681 103.848 209.24 103.737C209.8 103.625 210.257 103.402 210.257 103.242C210.257 103.082 210.622 102.951 211.069 102.951C211.515 102.951 211.973 102.802 212.086 102.619C212.199 102.436 212.656 102.286 213.103 102.286C213.549 102.286 213.915 102.137 213.915 101.954C213.915 101.771 214.413 101.622 215.023 101.622C215.632 101.622 216.242 101.509 216.377 101.372C216.704 101.041 221.161 100.277 223.972 100.07C225.207 99.9791 226.216 99.7673 226.216 99.5994C226.216 99.1735 238.753 99.2004 239.017 99.6266C239.13 99.8095 240.177 99.9591 241.344 99.9591C242.511 99.9591 243.548 100.091 243.647 100.252C243.747 100.413 244.953 100.65 246.327 100.779C247.701 100.908 248.825 101.15 248.825 101.317C248.825 101.485 249.349 101.622 249.989 101.622C250.629 101.622 251.152 101.771 251.152 101.954C251.152 102.137 251.601 102.286 252.15 102.286C252.699 102.286 253.147 102.436 253.147 102.619C253.147 102.802 253.521 102.951 253.979 102.951C254.436 102.951 254.81 103.084 254.81 103.247C254.81 103.409 255.33 103.64 255.965 103.759C256.601 103.878 257.963 104.419 258.992 104.96C260.02 105.501 261.071 105.944 261.327 105.944C261.583 105.944 261.792 106.093 261.792 106.276C261.792 106.459 262.091 106.609 262.457 106.609C262.823 106.609 263.122 106.758 263.122 106.941C263.122 107.124 263.336 107.274 263.597 107.274C263.858 107.274 264.27 107.47 264.511 107.71C264.753 107.95 265.437 108.36 266.031 108.622C266.625 108.884 267.112 109.211 267.112 109.35C267.112 109.488 267.336 109.601 267.61 109.601C267.885 109.601 268.109 109.751 268.109 109.934C268.109 110.116 268.333 110.266 268.608 110.266C268.882 110.266 269.106 110.383 269.106 110.527C269.106 110.67 269.518 111.037 270.021 111.342C270.523 111.646 271.384 112.276 271.933 112.741C272.481 113.206 273.436 113.999 274.053 114.503C275.597 115.762 282.015 122.22 283.237 123.744C283.786 124.428 284.422 125.181 284.65 125.417C284.879 125.652 285.066 126.005 285.066 126.202C285.066 126.397 285.184 126.558 285.329 126.558C285.475 126.558 286.035 127.303 286.576 128.213C287.117 129.124 287.672 129.872 287.809 129.876C287.946 129.879 288.058 130.113 288.058 130.395C288.058 130.677 288.357 131.229 288.723 131.621C289.088 132.014 289.574 132.755 289.801 133.27C290.029 133.784 290.321 134.205 290.451 134.205C290.581 134.205 290.786 134.728 290.906 135.368C291.026 136.008 291.257 136.532 291.42 136.532C291.582 136.532 291.715 136.831 291.715 137.197C291.715 137.563 291.865 137.862 292.048 137.862C292.231 137.862 292.38 138.161 292.38 138.527C292.38 138.893 292.53 139.192 292.713 139.192C292.896 139.192 293.045 139.416 293.045 139.691C293.045 139.965 293.181 140.189 293.348 140.189C293.515 140.189 293.753 140.787 293.876 141.518C293.999 142.248 294.237 142.93 294.404 143.033C294.571 143.136 294.708 143.511 294.708 143.866C294.708 144.221 294.857 144.512 295.04 144.512C295.223 144.512 295.372 144.877 295.372 145.323C295.372 145.77 295.522 146.227 295.705 146.34C295.888 146.453 296.037 146.911 296.037 147.357C296.037 147.804 296.187 148.169 296.37 148.169C296.553 148.169 296.702 148.47 296.702 148.839C296.702 149.207 296.838 149.768 297.003 150.085C297.488 151.017 299.03 156.138 299.03 156.817C299.03 157.159 299.179 157.532 299.362 157.645C299.545 157.758 299.695 158.207 299.695 158.642C299.695 159.078 299.844 159.526 300.027 159.64C300.21 159.753 300.36 160.36 300.36 160.989C300.36 161.618 300.509 162.133 300.692 162.133C300.875 162.133 301.025 162.459 301.025 162.858C301.025 163.256 301.171 164.042 301.351 164.603C301.53 165.165 302.06 167.27 302.528 169.281C302.997 171.293 303.524 173.48 303.698 174.141C303.874 174.802 304.017 175.887 304.017 176.552C304.017 177.216 304.148 177.76 304.308 177.76C304.468 177.76 304.69 178.545 304.8 179.505C304.91 180.465 305.158 182.074 305.351 183.079C305.718 184.996 306.051 187.01 306.642 190.893C306.837 192.173 306.999 194.23 307.003 195.464C307.006 196.734 307.154 197.709 307.342 197.709C307.54 197.709 307.674 198.983 307.674 200.867C307.674 202.604 307.801 204.026 307.956 204.026C308.307 204.026 308.798 215.701 308.808 224.307C308.818 232.72 308.312 244.921 307.954 244.921C307.8 244.921 307.674 246.492 307.674 248.412C307.674 250.518 307.542 251.903 307.342 251.903C307.156 251.903 307.008 252.819 307.007 253.981C307.004 256.633 306.418 261.427 305.312 267.862C305.139 268.868 304.909 270.626 304.801 271.769C304.693 272.912 304.472 273.847 304.311 273.847C304.149 273.847 304.017 274.333 304.017 274.927C304.017 275.522 303.792 277.056 303.518 278.335C303.243 279.615 302.715 282.234 302.345 284.154C301.975 286.074 301.526 288.104 301.348 288.666C301.17 289.228 301.025 290.079 301.025 290.558C301.025 291.037 300.875 291.522 300.692 291.635C300.509 291.748 300.36 292.273 300.36 292.802C300.36 293.332 300.226 294.108 300.062 294.528C299.898 294.948 299.584 295.965 299.365 296.788C299.145 297.611 298.606 299.439 298.167 300.849C297.727 302.26 297.367 303.644 297.367 303.925C297.367 304.205 297.218 304.435 297.035 304.435C296.852 304.435 296.702 304.809 296.702 305.266C296.702 305.724 296.553 306.098 296.37 306.098C296.187 306.098 296.037 306.399 296.037 306.767C296.037 307.135 295.905 307.697 295.744 308.014C295.582 308.332 295.298 308.965 295.113 309.422C294.927 309.88 294.536 310.8 294.243 311.468C293.95 312.135 293.71 312.921 293.71 313.213C293.71 313.506 293.56 313.745 293.378 313.745C293.195 313.745 293.045 314.044 293.045 314.41C293.045 314.775 292.896 315.075 292.713 315.075C292.53 315.075 292.38 315.299 292.38 315.573C292.38 315.848 292.231 316.072 292.048 316.072C291.865 316.072 291.715 316.371 291.715 316.737C291.715 317.103 291.582 317.402 291.42 317.402C291.257 317.402 291.026 317.926 290.906 318.566C290.786 319.206 290.545 319.729 290.37 319.729C290.196 319.729 290.053 319.926 290.053 320.165C290.053 320.405 289.754 320.923 289.388 321.315C289.022 321.708 288.723 322.185 288.723 322.375C288.723 322.566 288.573 322.722 288.39 322.722C288.208 322.722 288.058 323.021 288.058 323.387C288.058 323.752 287.946 324.055 287.809 324.058C287.672 324.062 287.117 324.81 286.576 325.721C286.035 326.631 285.475 327.376 285.329 327.376C285.184 327.376 285.066 327.589 285.066 327.848C285.066 328.107 284.953 328.368 284.816 328.429C284.679 328.49 283.971 329.288 283.244 330.203C281.369 332.558 274.439 339.346 273.909 339.346C273.791 339.346 273.296 339.774 272.807 340.297C272.319 340.819 271.585 341.353 271.178 341.483C270.77 341.612 270.436 341.857 270.436 342.028C270.436 342.198 270.212 342.338 269.938 342.338C269.663 342.338 269.439 342.488 269.439 342.671C269.439 342.853 269.215 343.003 268.94 343.003C268.666 343.003 268.441 343.153 268.441 343.336C268.441 343.518 268.217 343.668 267.943 343.668C267.668 343.668 267.444 343.818 267.444 344.001C267.444 344.183 267.232 344.333 266.973 344.333C266.714 344.333 266.452 344.445 266.391 344.582C266.251 344.898 264.569 345.924 263.371 346.424C262.868 346.634 262.457 346.923 262.457 347.066C262.457 347.209 262.158 347.325 261.792 347.325C261.426 347.325 261.127 347.475 261.127 347.658C261.127 347.841 260.828 347.99 260.462 347.99C260.096 347.99 259.797 348.14 259.797 348.323C259.797 348.506 259.507 348.655 259.152 348.655C258.797 348.655 258.414 348.805 258.301 348.988C258.188 349.171 257.805 349.32 257.45 349.32C257.095 349.32 256.805 349.433 256.805 349.57C256.805 349.707 255.832 350.113 254.644 350.471C253.455 350.83 252.482 351.242 252.482 351.386C252.482 351.53 252.034 351.648 251.485 351.648C250.936 351.648 250.487 351.797 250.487 351.98C250.487 352.163 250.051 352.313 249.518 352.313C248.984 352.313 248.498 352.432 248.437 352.577C248.321 352.854 243.897 353.818 240.181 354.377C236.92 354.868 223.227 354.472 220.564 353.81C219.376 353.515 217.767 353.187 216.99 353.082C216.213 352.977 215.577 352.761 215.577 352.602C215.577 352.443 215.053 352.313 214.413 352.313C213.773 352.313 213.25 352.163 213.25 351.98C213.25 351.797 213.007 351.648 212.711 351.648C211.959 351.648 206.791 349.874 206.655 349.57C206.594 349.433 206.258 349.32 205.907 349.32C205.557 349.32 205.27 349.171 205.27 348.988C205.27 348.805 204.98 348.655 204.625 348.655C204.27 348.655 203.887 348.506 203.774 348.323C203.661 348.14 203.278 347.99 202.923 347.99C202.568 347.99 202.278 347.841 202.278 347.658C202.278 347.475 201.991 347.325 201.64 347.325C201.29 347.325 200.953 347.213 200.892 347.076C200.831 346.939 199.549 346.228 198.044 345.497C196.538 344.765 195.304 344.054 195.301 343.917C195.298 343.78 195.071 343.668 194.797 343.668C194.523 343.668 194.298 343.518 194.298 343.336C194.298 343.153 194.074 343.003 193.799 343.003C193.525 343.003 193.301 342.853 193.301 342.671C193.301 342.488 193.089 342.338 192.83 342.338C192.571 342.338 192.271 342.151 192.164 341.922C191.929 341.422 192.22 344.126 192.674 346.66C192.854 347.666 193.17 349.798 193.376 351.398C193.582 352.998 193.873 354.307 194.024 354.307C194.175 354.307 194.298 354.906 194.298 355.637C194.298 356.369 194.448 356.967 194.631 356.967C194.813 356.967 194.963 357.491 194.963 358.131C194.963 358.771 195.113 359.295 195.296 359.295C195.478 359.295 195.628 359.743 195.628 360.292C195.628 360.841 195.778 361.29 195.961 361.29C196.143 361.29 196.293 361.804 196.293 362.434C196.293 363.063 196.443 363.67 196.625 363.783C196.808 363.896 196.959 364.316 196.96 364.717C196.961 365.118 197.186 365.874 197.459 366.398C197.732 366.922 197.955 367.559 197.955 367.815C197.955 368.071 198.105 368.578 198.288 368.941C198.471 369.304 198.77 369.899 198.953 370.262C199.136 370.625 199.285 371.149 199.285 371.426C199.285 371.702 199.435 371.929 199.618 371.929C199.801 371.929 199.95 372.303 199.95 372.76C199.95 373.217 200.1 373.591 200.283 373.591C200.466 373.591 200.615 373.891 200.615 374.256C200.615 374.622 200.758 374.921 200.933 374.921C201.107 374.921 201.348 375.445 201.468 376.085C201.588 376.725 201.82 377.249 201.982 377.249C202.145 377.249 202.278 377.548 202.278 377.914C202.278 378.279 202.399 378.579 202.548 378.579C202.697 378.579 203.024 379.102 203.275 379.742C203.526 380.382 203.853 380.906 204.002 380.906C204.151 380.906 204.273 381.193 204.273 381.543C204.273 381.894 204.385 382.23 204.522 382.291C204.823 382.425 206.237 384.829 206.494 385.644C206.595 385.964 206.81 386.226 206.971 386.226C207.133 386.226 207.265 386.45 207.265 386.724C207.265 386.999 207.415 387.223 207.597 387.223C207.78 387.223 207.93 387.379 207.93 387.569C207.93 387.916 209.061 389.637 209.842 390.479C210.07 390.726 210.257 391.068 210.257 391.24C210.257 391.411 210.706 392.021 211.255 392.595C211.803 393.169 212.252 393.767 212.252 393.924C212.252 394.081 212.925 394.873 213.748 395.684C214.571 396.495 215.244 397.31 215.244 397.495C215.244 398.055 222.517 405.131 226.729 408.668C227.6 409.4 228.701 410.333 229.176 410.741C230.42 411.811 230.605 411.941 231.619 412.465C232.122 412.724 232.533 413.061 232.533 413.213C232.533 413.365 232.694 413.489 232.89 413.489C233.086 413.489 233.455 413.676 233.71 413.905C234.81 414.892 235.186 415.152 235.512 415.152C235.702 415.152 235.858 415.276 235.858 415.428C235.858 415.58 236.27 415.916 236.773 416.175C237.275 416.435 237.762 416.722 237.853 416.813C237.945 416.905 238.618 417.279 239.349 417.645C240.081 418.011 240.969 418.572 241.324 418.892C241.678 419.212 242.164 419.474 242.405 419.474C242.644 419.474 242.84 419.623 242.84 419.806C242.84 419.989 243.127 420.139 243.478 420.139C243.828 420.139 244.165 420.251 244.227 420.388C244.394 420.763 247.754 422.466 248.327 422.466C248.601 422.466 248.825 422.616 248.825 422.799C248.825 422.981 249.112 423.131 249.462 423.131C249.813 423.131 250.149 423.246 250.211 423.388C250.36 423.735 255.391 426.123 255.971 426.123C256.225 426.123 256.525 426.273 256.638 426.456C256.751 426.639 257.134 426.788 257.489 426.788C257.844 426.788 258.135 426.938 258.135 427.121C258.135 427.304 258.509 427.453 258.966 427.453C259.423 427.453 259.797 427.603 259.797 427.786C259.797 427.969 260.087 428.118 260.442 428.118C260.797 428.118 261.18 428.268 261.293 428.451C261.406 428.634 261.791 428.783 262.149 428.783C262.506 428.783 263.058 428.929 263.376 429.107C264.36 429.659 268.951 431.111 269.713 431.111C270.111 431.111 270.436 431.26 270.436 431.443C270.436 431.626 270.96 431.776 271.6 431.776C272.24 431.776 272.764 431.925 272.764 432.108C272.764 432.291 273.287 432.441 273.927 432.441C274.567 432.441 275.091 432.59 275.091 432.773C275.091 432.956 275.615 433.106 276.255 433.106C276.895 433.106 277.418 433.238 277.418 433.399C277.418 433.56 278.578 433.8 279.995 433.931C281.412 434.062 282.722 434.288 282.904 434.433C283.272 434.725 285.391 435.04 288.806 435.31C290.04 435.408 291.05 435.625 291.05 435.793C291.05 435.961 292.16 436.098 293.516 436.098C295.141 436.098 296.027 436.234 296.115 436.498C296.306 437.07 327.69 437.062 327.881 436.49C327.968 436.228 328.995 436.098 330.976 436.098C332.606 436.098 333.94 435.964 333.94 435.8C333.94 435.635 335.175 435.417 336.683 435.314C338.192 435.21 340.399 434.963 341.587 434.763C342.776 434.564 345.282 434.232 347.156 434.025C349.031 433.818 350.564 433.527 350.564 433.378C350.564 433.228 351.312 433.106 352.227 433.106C353.141 433.106 353.889 432.956 353.889 432.773C353.889 432.59 354.553 432.441 355.366 432.441C356.178 432.441 356.935 432.291 357.048 432.108C357.161 431.925 357.834 431.776 358.544 431.776C359.254 431.776 359.927 431.626 360.04 431.443C360.153 431.26 360.782 431.111 361.438 431.111C363.282 431.111 367.363 429.013 367.906 427.787C368.149 427.238 368.461 426.788 368.6 426.788C368.738 426.788 368.851 425.442 368.851 423.796C368.851 422.023 368.716 420.804 368.518 420.804C368.336 420.804 368.186 420.494 368.186 420.115C368.186 419.379 367.466 418.476 366.88 418.476C366.684 418.476 366.524 418.312 366.524 418.11C366.524 417.6 361.213 418.29 360.855 418.846C360.198 419.869 333.569 419.184 332.461 418.116C332.287 417.948 331.436 417.811 330.569 417.811C329.702 417.811 328.9 417.662 328.787 417.479C328.674 417.296 327.917 417.146 327.105 417.146C326.293 417.146 325.628 416.997 325.628 416.814C325.628 416.631 325.11 416.481 324.476 416.481C323.843 416.481 322.683 416.279 321.899 416.031C321.116 415.783 319.802 415.383 318.979 415.142C318.156 414.9 317.34 414.58 317.167 414.429C316.993 414.278 316.432 414.154 315.92 414.154C315.408 414.154 314.989 414.023 314.989 413.863C314.989 413.703 314.565 413.487 314.047 413.384C312.925 413.159 308.553 411.128 308.395 410.756C308.334 410.614 307.997 410.497 307.647 410.497C307.296 410.497 307.009 410.347 307.009 410.164C307.009 409.981 306.764 409.832 306.464 409.832C306.164 409.832 304.799 409.159 303.43 408.336C302.061 407.513 300.81 406.84 300.65 406.84C300.49 406.84 300.36 406.715 300.36 406.563C300.36 406.411 299.948 406.075 299.445 405.816C298.943 405.556 298.456 405.269 298.365 405.176C298.273 405.083 297.6 404.567 296.869 404.029C296.137 403.49 295.297 402.781 295.001 402.451C294.705 402.122 294.37 401.852 294.257 401.852C294.143 401.852 293.733 401.591 293.346 401.27C292.111 400.25 284.401 392.592 284.401 392.386C284.401 392.277 283.952 391.749 283.403 391.213C282.855 390.677 282.406 390.083 282.406 389.894C282.406 389.705 282.288 389.55 282.145 389.55C282.001 389.55 281.601 389.064 281.254 388.47C280.908 387.876 280.388 387.165 280.1 386.891C279.811 386.616 279.364 385.981 279.105 385.478C278.848 384.975 278.512 384.563 278.36 384.563C278.208 384.563 278.083 384.339 278.083 384.065C278.083 383.79 277.956 383.566 277.802 383.566C277.646 383.566 277.25 382.967 276.92 382.236C276.59 381.504 276.193 380.906 276.038 380.906C275.883 380.906 275.756 380.682 275.756 380.407C275.756 380.133 275.606 379.909 275.424 379.909C275.241 379.909 275.091 379.609 275.091 379.244C275.091 378.878 274.979 378.579 274.842 378.578C274.489 378.578 272.764 375.432 272.764 374.789C272.764 374.496 272.614 374.256 272.431 374.256C272.248 374.256 272.099 374.032 272.099 373.758C272.099 373.483 271.949 373.259 271.766 373.259C271.583 373.259 271.434 372.96 271.434 372.594C271.434 372.228 271.321 371.929 271.182 371.929C270.873 371.929 270.104 369.539 270.104 368.576C270.104 367.848 272.085 365.612 272.73 365.612C272.932 365.612 273.096 365.462 273.096 365.279C273.096 365.096 273.395 364.947 273.761 364.947C274.127 364.947 274.426 364.813 274.426 364.651C274.426 364.488 274.913 364.281 275.507 364.192C276.101 364.102 277.634 363.712 278.914 363.324C280.193 362.937 281.652 362.619 282.155 362.619C282.659 362.619 283.071 362.47 283.071 362.287C283.071 362.104 283.52 361.954 284.068 361.954C284.617 361.954 285.066 361.805 285.066 361.622C285.066 361.439 285.358 361.29 285.715 361.29C286.303 361.29 286.797 361.131 288.889 360.267C290.35 359.665 292.772 358.962 293.389 358.962C293.749 358.962 294.043 358.813 294.043 358.63C294.043 358.447 294.269 358.297 294.546 358.297C294.823 358.297 295.309 358.16 295.626 357.992C297.038 357.246 299.493 356.259 300.384 356.081C300.919 355.974 301.357 355.756 301.357 355.596C301.357 355.436 301.656 355.305 302.022 355.305C302.388 355.305 302.687 355.155 302.687 354.972C302.687 354.79 302.974 354.64 303.324 354.64C303.675 354.64 304.011 354.522 304.073 354.377C304.199 354.078 307.855 352.313 308.348 352.313C308.526 352.313 308.672 352.163 308.672 351.98C308.672 351.797 308.971 351.648 309.337 351.648C309.702 351.648 310.002 351.498 310.002 351.315C310.002 351.132 310.301 350.983 310.667 350.983C311.032 350.983 311.332 350.858 311.332 350.706C311.332 350.554 311.743 350.22 312.246 349.964C312.749 349.708 314.4 348.71 315.915 347.747C317.43 346.783 318.814 345.995 318.99 345.995C319.167 345.995 319.311 345.846 319.311 345.663C319.311 345.48 319.47 345.33 319.664 345.33C319.963 345.33 322.206 343.793 323.536 342.676C323.757 342.49 324.094 342.338 324.284 342.338C324.475 342.338 324.631 342.226 324.632 342.089C324.632 341.952 325.305 341.414 326.128 340.894C326.95 340.375 327.623 339.814 327.623 339.648C327.623 339.482 327.848 339.346 328.122 339.346C328.396 339.346 328.621 339.196 328.621 339.013C328.621 338.83 328.775 338.681 328.964 338.681C329.153 338.681 329.832 338.157 330.472 337.517C331.112 336.877 331.784 336.353 331.965 336.353C332.147 336.353 332.942 335.718 333.732 334.94C335.293 333.404 337.596 331.366 337.771 331.366C337.993 331.366 347.24 321.958 347.24 321.732C347.24 321.603 347.875 320.811 348.653 319.971C349.43 319.131 350.365 318.053 350.731 317.576C351.096 317.098 351.882 316.195 352.476 315.569C353.07 314.944 353.557 314.303 353.557 314.146C353.557 313.989 353.931 313.509 354.388 313.08C354.845 312.65 355.219 312.166 355.219 312.005C355.219 311.757 356.997 309.287 357.556 308.757C357.652 308.666 358.326 307.657 359.052 306.516C359.778 305.375 360.485 304.44 360.622 304.438C360.759 304.437 360.871 304.239 360.871 303.999C360.871 303.759 361.133 303.265 361.453 302.9C362.181 302.072 362.689 301.267 363.422 299.78C363.738 299.14 364.265 298.375 364.595 298.079C364.924 297.783 365.194 297.297 365.194 296.999C365.194 296.7 365.343 296.456 365.526 296.456C365.709 296.456 365.859 296.169 365.859 295.818C365.859 295.468 365.971 295.131 366.108 295.07C366.44 294.923 368.186 291.403 368.186 290.881C368.186 290.656 368.336 290.471 368.518 290.471C368.701 290.471 368.851 290.172 368.851 289.806C368.851 289.44 369.001 289.141 369.183 289.141C369.366 289.141 369.516 288.948 369.516 288.713C369.516 288.476 370.04 287.279 370.68 286.052C371.32 284.824 371.843 283.596 371.843 283.322C371.843 283.048 371.993 282.824 372.176 282.824C372.359 282.824 372.508 282.543 372.508 282.201C372.508 281.858 373.032 280.428 373.672 279.023C374.312 277.619 374.836 276.179 374.836 275.824C374.836 275.468 374.985 275.177 375.168 275.177C375.351 275.177 375.501 274.812 375.501 274.365C375.501 273.919 375.65 273.461 375.833 273.348C376.016 273.235 376.165 272.786 376.165 272.351C376.165 271.915 376.315 271.466 376.498 271.353C376.681 271.24 376.83 270.783 376.83 270.336C376.83 269.89 376.98 269.525 377.163 269.525C377.346 269.525 377.495 269.197 377.495 268.796C377.495 268.173 378.046 266.14 379.51 261.355C379.682 260.794 379.823 259.933 379.823 259.443C379.823 258.954 379.972 258.553 380.155 258.553C380.338 258.553 380.488 257.879 380.488 257.057C380.488 256.234 380.623 255.56 380.788 255.56C380.953 255.56 381.17 254.85 381.269 253.981C381.368 253.113 381.603 251.504 381.79 250.407C381.977 249.31 382.288 246.841 382.481 244.921C382.674 243.001 382.991 240.233 383.186 238.77C383.95 233.02 383.109 211.687 381.817 204.026C381.616 202.837 381.371 201.079 381.271 200.119C381.172 199.159 380.956 198.374 380.789 198.374C380.623 198.374 380.488 197.7 380.488 196.877C380.488 196.055 380.352 195.381 380.188 195.381C380.022 195.381 379.812 194.67 379.72 193.802C379.524 191.94 379.217 190.484 378.825 189.563C378.67 189.197 378.466 188.524 378.371 188.067C377.841 185.491 377.391 183.874 377.128 183.595C376.964 183.421 376.83 182.86 376.83 182.348C376.83 181.836 376.681 181.417 376.498 181.417C376.315 181.417 376.165 180.968 376.165 180.42C376.165 179.871 376.016 179.422 375.833 179.422C375.65 179.422 375.501 179.057 375.501 178.611C375.501 178.164 375.351 177.707 375.168 177.594C374.985 177.48 374.836 177.111 374.836 176.772C374.836 176.434 374.312 174.933 373.672 173.438C373.032 171.942 372.508 170.508 372.508 170.249C372.508 169.991 372.359 169.78 372.176 169.78C371.993 169.78 371.843 169.518 371.843 169.197C371.843 168.877 371.32 167.535 370.68 166.215C370.04 164.896 369.516 163.662 369.516 163.474C369.516 163.285 369.366 163.131 369.183 163.131C369.001 163.131 368.851 162.831 368.851 162.466C368.851 162.1 368.701 161.801 368.518 161.801C368.336 161.801 368.186 161.501 368.186 161.136C368.186 160.77 368.072 160.471 367.932 160.471C367.665 160.471 366.524 158.044 366.524 157.476C366.524 157.295 366.374 157.146 366.191 157.146C366.008 157.146 365.859 156.922 365.859 156.647C365.859 156.373 365.737 156.148 365.588 156.148C365.439 156.148 365.112 155.625 364.861 154.985C364.61 154.345 364.283 153.821 364.134 153.821C363.985 153.821 363.864 153.597 363.864 153.322C363.864 153.048 363.73 152.824 363.567 152.824C363.404 152.824 363.185 152.484 363.081 152.069C362.977 151.654 362.587 150.987 362.214 150.587C361.841 150.186 361.536 149.661 361.536 149.42C361.536 149.178 361.237 148.765 360.871 148.501C360.506 148.238 360.206 147.831 360.206 147.597C360.206 147.363 360.067 147.171 359.896 147.171C359.726 147.171 359.496 146.886 359.385 146.537C359.274 146.188 358.743 145.403 358.204 144.792C357.666 144.18 357.222 143.548 357.219 143.387C357.216 143.226 356.951 142.852 356.629 142.556C356.306 142.26 355.604 141.42 355.066 140.688C354.529 139.957 353.82 139.116 353.491 138.821C353.161 138.525 352.892 138.179 352.892 138.053C352.892 137.861 351.404 136.161 349.65 134.349C349.422 134.113 349.234 133.83 349.234 133.72C349.234 133.5 348.268 132.45 344.636 128.725C343.296 127.35 342.141 126.225 342.071 126.225C342 126.225 341.502 125.814 340.963 125.311C340.425 124.808 339.29 123.798 338.441 123.067C337.592 122.335 336.539 121.4 336.099 120.989C335.66 120.577 335.212 120.24 335.104 120.24C334.996 120.24 334.559 119.904 334.133 119.492C333.708 119.081 332.939 118.445 332.426 118.079C331.913 117.714 331.153 117.078 330.737 116.666C330.321 116.255 329.862 115.918 329.716 115.918C329.571 115.917 328.928 115.468 328.288 114.921C327.648 114.373 327.035 113.925 326.926 113.924C326.817 113.924 326.418 113.661 326.04 113.341C324.238 111.817 323.94 111.596 323.692 111.596C323.546 111.596 323.136 111.33 322.782 111.005C322.427 110.68 321.389 109.982 320.475 109.454C319.561 108.926 318.738 108.407 318.646 108.299C318.555 108.192 318.068 107.892 317.566 107.632C317.063 107.373 316.651 107.037 316.651 106.885C316.651 106.733 316.427 106.609 316.153 106.609C315.878 106.609 315.654 106.459 315.654 106.276C315.654 106.093 315.365 105.944 315.012 105.944C314.66 105.944 314.174 105.748 313.932 105.508C313.691 105.268 313.006 104.857 312.412 104.595C311.818 104.333 311.332 104.006 311.332 103.868C311.332 103.729 311.032 103.616 310.667 103.616C310.301 103.616 310.002 103.483 310.002 103.32C310.002 103.157 309.628 102.93 309.17 102.815C308.713 102.7 308.339 102.459 308.339 102.28C308.339 102.101 308.04 101.954 307.674 101.954C307.309 101.954 307.009 101.832 307.009 101.684C307.009 101.535 306.486 101.208 305.846 100.957C305.206 100.706 304.682 100.378 304.682 100.229C304.682 100.081 304.383 99.9591 304.017 99.9591C303.651 99.9591 303.352 99.8095 303.352 99.6266C303.352 99.4438 303.146 99.2941 302.895 99.2941C302.643 99.2941 301.558 98.9108 300.484 98.4423C299.41 97.9735 298.119 97.4133 297.617 97.1972C297.114 96.9814 296.702 96.6915 296.702 96.5532C296.702 96.4149 296.476 96.3018 296.2 96.3018C295.924 96.3018 295.064 96.0179 294.288 95.6708C293.513 95.324 292.056 94.7701 291.05 94.4403C290.044 94.1101 289.08 93.7208 288.906 93.5748C288.732 93.4288 288.321 93.3095 287.991 93.3095C287.662 93.3095 287.393 93.1599 287.393 92.977C287.393 92.7941 287.028 92.6445 286.581 92.6445C286.135 92.6445 285.677 92.4949 285.564 92.312C285.451 92.1292 284.994 91.9796 284.547 91.9796C284.101 91.9796 283.736 91.8299 283.736 91.6471C283.736 91.4642 283.409 91.3146 283.011 91.3146C282.258 91.3146 280.318 90.7713 279.359 90.2915C279.055 90.1396 278.042 89.9138 277.108 89.7898C276.173 89.6658 275.328 89.4347 275.23 89.2758C275.132 89.1172 274.537 88.9872 273.908 88.9872C273.278 88.9872 272.764 88.8376 272.764 88.6547C272.764 88.4719 272.249 88.3223 271.62 88.3223C270.99 88.3223 270.383 88.1726 270.27 87.9898C270.157 87.8069 269.475 87.6573 268.754 87.6573C268.034 87.6573 267.444 87.5077 267.444 87.3248C267.444 87.1419 266.696 86.9923 265.782 86.9923C264.867 86.9923 264.119 86.8703 264.119 86.7214C264.119 86.5721 262.361 86.2669 260.213 86.0431C258.064 85.8194 255.333 85.4859 254.145 85.3017C252.956 85.1178 249.777 84.8854 247.08 84.7857C244.382 84.6856 242.175 84.4681 242.175 84.3019C242.175 84.1303 239.09 84 235.027 84C230.965 84 227.879 84.1303 227.879 84.3019Z" fill="black"/>
<path d="M475.381 429.977C475.381 453.185 455.291 472 430.509 472C405.726 472 385.636 453.185 385.636 429.977C385.636 406.768 405.726 387.953 430.509 387.953C455.291 387.953 475.381 406.768 475.381 429.977Z" fill="#B60C1E"/>
</svg>
