<?xml version="1.0" encoding="UTF-8" standalone="no"?>
<!DOCTYPE svg PUBLIC "-//W3C//DTD SVG 1.1//EN" "http://www.w3.org/Graphics/SVG/1.1/DTD/svg11.dtd">
<svg xmlns="http://www.w3.org/2000/svg" version="1.1" viewBox="0.00 0.00 720.00 720.00">
<g stroke-width="2.00" fill="none" stroke-linecap="butt">
<path stroke="#803300" vector-effect="non-scaling-stroke" d="
  M 253.99 254.63
  C 235.21 237.75 222.13 216.53 218.03 191.39
  C 217.43 187.71 217.18 182.98 216.57 178.75
  Q 215.90 174.16 216.61 166.01
  Q 217.27 158.43 218.05 150.84
  Q 218.30 148.48 217.53 146.26
  Q 202.26 101.88 186.90 57.47
  Q 186.74 57.00 186.24 57.00
  L 100.29 57.00
  A 0.36 0.35 79.7 0 0 99.96 57.48
  L 204.43 339.68
  Q 204.55 340.01 204.58 339.68
  C 205.76 326.73 215.47 320.00 227.75 319.99
  C 244.10 319.99 260.63 319.50 276.93 320.46
  Q 277.60 320.50 277.38 319.87
  L 255.86 257.45
  Q 255.29 255.80 253.99 254.63"
/>
<path stroke="#803300" vector-effect="non-scaling-stroke" d="
  M 463.34 256.28
  Q 467.65 259.51 470.53 261.70
  Q 504.92 287.82 513.09 330.17
  C 513.58 332.72 513.61 336.42 514.45 339.55
  Q 514.60 340.10 514.80 339.57
  L 619.40 57.51
  Q 619.59 57.00 619.05 57.00
  L 533.01 57.00
  Q 532.23 57.00 531.97 57.74
  L 505.14 135.10
  Q 504.97 135.58 505.16 136.04
  Q 513.20 155.80 513.97 176.95
  C 514.42 189.19 510.96 198.89 498.53 202.26
  C 493.84 203.53 487.49 202.93 482.10 203.03
  Q 481.62 203.03 481.46 203.49
  L 463.26 256.02
  A 0.22 0.22 0.0 0 0 463.34 256.28"
/>
<path stroke="#803300" vector-effect="non-scaling-stroke" d="
  M 226.34 185.90
  C 233.75 245.39 290.17 272.43 340.27 288.20
  C 367.12 296.65 396.83 303.84 419.99 320.55
  C 433.87 330.56 437.23 350.48 433.29 366.07
  C 428.09 386.58 408.14 396.88 388.92 400.05
  C 365.06 403.98 337.92 402.67 315.83 391.42
  C 297.38 382.03 284.99 364.21 285.02 343.01
  C 285.03 334.82 280.92 329.03 272.26 328.99
  Q 251.65 328.89 231.07 329.06
  C 221.58 329.13 214.42 330.38 213.42 340.87
  Q 213.35 341.62 213.70 342.46
  Q 214.16 343.58 214.13 344.08
  Q 213.76 350.21 214.67 356.33
  C 224.48 422.10 283.29 455.42 343.90 462.85
  C 345.36 463.03 346.79 462.75 348.32 462.98
  Q 351.55 463.45 351.58 463.45
  Q 385.21 465.71 417.94 457.70
  C 476.41 443.40 514.26 395.71 504.54 334.25
  C 495.95 279.93 449.51 252.71 401.74 236.77
  C 378.48 229.00 354.70 223.05 332.21 213.10
  C 311.71 204.03 295.47 191.40 297.04 167.14
  C 299.67 126.69 342.35 119.90 374.05 122.20
  C 405.42 124.48 430.06 141.49 433.60 174.73
  C 433.71 175.78 434.35 177.34 434.23 178.13
  C 432.53 189.02 438.57 194.06 448.45 194.03
  Q 469.60 193.98 490.76 193.99
  C 501.83 193.99 505.31 188.82 505.00 177.91
  C 503.93 140.54 483.36 105.94 452.78 85.25
  C 424.33 66.00 391.43 58.49 357.25 59.49
  C 355.22 59.55 353.43 60.11 351.48 60.07
  Q 344.85 59.96 336.93 61.06
  C 308.45 65.02 282.88 74.55 261.13 93.65
  Q 223.33 126.86 225.57 177.77
  C 225.64 179.30 226.08 180.76 226.16 182.42
  Q 226.30 185.51 226.34 185.90"
/>
<path stroke="#803300" vector-effect="non-scaling-stroke" d="
  M 359.41 555.74
  Q 359.06 556.77 358.71 555.74
  L 329.21 470.20
  Q 329.01 469.62 328.40 469.52
  C 292.29 463.41 260.40 447.31 235.11 420.86
  Q 234.08 419.78 234.60 421.18
  L 323.96 662.60
  A 0.62 0.62 0.0 0 0 324.54 663.00
  L 394.29 663.00
  Q 394.85 663.00 395.04 662.48
  L 478.94 436.25
  Q 479.07 435.91 478.79 436.14
  C 453.17 458.16 422.90 468.80 389.15 471.63
  Q 388.56 471.68 388.37 472.24
  L 359.41 555.74"
/>
<path stroke="#ff9900" vector-effect="non-scaling-stroke" d="
  M 259.25 231.61
  C 279.11 253.48 311.90 267.68 339.51 276.49
  C 365.21 284.70 387.45 290.69 410.22 301.74
  C 425.39 309.11 438.08 319.11 443.16 335.83
  C 450.37 359.54 442.70 386.83 420.68 399.95
  Q 406.01 408.70 391.49 410.73
  C 369.28 413.85 349.04 413.89 327.46 407.73
  C 295.65 398.64 274.23 375.11 273.97 340.97
  Q 273.96 340.00 272.99 340.00
  L 224.99 340.00
  A 0.44 0.44 0.0 0 0 224.55 340.44
  C 224.67 394.08 264.15 431.39 313.00 445.52
  Q 353.48 457.23 396.29 450.99
  C 443.23 444.15 488.33 417.19 494.26 365.82
  C 502.92 290.80 441.45 258.95 381.01 241.48
  C 354.27 233.75 327.56 226.18 306.36 210.68
  C 290.42 199.03 283.93 181.27 286.52 162.02
  C 290.96 128.97 319.26 114.11 349.75 111.49
  C 373.43 109.46 398.58 111.97 417.80 125.70
  C 436.71 139.21 444.72 159.87 444.99 182.71
  A 0.55 0.54 89.5 0 0 445.53 183.25
  L 493.74 183.25
  Q 494.24 183.25 494.24 182.75
  C 494.50 122.54 445.52 80.43 389.48 72.38
  C 344.08 65.86 295.55 74.11 262.24 107.74
  C 228.62 141.69 227.55 196.73 259.25 231.61"
/>
</g>
<path fill="#000000" d="
  M 497.71 120.83
  A 0.46 0.46 0.0 0 0 498.55 120.75
  Q 508.65 91.26 519.04 61.66
  C 522.91 50.62 523.59 45.97 535.72 45.98
  Q 575.81 46.03 615.88 45.98
  C 623.15 45.98 629.35 48.81 629.87 56.67
  Q 630.09 60.14 627.59 66.90
  Q 571.16 219.05 514.74 371.21
  C 512.26 377.90 511.58 383.60 508.97 391.06
  C 505.81 400.09 500.87 408.56 497.48 417.69
  Q 452.61 538.77 407.69 659.83
  C 404.18 669.29 402.86 673.99 392.34 673.99
  Q 359.80 674.01 327.27 674.00
  C 316.83 673.99 314.76 669.85 311.26 660.38
  Q 201.24 362.67 91.05 65.02
  C 86.80 53.54 90.59 46.00 103.48 46.00
  Q 144.74 46.00 186.01 46.00
  C 191.53 46.00 195.48 48.92 197.32 54.23
  Q 210.32 91.56 223.62 130.40
  A 0.19 0.19 0.0 0 0 223.97 130.41
  C 227.52 121.41 232.09 112.97 238.08 105.21
  C 263.57 72.17 301.11 55.16 342.27 51.36
  C 345.00 51.11 349.63 51.25 353.30 50.83
  C 362.97 49.72 370.90 50.76 378.00 51.09
  C 426.17 53.35 473.66 78.51 497.71 120.83
  Z
  M 253.99 254.63
  C 235.21 237.75 222.13 216.53 218.03 191.39
  C 217.43 187.71 217.18 182.98 216.57 178.75
  Q 215.90 174.16 216.61 166.01
  Q 217.27 158.43 218.05 150.84
  Q 218.30 148.48 217.53 146.26
  Q 202.26 101.88 186.90 57.47
  Q 186.74 57.00 186.24 57.00
  L 100.29 57.00
  A 0.36 0.35 79.7 0 0 99.96 57.48
  L 204.43 339.68
  Q 204.55 340.01 204.58 339.68
  C 205.76 326.73 215.47 320.00 227.75 319.99
  C 244.10 319.99 260.63 319.50 276.93 320.46
  Q 277.60 320.50 277.38 319.87
  L 255.86 257.45
  Q 255.29 255.80 253.99 254.63
  Z
  M 463.34 256.28
  Q 467.65 259.51 470.53 261.70
  Q 504.92 287.82 513.09 330.17
  C 513.58 332.72 513.61 336.42 514.45 339.55
  Q 514.60 340.10 514.80 339.57
  L 619.40 57.51
  Q 619.59 57.00 619.05 57.00
  L 533.01 57.00
  Q 532.23 57.00 531.97 57.74
  L 505.14 135.10
  Q 504.97 135.58 505.16 136.04
  Q 513.20 155.80 513.97 176.95
  C 514.42 189.19 510.96 198.89 498.53 202.26
  C 493.84 203.53 487.49 202.93 482.10 203.03
  Q 481.62 203.03 481.46 203.49
  L 463.26 256.02
  A 0.22 0.22 0.0 0 0 463.34 256.28
  Z
  M 226.34 185.90
  C 233.75 245.39 290.17 272.43 340.27 288.20
  C 367.12 296.65 396.83 303.84 419.99 320.55
  C 433.87 330.56 437.23 350.48 433.29 366.07
  C 428.09 386.58 408.14 396.88 388.92 400.05
  C 365.06 403.98 337.92 402.67 315.83 391.42
  C 297.38 382.03 284.99 364.21 285.02 343.01
  C 285.03 334.82 280.92 329.03 272.26 328.99
  Q 251.65 328.89 231.07 329.06
  C 221.58 329.13 214.42 330.38 213.42 340.87
  Q 213.35 341.62 213.70 342.46
  Q 214.16 343.58 214.13 344.08
  Q 213.76 350.21 214.67 356.33
  C 224.48 422.10 283.29 455.42 343.90 462.85
  C 345.36 463.03 346.79 462.75 348.32 462.98
  Q 351.55 463.45 351.58 463.45
  Q 385.21 465.71 417.94 457.70
  C 476.41 443.40 514.26 395.71 504.54 334.25
  C 495.95 279.93 449.51 252.71 401.74 236.77
  C 378.48 229.00 354.70 223.05 332.21 213.10
  C 311.71 204.03 295.47 191.40 297.04 167.14
  C 299.67 126.69 342.35 119.90 374.05 122.20
  C 405.42 124.48 430.06 141.49 433.60 174.73
  C 433.71 175.78 434.35 177.34 434.23 178.13
  C 432.53 189.02 438.57 194.06 448.45 194.03
  Q 469.60 193.98 490.76 193.99
  C 501.83 193.99 505.31 188.82 505.00 177.91
  C 503.93 140.54 483.36 105.94 452.78 85.25
  C 424.33 66.00 391.43 58.49 357.25 59.49
  C 355.22 59.55 353.43 60.11 351.48 60.07
  Q 344.85 59.96 336.93 61.06
  C 308.45 65.02 282.88 74.55 261.13 93.65
  Q 223.33 126.86 225.57 177.77
  C 225.64 179.30 226.08 180.76 226.16 182.42
  Q 226.30 185.51 226.34 185.90
  Z
  M 354.07 130.98
  C 335.47 132.04 312.51 139.25 307.14 159.89
  C 301.56 181.35 312.82 193.40 331.03 202.45
  C 351.86 212.79 374.59 218.77 396.76 225.51
  C 416.10 231.39 435.50 239.85 453.13 249.73
  A 0.57 0.56 -65.9 0 0 453.94 249.42
  L 469.75 203.74
  A 0.52 0.51 10.3 0 0 469.27 203.06
  C 460.49 202.89 447.58 204.34 439.91 202.21
  C 430.94 199.73 424.77 191.18 425.03 181.86
  C 425.63 160.29 414.02 143.40 394.39 135.81
  C 381.78 130.93 367.26 130.23 354.07 130.98
  Z
  M 379.50 392.00
  Q 393.79 391.36 406.59 385.00
  Q 407.04 384.77 407.21 384.29
  L 422.67 339.67
  A 2.79 2.75 41.4 0 0 422.52 337.52
  C 415.08 322.69 389.76 313.55 372.44 307.93
  C 337.73 296.67 303.04 287.20 271.91 267.60
  Q 270.66 266.82 271.14 268.21
  Q 289.49 321.27 307.42 373.53
  Q 308.11 375.55 308.89 376.16
  C 323.23 387.25 337.95 390.75 356.55 392.89
  C 361.40 393.46 368.05 393.33 372.82 392.69
  Q 377.15 392.11 379.50 392.00
  Z
  M 359.41 555.74
  Q 359.06 556.77 358.71 555.74
  L 329.21 470.20
  Q 329.01 469.62 328.40 469.52
  C 292.29 463.41 260.40 447.31 235.11 420.86
  Q 234.08 419.78 234.60 421.18
  L 323.96 662.60
  A 0.62 0.62 0.0 0 0 324.54 663.00
  L 394.29 663.00
  Q 394.85 663.00 395.04 662.48
  L 478.94 436.25
  Q 479.07 435.91 478.79 436.14
  C 453.17 458.16 422.90 468.80 389.15 471.63
  Q 388.56 471.68 388.37 472.24
  L 359.41 555.74
  Z
  M 375.58 472.69
  C 364.14 473.42 352.95 472.77 341.74 471.56
  Q 341.27 471.51 341.42 471.95
  L 358.73 522.28
  A 0.37 0.36 -44.9 0 0 359.42 522.28
  L 376.27 473.59
  A 0.69 0.68 7.7 0 0 375.58 472.69
  Z"
/>
<path fill="#ff6600" d="
  M 253.99 254.63
  Q 255.29 255.80 255.86 257.45
  L 277.38 319.87
  Q 277.60 320.50 276.93 320.46
  C 260.63 319.50 244.10 319.99 227.75 319.99
  C 215.47 320.00 205.76 326.73 204.58 339.68
  Q 204.55 340.01 204.43 339.68
  L 99.96 57.48
  A 0.36 0.35 79.7 0 1 100.29 57.00
  L 186.24 57.00
  Q 186.74 57.00 186.90 57.47
  Q 202.26 101.88 217.53 146.26
  Q 218.30 148.48 218.05 150.84
  Q 217.27 158.43 216.61 166.01
  Q 215.90 174.16 216.57 178.75
  C 217.18 182.98 217.43 187.71 218.03 191.39
  C 222.13 216.53 235.21 237.75 253.99 254.63
  Z"
/>
<path fill="#ff6600" d="
  M 463.34 256.28
  A 0.22 0.22 0.0 0 1 463.26 256.02
  L 481.46 203.49
  Q 481.62 203.03 482.10 203.03
  C 487.49 202.93 493.84 203.53 498.53 202.26
  C 510.96 198.89 514.42 189.19 513.97 176.95
  Q 513.20 155.80 505.16 136.04
  Q 504.97 135.58 505.14 135.10
  L 531.97 57.74
  Q 532.23 57.00 533.01 57.00
  L 619.05 57.00
  Q 619.59 57.00 619.40 57.51
  L 514.80 339.57
  Q 514.60 340.10 514.45 339.55
  C 513.61 336.42 513.58 332.72 513.09 330.17
  Q 504.92 287.82 470.53 261.70
  Q 467.65 259.51 463.34 256.28
  Z"
/>
<path fill="#ff6600" d="
  M 340.27 288.20
  C 290.17 272.43 233.75 245.39 226.34 185.90
  Q 226.30 185.51 226.16 182.42
  C 226.08 180.76 225.64 179.30 225.57 177.77
  Q 223.33 126.86 261.13 93.65
  C 282.88 74.55 308.45 65.02 336.93 61.06
  Q 344.85 59.96 351.48 60.07
  C 353.43 60.11 355.22 59.55 357.25 59.49
  C 391.43 58.49 424.33 66.00 452.78 85.25
  C 483.36 105.94 503.93 140.54 505.00 177.91
  C 505.31 188.82 501.83 193.99 490.76 193.99
  Q 469.60 193.98 448.45 194.03
  C 438.57 194.06 432.53 189.02 434.23 178.13
  C 434.35 177.34 433.71 175.78 433.60 174.73
  C 430.06 141.49 405.42 124.48 374.05 122.20
  C 342.35 119.90 299.67 126.69 297.04 167.14
  C 295.47 191.40 311.71 204.03 332.21 213.10
  C 354.70 223.05 378.48 229.00 401.74 236.77
  C 449.51 252.71 495.95 279.93 504.54 334.25
  C 514.26 395.71 476.41 443.40 417.94 457.70
  Q 385.21 465.71 351.58 463.45
  Q 351.55 463.45 348.32 462.98
  C 346.79 462.75 345.36 463.03 343.90 462.85
  C 283.29 455.42 224.48 422.10 214.67 356.33
  Q 213.76 350.21 214.13 344.08
  Q 214.16 343.58 213.70 342.46
  Q 213.35 341.62 213.42 340.87
  C 214.42 330.38 221.58 329.13 231.07 329.06
  Q 251.65 328.89 272.26 328.99
  C 280.92 329.03 285.03 334.82 285.02 343.01
  C 284.99 364.21 297.38 382.03 315.83 391.42
  C 337.92 402.67 365.06 403.98 388.92 400.05
  C 408.14 396.88 428.09 386.58 433.29 366.07
  C 437.23 350.48 433.87 330.56 419.99 320.55
  C 396.83 303.84 367.12 296.65 340.27 288.20
  Z
  M 259.25 231.61
  C 279.11 253.48 311.90 267.68 339.51 276.49
  C 365.21 284.70 387.45 290.69 410.22 301.74
  C 425.39 309.11 438.08 319.11 443.16 335.83
  C 450.37 359.54 442.70 386.83 420.68 399.95
  Q 406.01 408.70 391.49 410.73
  C 369.28 413.85 349.04 413.89 327.46 407.73
  C 295.65 398.64 274.23 375.11 273.97 340.97
  Q 273.96 340.00 272.99 340.00
  L 224.99 340.00
  A 0.44 0.44 0.0 0 0 224.55 340.44
  C 224.67 394.08 264.15 431.39 313.00 445.52
  Q 353.48 457.23 396.29 450.99
  C 443.23 444.15 488.33 417.19 494.26 365.82
  C 502.92 290.80 441.45 258.95 381.01 241.48
  C 354.27 233.75 327.56 226.18 306.36 210.68
  C 290.42 199.03 283.93 181.27 286.52 162.02
  C 290.96 128.97 319.26 114.11 349.75 111.49
  C 373.43 109.46 398.58 111.97 417.80 125.70
  C 436.71 139.21 444.72 159.87 444.99 182.71
  A 0.55 0.54 89.5 0 0 445.53 183.25
  L 493.74 183.25
  Q 494.24 183.25 494.24 182.75
  C 494.50 122.54 445.52 80.43 389.48 72.38
  C 344.08 65.86 295.55 74.11 262.24 107.74
  C 228.62 141.69 227.55 196.73 259.25 231.61
  Z"
/>
<path fill="#ffcc00" d="
  M 339.51 276.49
  C 311.90 267.68 279.11 253.48 259.25 231.61
  C 227.55 196.73 228.62 141.69 262.24 107.74
  C 295.55 74.11 344.08 65.86 389.48 72.38
  C 445.52 80.43 494.50 122.54 494.24 182.75
  Q 494.24 183.25 493.74 183.25
  L 445.53 183.25
  A 0.55 0.54 89.5 0 1 444.99 182.71
  C 444.72 159.87 436.71 139.21 417.80 125.70
  C 398.58 111.97 373.43 109.46 349.75 111.49
  C 319.26 114.11 290.96 128.97 286.52 162.02
  C 283.93 181.27 290.42 199.03 306.36 210.68
  C 327.56 226.18 354.27 233.75 381.01 241.48
  C 441.45 258.95 502.92 290.80 494.26 365.82
  C 488.33 417.19 443.23 444.15 396.29 450.99
  Q 353.48 457.23 313.00 445.52
  C 264.15 431.39 224.67 394.08 224.55 340.44
  A 0.44 0.44 0.0 0 1 224.99 340.00
  L 272.99 340.00
  Q 273.96 340.00 273.97 340.97
  C 274.23 375.11 295.65 398.64 327.46 407.73
  C 349.04 413.89 369.28 413.85 391.49 410.73
  Q 406.01 408.70 420.68 399.95
  C 442.70 386.83 450.37 359.54 443.16 335.83
  C 438.08 319.11 425.39 309.11 410.22 301.74
  C 387.45 290.69 365.21 284.70 339.51 276.49
  Z"
/>
<path fill="#ff6600" d="
  M 359.41 555.74
  L 388.37 472.24
  Q 388.56 471.68 389.15 471.63
  C 422.90 468.80 453.17 458.16 478.79 436.14
  Q 479.07 435.91 478.94 436.25
  L 395.04 662.48
  Q 394.85 663.00 394.29 663.00
  L 324.54 663.00
  A 0.62 0.62 0.0 0 1 323.96 662.60
  L 234.60 421.18
  Q 234.08 419.78 235.11 420.86
  C 260.40 447.31 292.29 463.41 328.40 469.52
  Q 329.01 469.62 329.21 470.20
  L 358.71 555.74
  Q 359.06 556.77 359.41 555.74
  Z"
/>
</svg>
