<svg xmlns="http://www.w3.org/2000/svg" viewBox="0 0 720 720"><g stroke-width="2" fill="none"><path stroke="#803300" vector-effect="non-scaling-stroke" d="M254 255c-19-17-32-38-36-64l-1-12v-13l1-15v-5l-31-89h-87l104 283h1c1-13 10-20 23-20h49q1 1 0 0l-21-63-2-2M463 256l8 6q34 26 42 68l1 10h1L619 58v-1h-86l-1 1-27 77v1q8 20 9 41c0 12-3 22-15 25-5 2-12 1-17 1h-1l-18 53"/><path stroke="#803300" vector-effect="non-scaling-stroke" d="M226 186c8 59 64 86 114 102 27 9 57 16 80 33 14 10 17 29 13 45-5 21-25 31-44 34-24 4-51 3-73-9-19-9-31-27-31-48 0-8-4-14-13-14h-41c-9 0-17 1-18 12l1 1v2l1 12c9 66 68 99 129 107h8q33 3 66-5c58-15 96-62 87-124-9-54-55-81-103-97-24-8-47-14-70-24-20-9-37-22-35-46 3-40 45-47 77-45 31 2 56 19 60 53v3c-1 11 5 16 14 16h43c11 0 14-5 14-16-1-37-22-72-52-93-29-19-62-27-96-26l-6 1-14 1c-29 4-54 14-76 33q-38 33-35 84v8"/><path stroke="#803300" vector-effect="non-scaling-stroke" d="M359 556q0 1 0 0l-30-86h-1c-36-7-68-23-93-49q-1-1 0 0l89 242a1 1 0 0 0 1 0h69l1-1 84-226c-26 22-56 33-90 36h-1l-29 84"/><path stroke="#f90" vector-effect="non-scaling-stroke" d="M259 232c20 21 53 36 81 44 25 9 47 15 70 26 15 7 28 17 33 34 7 24 0 51-22 64q-15 9-30 11c-22 3-42 3-64-3-31-9-53-33-53-67l-1-1h-48c0 54 39 91 88 106q40 11 83 5c47-7 92-34 98-85 9-75-53-107-113-125-27-7-53-15-75-30a50 50 0 0 1-19-49c4-33 32-48 63-51 23-2 49 1 68 15 19 13 27 34 27 57a1 1 90 0 0 1 0h48c1-60-48-103-105-111-45-6-93 2-127 36a91 91 0 0 0-3 124"/></g><path d="M498 121h1l20-59c4-11 5-16 17-16h80c7 0 13 3 14 11l-2 10-113 304-6 20-12 27-89 242c-4 9-5 14-16 14h-65c-10 0-12-4-16-14L91 65c-4-11 0-19 12-19h83c6 0 9 3 11 8l27 76c4-9 8-17 14-25 26-33 63-50 104-54h36c48 2 96 28 120 70ZM254 255c-19-17-32-38-36-64l-1-12v-13l1-15v-5l-31-89h-87l104 283h1c1-13 10-20 23-20h49q1 1 0 0l-21-63-2-2Zm209 1 8 6q34 26 42 68l1 10h1L619 58v-1h-86l-1 1-27 77v1q8 20 9 41c0 12-3 22-15 25-5 2-12 1-17 1h-1l-18 53Zm-237-70c8 59 64 86 114 102 27 9 57 16 80 33 14 10 17 29 13 45-5 21-25 31-44 34-24 4-51 3-73-9-19-9-31-27-31-48 0-8-4-14-13-14h-41c-9 0-17 1-18 12l1 1v2l1 12c9 66 68 99 129 107h8q33 3 66-5c58-15 96-62 87-124-9-54-55-81-103-97-24-8-47-14-70-24-20-9-37-22-35-46 3-40 45-47 77-45 31 2 56 19 60 53v3c-1 11 5 16 14 16h43c11 0 14-5 14-16-1-37-22-72-52-93-29-19-62-27-96-26l-6 1-14 1c-29 4-54 14-76 33q-38 33-35 84v8Zm128-55c-19 1-41 8-47 29-5 21 6 33 24 42 21 11 44 17 66 24 19 5 39 14 56 24a1 1-66 0 0 1-1l16-45a1 1 10 0 0-1-1c-9 0-21 1-29-1-9-2-15-11-15-20 1-22-11-39-31-46-12-5-27-6-40-5Zm26 261q14-1 27-7v-1l16-44a3 3 41 0 0 0-2c-8-15-33-24-51-30-34-11-69-21-100-40h-1l36 106 2 2c14 11 29 15 48 17h16l7-1Zm-21 164q0 1 0 0l-30-86h-1c-36-7-68-23-93-49q-1-1 0 0l89 242a1 1 0 0 0 1 0h69l1-1 84-226c-26 22-56 33-90 36h-1l-29 84Zm17-83-34-1h-1l18 50 17-48a1 1 8 0 0 0-1Z"/><path fill="#f60" d="m254 255 2 2 21 63q1 1 0 0h-49c-13 0-22 7-23 20h-1L100 57h87l31 89v5l-1 15v13l1 12c4 26 17 47 36 64ZM463 256l18-53h1c5 0 12 1 17-1 12-3 15-13 15-25q-1-21-9-41v-1l27-77 1-1h86v1L515 340h-1l-1-10q-8-42-42-68l-8-6Z"/><path fill="#f60" d="M340 288c-50-16-106-43-114-102v-8q-3-51 35-84c22-19 47-29 76-33l14-1 6-1c34-1 67 7 96 26 30 21 51 56 52 93 0 11-3 16-14 16h-43c-9 0-15-5-14-16v-3c-4-34-29-51-60-53-32-2-74 5-77 45-2 24 15 37 35 46 23 10 46 16 70 24 48 16 94 43 103 97 9 62-29 109-87 124q-33 8-66 5h-8c-61-8-120-41-129-107l-1-12v-2l-1-1c1-11 9-12 18-12h41c9 0 13 6 13 14 0 21 12 39 31 48 22 12 49 13 73 9 19-3 39-13 44-34 4-16 1-35-13-45-23-17-53-24-80-33Zm-81-56c20 21 53 36 81 44 25 9 47 15 70 26 15 7 28 17 33 34 7 24 0 51-22 64q-15 9-30 11c-22 3-42 3-64-3-31-9-53-33-53-67l-1-1h-48c0 54 39 91 88 106q40 11 83 5c47-7 92-34 98-85 9-75-53-107-113-125-27-7-53-15-75-30a50 50 0 0 1-19-49c4-33 32-48 63-51 23-2 49 1 68 15 19 13 27 34 27 57a1 1 90 0 0 1 0h48c1-60-48-103-105-111-45-6-93 2-127 36a91 91 0 0 0-3 124Z"/><path fill="#fc0" d="M340 276c-28-8-61-23-81-44a91 91 0 0 1 3-124c34-34 82-42 127-36 57 8 106 51 105 111h-48a1 1 90 0 1-1 0c0-23-8-44-27-57-19-14-45-17-68-15-31 3-59 18-63 51-3 19 3 37 19 49 22 15 48 23 75 30 60 18 122 50 113 125-6 51-51 78-98 85q-43 6-83-5c-49-15-88-52-88-106h48l1 1c0 34 22 58 53 67 22 6 42 6 64 3q15-2 30-11c22-13 29-40 22-64-5-17-18-27-33-34-23-11-45-17-70-26Z"/><path fill="#f60" d="m359 556 29-84h1c34-3 64-14 90-36l-84 226-1 1h-69a1 1 0 0 1-1 0l-89-242q-1-1 0 0c25 26 57 42 93 49h1l30 86q0 1 0 0Z"/></svg>