<?xml version="1.0" standalone="no"?>
<!DOCTYPE svg PUBLIC "-//W3C//DTD SVG 20010904//EN"
 "http://www.w3.org/TR/2001/REC-SVG-20010904/DTD/svg10.dtd">
<svg version="1.0" xmlns="http://www.w3.org/2000/svg"
 width="700.000000pt" height="700.000000pt" viewBox="0 0 700.000000 700.000000"
 preserveAspectRatio="xMidYMid meet">
<metadata>
Created by potrace 1.14, written by Peter Selinger 2001-2017
</metadata>
<g transform="translate(0.000000,700.000000) scale(0.100000,-0.100000)"
fill="#000000" stroke="none">
<path d="M962 6547 c-50 -10 -79 -38 -88 -84 -8 -41 -3 -58 87 -303 28 -74 82
-220 120 -325 39 -104 76 -206 84 -225 8 -19 30 -79 50 -132 37 -102 60 -167
168 -458 36 -96 144 -391 242 -655 159 -430 207 -560 250 -675 7 -19 37 -98
65 -175 28 -77 60 -162 70 -190 10 -27 35 -94 54 -147 20 -53 40 -107 45 -120
5 -13 34 -90 64 -173 30 -82 93 -253 140 -380 47 -126 111 -300 142 -385 31
-85 60 -164 65 -175 5 -11 41 -108 81 -215 39 -107 84 -229 99 -270 15 -41 55
-151 89 -245 34 -93 66 -179 71 -190 4 -11 17 -45 28 -75 172 -465 174 -470
221 -490 41 -17 731 -16 772 1 48 19 57 39 239 539 45 124 95 259 110 300 45
119 306 829 336 915 8 22 18 49 23 60 5 11 33 85 61 165 29 80 63 172 75 205
13 33 42 112 65 175 23 63 68 175 100 247 33 73 72 177 88 230 16 54 112 319
212 588 100 270 210 567 245 660 35 94 143 384 240 645 98 261 190 509 205
550 55 151 150 407 185 500 31 82 45 130 60 202 5 24 -35 80 -69 97 -41 20
-880 20 -922 0 -37 -18 -66 -70 -108 -199 -82 -247 -166 -493 -174 -506 -5
-10 -23 10 -62 69 -105 160 -320 347 -509 442 -147 73 -352 134 -508 151 -32
4 -148 7 -258 8 -219 1 -335 -13 -500 -60 -352 -101 -652 -335 -795 -621 l-42
-85 -18 48 c-68 190 -150 420 -190 536 -63 179 -76 204 -110 218 -32 13 -833
20 -898 7z m2713 -828 c198 -30 348 -128 415 -271 28 -58 32 -81 45 -226 6
-65 21 -100 60 -138 47 -47 84 -56 250 -58 98 -2 120 -5 118 -17 -1 -12 -24
-79 -99 -289 -44 -123 -50 -140 -56 -145 -3 -3 -27 7 -54 23 -105 61 -410 192
-448 192 -5 0 -82 23 -170 51 -483 151 -664 247 -733 387 -24 48 -28 68 -27
132 3 180 131 308 353 351 95 18 253 22 346 8z m-875 -1407 c86 -44 182 -89
215 -101 33 -12 69 -26 80 -31 11 -6 155 -55 320 -109 388 -127 487 -168 585
-238 50 -36 110 -104 110 -125 0 -10 -11 -49 -24 -86 -13 -37 -43 -119 -65
-182 -23 -63 -44 -122 -48 -130 -7 -17 -10 -26 -12 -39 -2 -15 -83 -48 -166
-67 -61 -14 -120 -19 -245 -19 -168 0 -216 7 -335 47 -97 33 -217 104 -230
136 -4 9 -73 213 -155 452 -81 239 -157 462 -169 495 -20 55 -24 75 -18 75 1
0 72 -35 157 -78z m847 -1911 c9 -1 8 -12 -3 -43 -71 -196 -118 -331 -131
-370 -8 -27 -18 -48 -22 -48 -4 0 -13 17 -20 38 -7 20 -41 116 -76 212 -35 96
-66 185 -70 198 l-7 23 159 -5 c87 -3 163 -5 170 -5z"/>
</g>
</svg>
